<?xml version="1.0" encoding="utf-8"?>
<!-- Generator: Adobe Illustrator 22.0.1, SVG Export Plug-In . SVG Version: 6.00 Build 0)  -->
<svg version="1.1" id="Layer_1" xmlns="http://www.w3.org/2000/svg" xmlns:xlink="http://www.w3.org/1999/xlink" x="0px" y="0px"
	 viewBox="0 0 70.4 72.5" style="enable-background:new 0 0 70.4 72.5;" xml:space="preserve">
<style type="text/css">
	.st0{fill:#F6DDC6;}
</style>
<g>
	<g>
		<g>
			<g>
				<g>
					<path class="st0" d="M39.1,62.1c-0.1,0-0.2,0.2,0.1,0.3l0.3-0.2L39.1,62.1z"/>
					<path class="st0" d="M40.6,63.3c0.4-0.1,0.8-0.2,0.7-0.6c-0.4,0.2-0.4,0.1-0.9,0.3c-0.3,0-0.4-0.3-0.3-0.4
						c-0.1,0-0.4-0.2-0.6-0.1c0.2,0.4,0.7,0.6,1.2,0.5C40.7,63.2,40.6,63.2,40.6,63.3z"/>
					<path class="st0" d="M64.6,55.6l-0.1,0.1C64.5,55.7,64.5,55.6,64.6,55.6z"/>
					<path class="st0" d="M67.8,39.3c0,0.1,0.1,0.2,0.1,0.2C67.9,39.3,67.9,39.2,67.8,39.3z"/>
					<path class="st0" d="M67.5,36.4c0,0.1,0,0.1,0,0.2C67.5,36.5,67.5,36.4,67.5,36.4z"/>
					<path class="st0" d="M64.6,55.6l0.3-0.3C64.8,55.1,64.7,55.4,64.6,55.6z"/>
					<path class="st0" d="M44.3,63.3c-0.1,0-0.2,0-0.2,0.1L44.3,63.3C44.2,63.4,44.3,63.4,44.3,63.3z"/>
					<path class="st0" d="M59.6,61.2c0,0-0.1,0.1-0.1,0.1c0,0.1,0,0.1,0,0.2C59.5,61.3,59.5,61.3,59.6,61.2z"/>
					<path class="st0" d="M54.4,63.9c0.1,0,0.1-0.3,0.1-0.4c0,0.1-0.1,0.2-0.2,0.3C54.3,63.8,54.4,63.8,54.4,63.9z"/>
					<path class="st0" d="M45.4,64.6l-0.2,0C45.3,64.6,45.3,64.6,45.4,64.6z"/>
					<path class="st0" d="M62.7,58.4c0,0,0.1,0,0.1,0C62.8,58.4,62.8,58.4,62.7,58.4z"/>
					<path class="st0" d="M16.2,65.3C16.2,65.3,16.1,65.3,16.2,65.3C16.2,65.3,16.2,65.3,16.2,65.3z"/>
					<path class="st0" d="M20.6,69.6L20.6,69.6c-0.1,0-0.1,0.1-0.1,0.1L20.6,69.6z"/>
					<path class="st0" d="M66,31.3C66,31.3,66,31.3,66,31.3C66.1,31.4,66,31.3,66,31.3z"/>
					<path class="st0" d="M34.9,3.9c0.6,0-0.7,0.6,0.1,0.6C34.9,4.5,35.6,3.9,34.9,3.9z"/>
					<path class="st0" d="M44.4,63.4l0.2,0C44.5,63.4,44.5,63.4,44.4,63.4z"/>
					<path class="st0" d="M35,4.5L35,4.5L35,4.5C35.1,4.5,35.1,4.5,35,4.5z"/>
					<path class="st0" d="M61.3,20.2c0,0-0.1,0.1-0.1,0.2C61.3,20.4,61.3,20.3,61.3,20.2z"/>
					<path class="st0" d="M64.3,28.6l0-0.2C64.3,28.5,64.3,28.6,64.3,28.6z"/>
					<path class="st0" d="M59.2,16.1c0-0.1,0-0.2-0.1-0.3c0,0,0,0,0,0.1C59.2,15.9,59.2,15.9,59.2,16.1z"/>
					<path class="st0" d="M57.4,11.6c0,0,0,0.1,0,0.1c0,0,0,0.1,0.1,0.1L57.4,11.6z"/>
					<path class="st0" d="M8.2,53.3c0,0.1-0.1,0.2-0.1,0.3C8.3,53.5,8.7,54.1,8.2,53.3z"/>
					<path class="st0" d="M44.2,63.5c0-0.1,0.1-0.1,0.2-0.1c-0.1,0-0.1,0-0.2,0C44.2,63.4,44.2,63.5,44.2,63.5z"/>
					<path class="st0" d="M57.1,16.7L56.8,16C56.9,16.2,57,16.5,57.1,16.7z"/>
					<path class="st0" d="M8.6,22.2l-0.1,0.1C8.6,22.3,8.6,22.2,8.6,22.2z"/>
					<path class="st0" d="M55.9,13.9c0-0.2,0-0.3,0-0.5c0,0-0.1,0-0.1-0.1L55.9,13.9z"/>
					<path class="st0" d="M8.1,53.7L8.1,53.7L8.1,53.7z"/>
					<path class="st0" d="M11.2,57.6c-0.4-0.6-0.5-0.1-0.7-0.1c-0.5-0.7,0-0.5,0-0.8c-0.4-0.4-0.9-0.6-1-0.9c0-0.1,0-0.1,0.1-0.1
						c-0.6-0.3-0.8-1.5-1.5-1.9c0-0.1,0-0.1,0-0.1C8,53.8,7.8,53.9,7.7,54c-0.2-0.3-0.5-0.4-0.3-0.6c0.1,0.2,0.2,0.2,0.3,0.2
						l-0.2-0.3c0.2-0.4,0.3,0.4,0.5,0.2c-0.4-0.5-1-1.1-1.1-1.6c0.3-0.2,0.6,1,0.6,0.3L7.7,53c0.2-0.8,0.2,0.4,0.4-0.3
						c-0.4-1-0.7-0.9-1-1.9c-0.3-0.1-0.2,0.2-0.5,0.1c-0.9-1.2,0.3-1.4-0.5-2.2c-0.3-0.2-0.8-0.1-0.8-0.9l0.5,0.1
						c-0.3-0.9-0.7-0.3-0.8-1.4c0.2,0.1,0.4,0.7,0.4,0.5c0.1-0.7-0.4-0.4-0.5-0.9L5,45.9c-0.2-0.5-0.4-1-0.6-1.5
						c-0.2-0.5-0.5-1.1-0.6-1.6c0.1,0,0.3,0.2,0.3-0.1c-0.2-0.7-0.4-1.5-0.4-2.2c0-0.4,0-0.8,0-1.1c0-0.4,0-0.7,0.1-1.1l-0.3-0.5
						c0-0.1,0.1-0.2,0.2-0.1c0.1-0.5-0.2,0-0.3-0.3c0-0.3,0.2-0.4,0.3-0.2c-0.1-0.5-0.2-1.2-0.3-1.8c0-0.7,0.1-1.4,0.3-1.9l0.1,0.2
						c0.2-0.8-0.4-1,0-1.6l0,0.1c0.1-0.4,0.2-0.8,0.3-1.3C4,30.5,4.1,30,4.3,29.6c0.1-0.4,0.2-0.8,0.4-1.1c0.2-0.3,0.4-0.6,0.6-0.9
						c-0.3-0.4,0.8-1.4,0.4-1.8c0.8-0.7,0.7-0.4,1.6-1.5c0.2-0.3,0-0.6,0.2-1l0.3,0.2l0.1-0.7l0.5,0l0.2-0.4
						c-0.1,0.1-0.3,0.2-0.4,0.1c0.3-0.6,1.2-1.1,1.3-1c0.3-0.4,0.5-0.9,0.9-1.3c0.1,0.1-0.1,0.3-0.2,0.5c0.4-0.8,0.3,0.1,0.7-0.6
						c-0.1,0-0.1-0.2-0.1-0.2c0.4-0.1,1-0.7,1.5-1.2l0,0.2c0.9-0.7,1.8-1.7,2.9-2.4c-0.4,0.2-0.6-0.2-0.3-0.4l0.3,0.2
						c0.1-0.3-0.4,0.1-0.1-0.4c0.4-0.3,0.5,0.1,0.3,0.4l0.4-0.4c0.1,0.1,0,0.2,0,0.3c0.1-0.3,1-0.3,1.1-0.8l0.1,0.1
						c1.1-0.7,1.5-1.1,2.5-1.7c-0.1-0.3,0.3-0.4,0.4-0.8c0.7-0.3,1.6-0.5,2.5-1c0.5-0.4,0.1-0.3,0.3-0.6c0.2,0.2,1-0.2,0.6,0.1
						c1-0.5,1.3-0.7,2.6-1.5c-0.2,0-0.4,0-0.3-0.1c0.2-0.1,0.6-0.1,0.6,0l-0.1,0.1c1.4-1,3.8-0.8,4.8-1.8L30.9,8l1.2-0.8
						c0.6-0.2-0.3,0.3,0.2,0.3c1.2-0.9,2.2-0.8,3.2-1.5c1.1,0.4,3.1-1.2,4.4-1l-0.1-0.2c0.3-0.3,0.4,0,0.6,0
						c-0.1-0.1-0.4-0.1-0.2-0.2c2.6-0.9,5.6-0.8,7.9-0.1c0.4,0.1,0.6,0,0.8-0.2c0.2-0.1,0.5-0.2,0.9,0.2l-0.4,0.2
						c0.9,0.1,1.7,0.7,2.4,1.3c0.7,0.6,1.2,1.4,1.8,2.1c-0.1-0.1-0.2,0-0.3-0.2c0,0.4,0.7,1.3,0.9,1.2c0.1,0.3-0.1,0.1-0.1,0.4
						c0.1,0.4,0.7,0.8,0.6,1.1c0,0.1-0.1-0.1-0.2-0.1c0.2,0.2,0.5,1.2,0.6,0.9c0.2,0.8,0.7,1.3,0.8,2c0.4,0.3,0.4,1.3,0.8,1.2
						c-0.4,0.1,0.2,1.4,0.6,1.8c-0.2-0.1,0,0.5-0.2,0.3c0.2,0.5,0.5,1,0.7,0.8c-0.1,1.2,1.2,1.8,0.8,2.6c0.9,1.5,1.6,2.8,2.3,4.2
						c-0.4,0.1-0.7-1.5-1.1-1.3c0.7,1.2,1.4,1.9,1.8,3.2c0.1,0.4-0.3-0.1-0.4-0.2c0.7,1.2,1,2.6,1.7,3.6c0,0-0.1-0.1-0.2-0.2
						c0.1,0.2,0.2,0.6,0.3,0.5l-0.1-0.2c0.1-0.5,0.9,0.7,1.1,0.7c-0.7-0.2,0.3,1.2-0.6,0.9c0.1,0.1,0.3,0.3,0.4,0.2
						c0.1,0.2,0,0.3-0.2,0.2c0.4,0.8,0.5,0.4,0.8,1.2c-0.1,0-0.2-0.1-0.3-0.1c0.3,0.3,0.7,0.6,0.8,1.3c-0.1,0-0.1,0.1-0.2-0.1
						c0.4,1.1,1.2,1.7,1.4,3c-0.5-0.2,0,0.5-0.4,0.6l0.3,0.6l0.1-0.3c0.1,0.6,0.5,1,0.5,1.5l-0.2-0.4c0.1,0.4,0.2,0.7,0.3,1.1l0-0.6
						c0.3,0.6,0.5-0.2,0.5,0.6c-0.1-0.2,0.1,0.6-0.1,0.9l0,0c0.2,0.3,0.3,0.6,0.3,1c-0.1,0.1-0.4-0.1-0.5,0c0.3,0.3,0.2,1.4,0.5,1.7
						c-0.1-0.1-0.3-0.1-0.3-0.1l0.2,0.2c-0.1,0.3-0.1,0.3-0.3,0.3c-0.1,0.8,0.5-0.2,0.3,0.7c0-0.1-0.1,0-0.1-0.2
						c-0.1,0.5-0.1,1-0.1,1.4c0,0.5-0.1,0.9-0.2,1.4c-0.4,0.2,0-0.8-0.3-0.5c-0.1,1.3-0.1,2.7-0.7,3.9l0.1-0.2
						c0.5,0.4-0.6,0.8-0.6,1.5c0-0.2-0.2-0.3-0.2-0.2c-0.4,0.8-0.6,1.6-1.2,2.9l0-0.2c-0.4,0.4-0.8,1.1-1.2,1.5
						c0,0.2-0.2,0.4,0.1,0.4c-0.4,0.2-0.7,0.5-1,0.8c-0.3,0.3-0.5,0.6-0.7,0.9c-0.5,0.6-1,1.3-1.7,1.5c0.1-0.1,0.3-0.4,0.1-0.3
						l-0.9,0.9c0.2,0.1,0.2,0,0.5,0c0,0.2-0.3,0.5-0.6,0.7c0.4-0.5-0.2-0.3-0.5-0.3c0.1,0,0,0.1,0.1,0.2c-0.8,0,0.2,0.5-0.8,0.7
						l0-0.1c-0.3,0.2-0.5,0.5-0.8,0.7c-0.3-0.2,0.3-0.3,0.2-0.5c-0.4,0.3-0.7,0.9-1.2,0.9c0.2-0.2,0.5-0.3,0.6-0.5
						c-0.6-0.1-0.6,0-1,0.2l0,0l-0.9,0.2l0.2,0c-0.3,0.9-1.2,0.6-1.9,1.3c0.7-0.6,0.1-0.3,0-0.6c-0.2,0-0.6,0-0.5-0.1
						c-0.3,0.3-0.7,0-1.2,0.4c0-0.1-0.4,0.1-0.4-0.2c-0.5,0.2,0.2,0.1,0.1,0.3c-0.8,0.5-1.9-0.1-3.1,0.4c-1,0.2-1.2,0.5-2.2,0.6
						c-0.3-0.2,0.3-0.3,0.3-0.3c-0.5-0.2-0.9-0.2-1.4-0.1c0.1-0.1,0-0.2-0.1-0.3c-0.4,0-0.3,0.3-0.8,0.1c0.1-0.1,0.2-0.2,0.4-0.3
						c-0.5,0-0.9,0.1-1.4,0.1c-0.1-0.2,0.3-0.2,0.5-0.3c-0.5,0-1.4-0.2-1.6,0.1l0.3,0.2c-0.2,0,0-0.2,0.1-0.3
						c0.5-0.1,0.6,0.3,0.6,0.4l-0.3,0c0.2,0.7,1.4,0.2,2,0.3l-0.3,0.4l0.8-0.3c0.1,0.1,0.2,0.4-0.1,0.4c0.5,0.3,0.5-0.1,0.9,0.2
						c0,0,0,0.1,0,0.1l0.5-0.1c-0.1,0.1,0.1,0.3-0.2,0.2c0.9,0.3,1.5-0.3,1.8,0l-0.1,0c1.2-0.2,0.1-0.3,1-0.7l0.7,0.7l0.1-0.3
						c0.1,0,0.4,0,0.3,0.1c0.4-0.3-0.1-0.1,0.2-0.4c0.7,0.2,1.6-0.4,1.9,0.1c0.2-0.3-0.6-0.1,0-0.3c0.3,0.5,0.7-0.3,1.3-0.2
						c-0.1,0.3-0.7,0.3,0,0.4c0.2-0.5,1.1-0.2,1.5-0.5c-0.1-0.3,0.9-0.5,1.6-0.9c0,0.1,1.5-0.5,2.2-0.8l0,0.1
						c-0.1-0.4,0.6-0.7,1-1.1c0.1,0.2,0.1,0.3-0.1,0.6l0.4-0.3c0-0.2,0.1-0.3,0.4-0.6l0.1,0.3c0.6-0.4,0.9-1.1,1.7-1.6
						c-0.1-0.2-1,0-0.4-0.8c0.1,0.1,0.3,0.2,0.2,0.4c0-0.1,0.1-0.3,0.3-0.4l-0.1,0.4c0.4-0.2,0-0.3,0.3-0.5c0.1,0.1,0.3-0.1,0.4,0.1
						c0,0.1-0.3,0.1-0.3,0.3c0.3-0.2,0.7-0.5,0.9-0.5c-0.1-0.1-0.2-0.2,0-0.4c0.5-0.5,0.3,0,0.7-0.3c0-0.2,0.4-0.5,0.2-0.7
						c0.1-0.2,0.3-0.1,0.4-0.1c0.1-0.4,1-1.4,0.5-1.3l-0.1,0.1c0,0,0,0,0-0.1l0,0l0,0c0.4-1.1,1.4-2,1.8-3.2l0.1,0
						c0.2-0.7,0.6-1.5,0.5-2c0.1-0.2,0.3-0.4,0.4-0.3c0.1-0.5,0-0.6,0.4-1.3c0,0.6,0.2-0.1,0,0.6c0.3-0.7,0.5-0.8,0.4-1.6
						c0.2,0.3,0.4-0.5,0.4-0.8L68,47.6c0-0.4,0.1-0.7,0.2-1l0.3,0.2c0.3-0.7,0.2-1.4,0.1-2c-0.1-0.6-0.2-1.2,0.1-1.8
						c-0.3-0.4-0.1,0.8-0.4,0.5c0-0.7,0.5-1.4,0.4-1.6c0.1-1-0.6-0.8-0.6-1.8c-0.1,0.1-0.4,0.3-0.6-0.4c-0.1-0.6,0.3-0.9,0.5-0.5
						c0,0.2,0,0.2,0,0.2c0.1,0.2,0.2,0.5,0.3,0.2l-0.1-0.1c0.1-0.3-0.2-1.2,0.1-1.1c-0.2-0.5-0.2-0.2-0.2,0.2c0-0.9-0.3-1.3-0.5-2.2
						c0,0.2-0.1,0.3-0.2,0.2c-0.2-1.3-0.4-0.5-0.7-1.3c0-0.5,0.5,0,0-0.7c-0.1-0.5,0.3-0.2,0.4,0c-0.5-0.7-0.4-1.4-0.5-1.9l0.2,0.4
						c-0.1-0.2-0.2-0.4-0.3-0.6l-0.1,0.3c0-0.2-0.1-0.4,0-0.5c-0.2-0.2-0.3,0.3-0.7-0.1c0-0.3-0.5-0.9-0.2-1.1
						c0.3,1,0.3-0.2,0.6,0.6c-0.1-0.1-0.2-0.3-0.2-0.6c0,0,0.1,0,0.1,0.1c-0.1-1-0.5-0.3-0.9-1.2c0.2,0.1,0.2-0.3,0.1-0.5
						c0.1,0.4-0.2,0.3-0.5,0c-0.1-0.6-0.4-0.6-0.5-0.9l0.1,0.4c-0.2-0.1-0.3-0.4-0.5-0.8c0.1-0.1,0.2,0.3,0.2,0.2
						c-0.5-0.3-0.1-1.2-0.6-1.7c0-0.3,0.3-0.2,0.3-0.4c-0.5-0.6-0.1-0.9-0.6-1.6c-0.1,0.3-0.1,0.3-0.5-0.1l0.7,1.2l-0.6-0.7
						c0.1,0.4,0.5,0.7,0.5,1c-0.3-0.3-0.3-0.3-0.4,0c0.1-0.6-0.6-0.9-0.6-1.6l0.6-0.2c-0.1-1-0.9-1.5-1.3-2.7l0.1,0.4
						c-0.3-0.1-0.3-0.7-0.6-1c0.2,0,0.2-0.3,0.2-0.5c-0.1,0.1-0.3-0.9-0.7-0.8l0-0.6c-0.3-1-1-0.9-1.3-1.8c0.3,0.2,0.3-0.3,0.7,0.3
						c-0.1-0.3-0.2-0.6-0.3-0.5c0-0.2-0.6-0.7-0.5-1.1c-0.1-0.1-0.3-0.1-0.5-0.4c0-0.1,0.1,0,0.1,0c-0.1,0-0.3-0.5-0.4-0.1
						c0.2-1.2-1.1-2.6-0.9-3.6c-0.3-0.6-0.7-1.4-1-2c0.1,0,0.1,0,0.1,0.1c-0.2-0.9-0.7-0.3-1-1.3c0.1-0.6,0.4,0.4,0.4,0.1
						c0.5-0.4-0.6-1.1-0.7-1.9l0.1,0.1c-0.1-0.6-0.9-1-1.5-1.7c0,0,0.1,0,0.1-0.1c-0.7-0.3-1.6-0.9-2.4-1.3c0.4-0.1,0.4,0.1,0.4-0.2
						c-0.4-0.2-0.1,0.4-0.8,0.1c-0.1-0.3-0.6-0.6-0.6-0.9C50.8,2.9,51,3,51.2,3.1C51,2.6,50.3,2.7,50,2.5l0.1-0.1
						c-1.1-0.3-1.2,0.1-2.4-0.2l0.1,0.1c-0.7,0.3-0.5-0.3-1.2-0.1l-0.2-0.4C46,2,45,2.3,44.2,2.4c0.4-0.3,1.3-0.5,1.8-0.7
						c-0.4,0-1.5,0.1-1.7,0.3c0.2,0,0.4-0.2,0.5-0.1c-0.5,0.3-1.1,0.5-2,0.6c0-0.8-2.2,0.2-2.9-0.2C38.8,3,37.3,3,35.7,3.6
						c0.8,0.4-0.5,0.2-0.2,0.7c-0.4,0.2-0.5,0.2-0.5,0.2l-1.2,0.1c-0.3-0.1,0.3-0.3,0.2-0.4c-0.8,0.3-0.4-0.1-1-0.1
						c0.2,0.2-0.2,0.4-0.7,0.5l0.7,0c-1,0.7-1.1-0.1-2.2,0.6L31.2,5c-0.5,0.3-2.1,0.8-2.5,1.5c-0.1,0-0.3-0.1-0.1-0.3
						c-1.4,0.5-2.8,1.8-4,2l0-0.2c-0.2,0.2-0.3,0.5-0.7,0.5c0-0.1,0-0.2-0.1-0.1C23.8,8.5,23.4,8.9,23,9l0.2-0.3
						c-1.4,0.4-1.8,1.4-2.8,2c-0.2-0.4-1.3,0-1.8,0.3l0-0.1c-1.5,0.8-2.3,1.8-3.5,2.8c-0.5,0.1-1.2,0.5-2,1.1
						c-0.8,0.5-1.5,1.2-2.2,1.6c0.2-0.1,0.2,0.3,0,0.5c-0.4,0.2-0.5,0.9-0.8,0.6l0.1-0.1c-0.5-0.1-1,0.5-1.4,0.9l0.3,0.4
						c-0.8,0.3-1.4,1.1-2,1.9c-0.6,0.8-0.9,1.5-1.5,1.7c-0.1,0.4-0.4,0.8-0.5,1.2l-0.2-0.2c-0.6,0.9-0.9,1.3-1.5,2.5l-0.1-0.3
						c-0.3,0.7,0.4,1.2,0.1,1.8l-0.5,0c-0.3,0.6-0.5,1.2-0.8,1.8C2,29.7,1.8,30.3,1.8,31c-0.1,0-0.2-0.1-0.1-0.3
						c-0.1,0.6-0.8,2.3-0.1,2.1c-0.4,0-0.2,1.3-0.1,2l-0.3-0.1c0.3,0.6,0.4,0.6,0.5,1.4c0,0.2-0.2,0.2-0.1-0.1
						c-0.2,0.6,0.3,0.5,0.1,1.3L1.5,37c0,0.7,0.1,0.6,0.3,1c0.1,0.4,0,1.2-0.2,1.4c0.1,0.1,0.4,0.4,0.4,0.8C1.8,40.2,1.8,40,1.7,40
						c0,1.1,0.5,1.6,0.4,2.3c-0.1,0-0.1,0.1-0.1,0.2c-0.2-0.8-0.2-1.5-0.2-1.5c-0.3,0-0.2,0.8-0.6,0.2c0.2,0.6,0.9,1.4,0.9,2.1
						c0,0,0,0.1-0.1,0.1l0-0.1c0,0.2,0.1,0.3,0.1,0.4c0,0.2,0,0.4,0.1,0.6c-0.2,0.1,0.1,0.8,0.2,1.2c0.3-0.1,0.3,0.3,0.4-0.1
						c0,0.1-0.1-0.1-0.1-0.3c0,0,0-0.1-0.1-0.1l0,0c-0.1-0.2-0.2-0.5-0.3-0.8c0.2,0.2,0.4,0.5,0.4,0.9c0.2,0.1,0.5,0.3,0.6,0.3
						C3,45.9,3.2,46.9,3,47.1c0.5,1,1,2.3,1.7,2.7c0.2,0.3,0,0.4,0,0.5c-0.1-0.1-0.2-0.3-0.3-0.4c0.4,0.5,0.8,1.6,1.2,1.6
						c0.2,0.8-0.5-0.2,0,0.7l-0.2-0.1c0.4,2.1,2.3,2.5,2.8,4.8c0-0.2-0.1-0.2,0-0.3c1,2.4,3,4.3,4,6.7c0.3,0.7,0.6,0.6,1,0.8
						L13,64.5l0.7,0.4c0.8,0.7,0.6,2,1.9,2.6l0-0.3c0.3,0.4,1.2,1,1,1.1c0.1,0,0.3-0.1,0.3,0.1l-0.1,0.1c0.4,0.2,0.8,0.3,1.2,0.4
						c0.4,0.3,0.3,0.4,0.3,0.5c0,0.1,0,0.3,0.7,0.6c0.6,0.2,1.6-0.1,1.5-0.2c-0.2-0.1-0.5-0.2-0.5-0.4l0.5,0
						c0.2-0.4,0.5-0.8-0.3-1.4c-0.2,0-0.5,0.1-0.7,0L19.3,68c0.2,0.1,0.3,0.1,0.5,0.2c-0.2-0.3-0.5-0.2-0.7-0.2c0-0.1,0-0.3-0.1-0.3
						c-0.3,0-0.5,0-0.8,0c0-0.2,0.4-0.1,0.1-0.5c-0.4,0,0,0.5-0.5,0.3c-0.2-0.4,0-0.5-0.4-0.6c0-0.1,0.1-0.1,0.3-0.1
						c-0.4-0.1-0.7-0.6-1-0.5c-0.1-0.4-0.9-0.9-0.5-1.1c-0.2,0-0.7-0.3-0.9-0.5c0.8,0.2-0.8-1-0.2-1.3c-0.7-0.1-1.2-1.3-1.8-1.8
						c0.1,0,0.2,0.1,0.2,0.1c-0.2-0.4-0.2-0.6-0.3-0.9c-0.4,0.2-0.8-0.4-1.3-0.6c0-0.7,0.6,0,0.8-0.3c-0.2,0.2-0.8-0.7-0.9-0.4
						c0-0.5-0.1-0.4,0-0.8c-0.5,0.2-0.3-0.3-0.7-0.5c-0.1-0.7,0.3-0.4-0.2-0.9C10.7,57.2,11.2,57.6,11.2,57.6z M3.7,42.8L3.7,42.8
						c0,0.1,0.1,0.3,0.1,0.3C3.8,43,3.8,42.9,3.7,42.8z M3.4,41.4c0,0.2,0.1,0.4,0.1,0.6c-0.1,0.1-0.2,0-0.2-0.1
						C3.4,42,3.4,41.6,3.4,41.4z M2.2,44.8c-0.1-0.2-0.1-0.3,0-0.4c0,0.1,0.1,0.2,0.1,0.4c0,0,0,0,0,0C2.3,44.8,2.3,44.8,2.2,44.8z"
						/>
					<path class="st0" d="M2.7,45.1C2.7,45.1,2.7,45.1,2.7,45.1C2.7,45.1,2.7,45.1,2.7,45.1c0-0.1,0-0.1,0-0.1
						C2.6,45,2.7,45.1,2.7,45.1z"/>
					<path class="st0" d="M64.4,55.7L64.4,55.7C64.4,55.7,64.4,55.7,64.4,55.7C64.4,55.7,64.4,55.7,64.4,55.7z"/>
					<polygon class="st0" points="7.8,23.5 7.8,23.5 7.8,23.6 					"/>
					<path class="st0" d="M58.2,60.5c0,0-0.1,0-0.1,0C58.1,60.6,58.2,60.6,58.2,60.5z"/>
					<path class="st0" d="M55.3,62.1l-0.5,0.1C55,62.1,55.2,62.1,55.3,62.1z"/>
					<path class="st0" d="M52.9,62.8c0,0.1,0,0.1,0,0.1l0,0L52.9,62.8z"/>
					<path class="st0" d="M62.6,29.5C62.6,29.5,62.6,29.5,62.6,29.5C62.4,29.2,62.5,29.4,62.6,29.5z"/>
					<path class="st0" d="M67,40.9c-0.1-0.1-0.1-0.2-0.2-0.4C66.9,40.8,66.9,40.9,67,40.9z"/>
					<polygon class="st0" points="57.1,16.8 57.1,16.8 57.1,16.7 					"/>
					<path class="st0" d="M66.8,40c0,0.2,0,0.4,0.1,0.6C66.8,40.4,66.8,40.2,66.8,40z"/>
					<path class="st0" d="M42.1,62.9l-0.1,0c0,0,0,0,0,0L42.1,62.9z"/>
					<path class="st0" d="M41.9,62.9l-0.1,0C41.9,62.9,41.9,62.9,41.9,62.9z"/>
					<path class="st0" d="M41.5,62.9l0.3,0C41.7,62.9,41.6,62.8,41.5,62.9z"/>
					<path class="st0" d="M45.3,63.6L45.3,63.6C45.4,63.5,45.3,63.5,45.3,63.6z"/>
					<path class="st0" d="M46.3,63.6c-0.2,0-0.6-0.3-0.9-0.2l0,0.1C45.5,63.3,46.1,63.8,46.3,63.6z"/>
					<path class="st0" d="M50.8,64.6c-0.3,0-0.6,0-0.9,0c0.2,0.1,0.4,0.2,0,0.3C51.1,65.1,49.6,64.7,50.8,64.6z"/>
					<path class="st0" d="M53.6,64.1c-0.5,0.2,0.1,0.1,0,0.2C53.9,64.1,53.9,64,53.6,64.1z"/>
					<path class="st0" d="M67.3,50.1l0.2,0.1C67.6,49.9,67.5,50.2,67.3,50.1z"/>
					<polygon class="st0" points="66.9,46.1 66.7,46.5 66.9,46.7 					"/>
					<polygon class="st0" points="68.8,44 68.9,44.2 68.8,43.5 					"/>
					<path class="st0" d="M57.9,12.3l-0.3,0.2C57.8,12.8,58.2,12.7,57.9,12.3z"/>
					<path class="st0" d="M47.9,2.1c-0.1-0.2-0.6-0.3-0.8-0.2C47.4,1.9,47.7,2.1,47.9,2.1z"/>
					<path class="st0" d="M8.3,19c0-0.1,0.1-0.2,0.1-0.3c-0.1,0.2-0.2,0.3-0.3,0.5L8.3,19z"/>
				</g>
			</g>
		</g>
	</g>
</g>
</svg>
