<?xml version="1.0" encoding="utf-8"?>
<!-- Generator: Adobe Illustrator 22.0.1, SVG Export Plug-In . SVG Version: 6.00 Build 0)  -->
<svg version="1.1" id="Layer_1" xmlns="http://www.w3.org/2000/svg" xmlns:xlink="http://www.w3.org/1999/xlink" x="0px" y="0px"
	 viewBox="0 0 35.6 39.3" style="enable-background:new 0 0 35.6 39.3;" xml:space="preserve">
<style type="text/css">
	.st0{fill:#F6DDC6;}
</style>
<g>
	<g>
		<g>
			<g>
				<g>
					<path class="st0" d="M10.9,36.3c-0.1,0.1,0,0.3,0.1,0.2l0.1-0.3L10.9,36.3z"/>
					<path class="st0" d="M11.7,37c0.2-0.1,0.4-0.4,0.3-0.7c-0.2,0.3-0.2,0.2-0.4,0.5c-0.1,0-0.2-0.1-0.2-0.2
						c-0.1,0.1-0.2-0.1-0.3,0.1c0.2,0.3,0.4,0.3,0.6,0.1C11.8,36.8,11.7,36.9,11.7,37z"/>
					<path class="st0" d="M24.7,33.9L24.7,33.9C24.6,33.9,24.6,33.9,24.7,33.9z"/>
					<path class="st0" d="M30.7,27.9c0,0.1,0,0.1,0,0.1C30.7,28,30.7,27.9,30.7,27.9z"/>
					<path class="st0" d="M31.8,26.8C31.7,26.8,31.7,26.9,31.8,26.8C31.7,26.9,31.8,26.8,31.8,26.8z"/>
					<path class="st0" d="M24.7,33.9l0.2,0C24.8,33.7,24.8,33.8,24.7,33.9z"/>
					<path class="st0" d="M13.5,36.2c0,0-0.1,0.1-0.1,0.1C13.4,36.3,13.5,36.2,13.5,36.2L13.5,36.2z"/>
					<path class="st0" d="M21.5,35.9L21.5,35.9c-0.1,0.1-0.1,0.1-0.1,0.2L21.5,35.9z"/>
					<path class="st0" d="M18.8,37c0.1,0,0-0.3,0-0.4c0,0.1,0,0.2-0.1,0.2C18.7,36.8,18.7,36.9,18.8,37z"/>
					<path class="st0" d="M14.2,37.3L14.2,37.3C14.1,37.3,14.2,37.3,14.2,37.3z"/>
					<path class="st0" d="M23.4,35C23.4,35.1,23.4,35.1,23.4,35C23.4,35.1,23.4,35,23.4,35z"/>
					<path class="st0" d="M3.3,28C3.3,28,3.3,28,3.3,28C3.3,28.1,3.3,28.1,3.3,28z"/>
					<polygon class="st0" points="2.8,31.4 2.8,31.4 2.6,31.5 					"/>
					<path class="st0" d="M33.2,24.5L33.2,24.5C33.2,24.6,33.2,24.5,33.2,24.5z"/>
					<path class="st0" d="M26.5,2c0.2,0.3-0.6,0.2-0.2,0.6C26.3,2.5,26.8,2.3,26.5,2z"/>
					<path class="st0" d="M13.6,36.2c0,0,0.1,0,0.1,0C13.6,36.2,13.6,36.2,13.6,36.2z"/>
					<path class="st0" d="M26.3,2.6L26.3,2.6L26.3,2.6C26.3,2.6,26.3,2.6,26.3,2.6z"/>
					<path class="st0" d="M34.4,18.3c-0.1,0-0.1,0-0.1,0.1C34.3,18.3,34.4,18.3,34.4,18.3z"/>
					<path class="st0" d="M33.2,22.8L33.2,22.8C33.2,22.7,33.2,22.7,33.2,22.8z"/>
					<path class="st0" d="M34.1,15.8c0-0.1,0.1-0.1,0-0.2c0,0,0,0,0,0C34.1,15.7,34.1,15.8,34.1,15.8z"/>
					<path class="st0" d="M33.9,13.3C33.9,13.4,33.9,13.4,33.9,13.3l0,0.1L33.9,13.3z"/>
					<path class="st0" d="M3.2,21.2c-0.1,0-0.2,0-0.3,0.1C3.1,21.3,3.1,21.6,3.2,21.2z"/>
					<path class="st0" d="M13.5,36.3c0-0.1,0-0.1,0.1-0.1l-0.1,0C13.5,36.3,13.5,36.3,13.5,36.3z"/>
					<path class="st0" d="M31.9,15.8l0-0.4C31.9,15.5,31.9,15.7,31.9,15.8z"/>
					<path class="st0" d="M11.6,7.6L11.6,7.6C11.6,7.6,11.6,7.6,11.6,7.6z"/>
					<path class="st0" d="M31.8,14.4c0.1-0.1,0.1-0.1,0.2-0.2c0,0,0,0-0.1,0L31.8,14.4z"/>
					<path class="st0" d="M2.9,21.3L2.9,21.3L2.9,21.3z"/>
					<path class="st0" d="M3.3,23.7c0-0.3-0.3-0.2-0.6-0.3C2.7,23,3,23.3,3.2,23.2c-0.1-0.3-0.4-0.5-0.4-0.7c0.1,0,0.1,0,0.2,0
						c-0.3-0.3,0.1-0.8-0.2-1.2c0,0,0.1,0,0.1,0c-0.2,0-0.4,0-0.5,0c0-0.2-0.2-0.3,0.1-0.3c0,0.1,0.1,0.1,0.1,0.2l-0.1-0.2
						c0.4-0.1,0.1,0.2,0.3,0.3c0-0.3-0.2-0.8-0.1-1c0.3,0,0,0.6,0.4,0.3l-0.2,0.3c0.6-0.2-0.1,0.2,0.5,0.1c0.2-0.5-0.1-0.6,0.1-1
						c-0.2-0.2-0.3,0-0.4-0.2c-0.2-0.8,1-0.3,0.7-0.9c-0.2-0.2-0.6-0.4-0.2-0.7l0.3,0.2c0.2-0.4-0.4-0.4,0-0.8C4,17.7,3.9,18,4,17.9
						c0.4-0.2-0.1-0.3-0.1-0.5l0.3,0.1c0.1-0.5,0.2-1.1,0.3-1.6c0.1,0.1,0.1,0.2,0.3,0.1c0.1-0.7,0.7-1.3,1.2-1.8L6,13.7
						c0-0.1,0.2,0,0.2,0.1C6.4,13.6,6,13.7,6,13.5c0.1-0.1,0.2-0.1,0.3,0c0-0.6,0.3-1.4,0.9-1.6l0,0.1c0.3-0.2-0.2-0.7,0.2-0.9
						l0,0.1C8,10.7,8.5,9.8,9.2,9.7C9,9.2,9.9,9.2,9.6,8.8c0.6-0.1,0.5,0.1,1.2-0.2c0.2-0.1,0-0.5,0.1-0.7L11,8.1c0-0.1,0-0.3,0-0.4
						l0.4,0.2l0.1-0.2c-0.1,0-0.2,0-0.3-0.1c0.2-0.3,0.8-0.3,0.9-0.2l0.5-0.7c0.1,0.1,0,0.2-0.1,0.3c0.2-0.5,0.2,0.2,0.4-0.2
						c-0.1,0-0.1-0.2-0.1-0.2c0.2,0,0.6-0.2,0.9-0.4l0.1,0.2c0.5-0.2,1-0.7,1.6-0.9c-0.3,0-0.4-0.4-0.2-0.5l0.2,0.3
						c0-0.2-0.2,0-0.1-0.4c0.2-0.1,0.3,0.3,0.2,0.4l0.2-0.2c0.1,0.1,0,0.2,0,0.3c0-0.2,0.6,0.1,0.6-0.3l0.1,0.1
						c0.6-0.2,0.8-0.5,1.3-0.6c-0.1-0.3,0.1-0.3,0.2-0.5c0.4,0,0.9,0.1,1.3,0c0.3-0.2,0-0.3,0.2-0.5c0.1,0.2,0.5,0.2,0.3,0.4
						C20.2,4,20.3,3.9,21,3.7c-0.1-0.1-0.2-0.1-0.1-0.2c0.1-0.1,0.3,0.1,0.3,0.2l0,0c0.8-0.5,1.8,0.7,2.4,0.2l0,0
						c0.2-0.1,0.4-0.1,0.7-0.2c0.3,0.1-0.2,0.2,0,0.4c0.7-0.3,1,0.2,1.6,0.1c0.1,0.4,0.4,0.5,0.8,0.6c0.3,0.1,0.7,0.2,0.8,0.6
						l0.1-0.2c0.2-0.1,0.1,0.2,0.1,0.3c0.1-0.1,0-0.2,0.1-0.2c1.1,0.5,1.6,1.9,2.1,3c0.2,0.4,0.9-0.2,0.8,0.5l-0.4,0
						c0.8,0.7,0.7,1.8,1.3,2.7c-0.1,0-0.2,0-0.2-0.1c-0.2,0.3,0.2,0.7,0.4,0.7c0,0.2-0.2,0.1-0.2,0.2c-0.1,0.2,0.4,0.4,0.2,0.6
						c0,0-0.1,0-0.1-0.1c0.2,0.1,0.1,0.6,0.3,0.4c-0.1,0.4,0.2,0.7,0.1,1c0.3,0.2-0.1,0.6,0.4,0.7c-0.4,0-0.3,0.7-0.1,0.9
						c-0.1-0.1-0.1,0.2-0.3,0.1c0,0.3,0.1,0.5,0.3,0.5c-0.5,0.5,0.4,1-0.3,1.2c0.2,0.8,0.3,1.5,0.3,2.3c-0.4-0.1,0.1-0.8-0.4-0.8
						c0.1,0.7,0.4,1.1,0.2,1.8c-0.1,0.2-0.2-0.1-0.2-0.2c0.1,0.7-0.3,1.2-0.3,1.9c0,0-0.1-0.1-0.1-0.2c0,0.1-0.2,0.2,0.1,0.3l0-0.1
						c0.3-0.1,0.4,0.6,0.6,0.7c-0.5-0.4-0.3,0.5-0.9,0c0,0.1,0.1,0.2,0.2,0.2c-0.1,0.1-0.2,0.1-0.3-0.1c0,0.4,0.2,0.4,0.1,0.7
						c-0.1,0-0.1-0.1-0.2-0.2c0.1,0.3,0.2,0.5,0,0.8c0,0-0.1,0-0.1-0.1c-0.2,0.5,0.1,1.1-0.4,1.6c-0.3-0.4-0.2,0.1-0.6,0l-0.1,0.3
						l0.2,0c-0.2,0.2,0,0.6-0.3,0.8l0-0.3l-0.2,0.5l0.3-0.2c0,0.4,0.4,0.2,0.1,0.5c0-0.1-0.2,0.3-0.4,0.3l0,0c0,0.2,0,0.4-0.2,0.5
						c-0.1,0-0.3-0.3-0.4-0.3c0.2,0.3-0.3,0.6-0.2,1c0-0.1-0.2-0.2-0.2-0.2l0.1,0.3c-0.2,0.1-0.2,0-0.3-0.1c-0.3,0.3,0.5,0.2,0,0.4
						c0,0,0-0.1,0-0.1c-0.4,0.3-0.5,0.8-0.9,1.1c-0.4-0.2,0.2-0.3-0.1-0.5c-0.4,0.5-0.6,1.3-1.2,1.6l0.1,0c0.3,0.5-0.5,0.1-0.6,0.5
						c0-0.1-0.1-0.3-0.1-0.2c-0.4,0.2-0.6,0.7-1,1.2l0-0.2c-0.3,0-0.6,0.3-0.9,0.4c0,0.2-0.1,0.2,0,0.3c-1.1-0.2-1.2,1.2-2.2,0.9
						c0.1,0,0.1-0.2,0.1-0.2l-0.5,0.4c0.1,0.2,0.1,0.1,0.3,0.2c0,0.2-0.1,0.3-0.3,0.4c0.2-0.3-0.2-0.3-0.3-0.4c0,0.1,0,0.1,0.1,0.2
						c-0.5-0.3,0.1,0.5-0.4,0.4l0-0.1c-0.1,0.1-0.2,0.3-0.4,0.4c-0.2-0.2,0.1-0.2,0.1-0.4c-0.2,0.1-0.3,0.7-0.6,0.5
						c0.1-0.1,0.2-0.2,0.3-0.3c-0.3-0.2-0.3-0.1-0.5-0.1l0,0l-0.5,0l0.1,0c-0.1,0.8-0.6,0.3-0.9,0.9c0.3-0.5,0-0.3,0-0.6
						c-0.1-0.1-0.3-0.1-0.3-0.2c-0.1,0.3-0.4-0.1-0.6,0.3c0-0.1-0.2,0-0.2-0.2c-0.2,0.1,0.1,0.2,0.1,0.3c-0.3,0.4-1-0.2-1.5,0.3
						c-0.5,0.2-0.5,0.6-1,0.8c-0.2-0.1,0.1-0.4,0.1-0.4c-0.3-0.1-0.5-0.1-0.7,0c0-0.1,0-0.2-0.1-0.3c-0.2,0-0.1,0.4-0.4,0.2
						c0-0.1,0.1-0.3,0.2-0.4c-0.2,0.1-0.4,0.3-0.7,0.4c-0.1-0.2,0.1-0.3,0.2-0.4c-0.3,0.1-0.7,0.2-0.8,0.4l0.2,0.1
						c-0.1,0,0-0.2,0-0.3c0.2-0.2,0.3,0.1,0.3,0.2l-0.2,0.1c0.2,0.6,0.7-0.1,1-0.1l-0.1,0.4l0.3-0.4c0.1,0.1,0.1,0.3,0,0.4
						c0.3,0.2,0.2-0.2,0.4,0.1c0,0,0,0.1,0,0.1l0.2-0.1c0,0.1,0.1,0.3-0.1,0.2c0.5,0.2,0.7-0.4,0.9-0.1l0,0c0.6-0.2,0-0.3,0.4-0.7
						l0.4,0.7l0-0.3c0.1,0,0.2,0,0.2,0.1c0.2-0.2-0.1-0.1,0-0.3c0.4,0.2,0.8-0.3,1,0.2c0.1-0.3-0.3-0.1,0-0.3c0.2,0.5,0.3-0.2,0.7,0
						c0,0.3-0.3,0.2,0,0.4c0.1-0.5,0.6,0,0.8-0.2c-0.1-0.4,0.5-0.3,0.8-0.5c0,0.1,0.8-0.1,1.2-0.1l0,0.1c-0.1-0.4,0.3-0.4,0.5-0.6
						c0.1,0.2,0.1,0.3,0,0.5l0.2-0.1c0-0.1,0.1-0.2,0.2-0.3l0.1,0.3c0.3-0.2,0.5-0.6,1-0.6c-0.1-0.2-0.6-0.5-0.3-0.8
						c0.1,0.1,0.2,0.3,0.1,0.4c0,0,0.1-0.2,0.2-0.2L22.6,35c0.2,0,0-0.2,0.2-0.3c0.1,0.2,0.2,0.1,0.2,0.2c0,0-0.2,0-0.2,0.1
						c0.2-0.1,0.4-0.1,0.6,0c-0.1-0.1-0.1-0.2,0-0.3c0.3-0.2,0.2,0.1,0.5,0.1c0-0.2,0.3-0.2,0.1-0.4c0.1-0.1,0.2,0.1,0.3,0.1
						c0.1-0.2,0.7-0.5,0.4-0.6l0,0l0,0l0,0l0,0c0.3-0.6,1.1-0.6,1.5-1l0.1,0.1c0.2-0.3,0.6-0.5,0.6-0.9c0.1-0.1,0.3,0,0.3,0.1
						c0.2-0.2,0.1-0.3,0.5-0.5c-0.1,0.3,0.2,0-0.1,0.3c0.3-0.2,0.5-0.1,0.6-0.6c0.1,0.3,0.4,0,0.5-0.1l-0.3,0.1
						c0.1-0.2,0.2-0.3,0.4-0.4l0.2,0.3c0.8-0.3,0.4-1.4,1.2-1.5c-0.1-0.3-0.4,0.2-0.5-0.1c0.2-0.2,0.8-0.2,0.9-0.3
						c0.4-0.3-0.1-0.6,0.2-1c-0.1,0-0.4-0.1-0.3-0.5c0.2-0.2,0.6-0.1,0.6,0.2c0,0.1-0.1,0.1-0.1,0.1c0,0.1-0.1,0.3,0.1,0.2l-0.1-0.1
						c0.2-0.1,0.4-0.5,0.5-0.3c0-0.3-0.1-0.2-0.3-0.1c0.4-0.3,0.3-0.6,0.7-0.9c-0.1,0-0.2,0-0.2,0c0.4-0.5-0.1-0.4,0.1-0.8
						c0.3-0.1,0.3,0.3,0.4-0.2c0.2-0.2,0.3,0.1,0.3,0.2c0-0.5,0.5-0.6,0.6-0.8l0,0.2c0-0.1,0-0.2,0.1-0.3l-0.3,0
						c0.1-0.1,0.1-0.2,0.2-0.2c-0.1-0.2-0.4-0.1-0.5-0.4c0.2-0.1,0.1-0.5,0.4-0.5c-0.3,0.5,0.3,0.1,0.2,0.5c0-0.1,0-0.2,0.1-0.3
						c0,0,0.1,0,0.1,0.1c0.4-0.4-0.3-0.3-0.1-0.8c0.1,0.1,0.4,0,0.4-0.1c-0.1,0.2-0.3,0-0.4-0.2c0.2-0.3,0-0.4,0.1-0.5
						c0,0.1-0.1,0.1-0.1,0.2c-0.1-0.1-0.1-0.3-0.1-0.5c0.1,0,0,0.2,0.1,0.2c-0.2-0.3,0.5-0.5,0.4-0.9c0.2-0.1,0.3,0.1,0.4-0.1
						c-0.1-0.5,0.3-0.4,0.2-0.8c-0.3,0.1-0.2,0.1-0.4-0.2l0,0.7l-0.2-0.5c0,0.2,0.1,0.5,0,0.6c-0.1-0.3-0.1-0.2-0.3-0.2
						c0.4-0.2-0.1-0.6,0.2-0.9l0.6,0.1c0.3-0.5-0.2-0.9,0.1-1.6L34,19.1c-0.2-0.1,0-0.4-0.1-0.6c0.2,0,0.3-0.1,0.4-0.2
						c-0.1,0,0.1-0.5-0.3-0.6l0.3-0.3c0.1-0.5-0.5-0.6-0.5-1.1c0.2,0.2,0.4-0.1,0.5,0.3c0-0.2,0-0.3-0.1-0.3
						c0.1-0.1-0.3-0.5-0.1-0.6c-0.1-0.1-0.3-0.1-0.3-0.3c0,0,0.1,0,0.1,0c-0.1,0-0.1-0.3-0.4-0.1c0.6-0.6-0.1-1.4,0.3-1.9
						c-0.1-0.4-0.2-0.8-0.3-1.1c0.1,0,0.1,0,0.1,0c0.1-0.5-0.6-0.2-0.5-0.7c0.3-0.3,0.2,0.2,0.3,0c0.6-0.2-0.2-0.6,0-1l0.1,0.1
						c0.1-0.3-0.4-0.6-0.5-1c0,0,0.1,0,0.1,0c-0.4-0.2-0.7-0.7-1-1c0.3,0,0.2,0.1,0.4-0.1c-0.1-0.2-0.4,0.2-0.6-0.1
						C32,8.4,32,8.1,32.2,7.9l0.2,0.3c0.3-0.3-0.2-0.4-0.2-0.6l0.2,0c-0.3-0.5-0.7-0.3-0.9-0.8l-0.1,0.1c-0.5-0.1,0-0.3-0.4-0.5
						l0.3-0.3C31,6,30.5,5.7,30.2,5.5c0.4,0,0.8,0.2,1.1,0.4c-0.1-0.2-0.5-0.6-0.7-0.5c0.1,0,0.2,0.1,0.2,0.2c-0.4,0-0.7-0.2-1-0.5
						c0.6-0.5-0.7-0.9-0.6-1.6c-0.8-0.2-1.3-1-2.2-1.3c0.1,0.7-0.3-0.1-0.4,0.5c-0.2,0-0.3-0.1-0.3-0.1c-0.2-0.2-0.3-0.4-0.5-0.5
						C25.7,1.9,26,2,26,1.9c-0.4-0.2-0.1-0.3-0.4-0.5c0,0.2-0.2,0.3-0.5,0.1l0.3,0.4C24.7,2,25,1.2,24.3,1.4l0.2-0.2
						c-0.4,0.1-1.3-0.1-1.6,0.4c-0.1-0.1-0.1-0.2,0-0.3c-0.4,0-0.8,0.1-1.2,0.2c-0.4,0.1-0.8,0.3-1.1,0.1l0-0.2
						c-0.1,0.1-0.2,0.3-0.4,0.2c0-0.1,0-0.2,0-0.2c-0.1,0.1-0.4,0.3-0.6,0.2l0.1-0.2c-0.8-0.1-1.1,0.6-1.7,0.8C18,2,17.4,2,17.1,2
						l0-0.1c-0.2,0-0.4,0.1-0.6,0.2c-0.2,0.1-0.3,0.2-0.5,0.3c-0.3,0.2-0.6,0.5-0.9,0.7c-0.3-0.1-0.8,0-1.2,0.2
						c-0.4,0.2-0.9,0.4-1.3,0.5c0.1,0,0.1,0.3,0,0.4c-0.2,0-0.3,0.5-0.5,0.2l0.1,0c-0.3-0.3-0.6,0-0.9,0.2l0.2,0.5
						C10.5,5,10.1,6.5,9.3,6.3C9.3,6.5,9.1,6.7,9.1,6.9L8.9,6.7C8.4,7,8.2,7.1,7.8,7.6l0-0.2C7.4,7.6,8,8.3,7.7,8.5L7.4,8.3
						C7,8.8,6.2,9,6.1,9.8c0,0-0.1-0.1-0.1-0.2c-0.2,0.2-0.9,0.8-0.4,1c-0.3-0.2-0.4,0.5-0.5,0.9l-0.2-0.2c0.1,0.4,0.2,0.5,0,0.9
						c-0.1,0.1-0.2-0.1-0.1-0.1c-0.3,0.2,0.1,0.4-0.2,0.6l-0.1-0.2c-0.2,0.3-0.1,0.3,0,0.6c0,0.2-0.4,0.5-0.6,0.4
						c0.1,0.1,0.2,0.4,0,0.5c-0.1,0-0.1-0.1-0.1-0.2c-0.5,0.4-0.1,0.9-0.5,1.1c-0.1,0-0.1,0-0.2,0c0.2-0.4,0.4-0.7,0.4-0.7
						c-0.2-0.1-0.4,0.2-0.6-0.2c0,0.3,0.2,1,0,1.2c0,0-0.1,0-0.1,0l0,0c-0.1,0.1-0.1,0.1-0.1,0.2c-0.1,0.1-0.1,0.1-0.2,0.2
						c-0.2,0-0.3,0.3-0.4,0.5c0.3,0.1,0.1,0.3,0.4,0.2c0,0,0,0,0-0.2c0,0,0-0.1,0-0.1l0,0c0-0.1,0.1-0.2,0.2-0.4
						c0.1,0.2,0.1,0.4-0.1,0.5C2.8,16.2,3,16.4,3,16.4c-0.5,0.1-0.8,0.4-1.1,0.4c0,0.6-0.3,1.3,0.1,1.7c0,0.2-0.2,0.1-0.3,0.2
						c0-0.1,0-0.2,0-0.3c0,0.3-0.2,0.9,0.1,1c-0.2,0.3-0.3-0.3-0.3,0.2l-0.1-0.1C1,20.1,1.2,20.6,1.3,21c0.1,0.5,0.3,0.9-0.2,1.5
						c0.1-0.1,0.1-0.1,0.1-0.1c-0.2,0.6-0.2,1.3-0.2,2c0.1,0.7,0.1,1.3-0.1,2c-0.1,0.4,0.2,0.4,0.4,0.6l-0.3,0.1l0.4,0.3
						c0.3,0.5-0.6,1.1,0,1.7l0.2-0.1c0,0.3,0.3,0.7,0.1,0.7c0,0,0.2,0,0.2,0.1l-0.1,0.1l0.4,0.5c0,0.5-0.6,0.1-0.4,0.8
						c0.1,0.2,0.7,0.5,0.7,0.4c0-0.1,0-0.3,0.2-0.3l0.1,0.2c0.4-0.1,0.9-0.2,1.1-0.8l-0.4-0.3l0.2-0.2l0.1,0.3
						c0.1-0.2-0.1-0.3-0.2-0.4c0.1-0.1,0.2-0.1,0.2-0.2l-0.5-0.2c0.2-0.1,0.4,0,0.4-0.2c-0.2-0.1-0.3,0.3-0.6,0
						c0.1-0.2,0.3-0.2,0.1-0.4c0.1-0.1,0.2,0,0.3,0c-0.2-0.1-0.2-0.4-0.5-0.5c0.2-0.2-0.2-0.6,0.3-0.7c-0.1,0-0.4-0.3-0.4-0.4
						C3.4,27.8,2.7,27,3.3,27c-0.3-0.1-0.3-0.3-0.4-0.5c0-0.2,0-0.5-0.2-0.7c0,0,0.1,0.1,0.1,0.1c0-0.2,0.2-0.3,0.3-0.4
						c-0.4,0-0.5-0.4-0.7-0.6c0.4-0.3,0.5,0.2,0.8,0.1c-0.3,0-0.3-0.5-0.6-0.4c0.2-0.2,0.1-0.2,0.4-0.3c-0.5,0-0.1-0.2-0.4-0.4
						c0.3-0.3,0.5-0.1,0.3-0.4C3.1,23.4,3.3,23.7,3.3,23.7z M4.5,15.8L4.5,15.8c0,0.1,0,0.1-0.1,0.2C4.4,15.9,4.5,15.9,4.5,15.8z
						 M4.8,15.1c0,0.1-0.1,0.2-0.1,0.3c-0.1,0-0.2-0.1-0.1-0.2C4.5,15.3,4.7,15.2,4.8,15.1z M2.4,15.7c0-0.1,0.1-0.1,0.1-0.1
						C2.5,15.6,2.5,15.7,2.4,15.7l0.1,0.1C2.4,15.8,2.4,15.7,2.4,15.7z"/>
					<path class="st0" d="M2.6,16C2.6,16.1,2.6,16.1,2.6,16C2.7,16.1,2.7,16.1,2.6,16L2.6,16L2.6,16z"/>
					<path class="st0" d="M24.5,33.9L24.5,33.9C24.5,33.9,24.5,33.9,24.5,33.9C24.5,33.9,24.5,33.9,24.5,33.9z"/>
					<polygon class="st0" points="11.1,8.1 11,8.1 11,8.2 					"/>
					<path class="st0" d="M20.6,34.9C20.6,34.9,20.6,34.8,20.6,34.9C20.6,34.9,20.6,34.9,20.6,34.9z"/>
					<path class="st0" d="M19.1,35.4l-0.3,0C18.9,35.4,19,35.4,19.1,35.4z"/>
					<path class="st0" d="M17.8,35.6c0,0.1,0,0.1,0,0.1l0,0L17.8,35.6z"/>
					<path class="st0" d="M31.4,22.3C31.4,22.3,31.4,22.3,31.4,22.3C31.3,22.1,31.3,22.2,31.4,22.3z"/>
					<path class="st0" d="M29.4,27.9c0-0.1,0-0.2,0-0.2C29.3,27.8,29.3,27.9,29.4,27.9z"/>
					<polygon class="st0" points="31.9,15.8 31.9,15.8 31.9,15.8 					"/>
					<path class="st0" d="M29.5,27.5c-0.1,0.1-0.1,0.1-0.2,0.2C29.5,27.6,29.5,27.6,29.5,27.5z"/>
					<path class="st0" d="M12.4,36.2L12.4,36.2C12.3,36.2,12.3,36.2,12.4,36.2L12.4,36.2z"/>
					<path class="st0" d="M12.3,36.2L12.3,36.2C12.3,36.2,12.3,36.2,12.3,36.2z"/>
					<path class="st0" d="M12.1,36.3l0.1-0.1C12.2,36.2,12.2,36.2,12.1,36.3z"/>
					<path class="st0" d="M14.1,36.2l0-0.1C14.1,36.2,14.1,36.2,14.1,36.2z"/>
					<path class="st0" d="M14.6,36.2c-0.1,0-0.3-0.2-0.5-0.1l0,0.1C14.1,36,14.5,36.4,14.6,36.2z"/>
					<path class="st0" d="M16.9,37.1l-0.5,0c0.1,0.1,0.2,0.2,0,0.3C17.1,37.6,16.3,37.2,16.9,37.1z"/>
					<path class="st0" d="M18.3,36.9c-0.2,0.1,0,0.2,0,0.2C18.5,37,18.5,37,18.3,36.9z"/>
					<path class="st0" d="M27.2,32.1l0.2,0.2C27.4,32.2,27.3,32.2,27.2,32.1z"/>
					<path class="st0" d="M27.6,29.8l-0.2,0l0.1,0.2C27.5,30,27.5,29.9,27.6,29.8z"/>
					<path class="st0" d="M29.7,30.2L29.7,30.2c0,0,0.1-0.1,0.1-0.2C29.8,30,29.7,30.1,29.7,30.2z"/>
					<path class="st0" d="M34.2,13.7l-0.3,0.1C34,14,34.3,14,34.2,13.7z"/>
					<path class="st0" d="M31.6,6.7c0.1-0.2,0.1-0.4-0.1-0.4C31.5,6.5,31.5,6.7,31.6,6.7z"/>
					<polygon class="st0" points="11.1,5 11.1,4.8 11,5.1 					"/>
				</g>
			</g>
		</g>
	</g>
</g>
</svg>
