<?xml version="1.0" encoding="utf-8"?>
<!-- Generator: Adobe Illustrator 22.0.1, SVG Export Plug-In . SVG Version: 6.00 Build 0)  -->
<svg version="1.1" id="Layer_1" xmlns="http://www.w3.org/2000/svg" xmlns:xlink="http://www.w3.org/1999/xlink" x="0px" y="0px"
	 viewBox="0 0 87.9 77.3" style="enable-background:new 0 0 87.9 77.3;" xml:space="preserve">
<style type="text/css">
	.st0{fill:#F6DDC6;}
</style>
<g>
	<g>
		<g>
			<g>
				<g>
					<path class="st0" d="M22.2,12.5c-0.1,0.1,0,0.3,0.3,0.2l0.2-0.4L22.2,12.5z"/>
					<path class="st0" d="M24.4,12.8c0.3-0.2,0.7-0.6,0.5-0.8c-0.3,0.4-0.4,0.3-0.8,0.7c-0.3,0.1-0.6,0-0.5-0.2
						c-0.1,0.1-0.5,0-0.6,0.2c0.5,0.2,1,0.1,1.5-0.2C24.5,12.7,24.4,12.8,24.4,12.8z"/>
					<path class="st0" d="M54.5,18.3l-0.2-0.1C54.4,18.3,54.4,18.3,54.5,18.3z"/>
					<path class="st0" d="M69.7,29.8c-0.1-0.1-0.2-0.1-0.2-0.1C69.6,29.7,69.7,29.8,69.7,29.8z"/>
					<path class="st0" d="M71.6,32.4c0-0.1-0.1-0.1-0.1-0.2C71.5,32.3,71.5,32.4,71.6,32.4z"/>
					<path class="st0" d="M54.5,18.3l0.4,0.3C55,18.6,54.7,18.5,54.5,18.3z"/>
					<path class="st0" d="M28.6,11.6c-0.1,0-0.2,0.1-0.3,0.1L28.6,11.6C28.6,11.6,28.6,11.6,28.6,11.6z"/>
					<path class="st0" d="M46.6,15.5l-0.1,0c-0.1,0-0.1,0.1-0.2,0.1L46.6,15.5z"/>
					<path class="st0" d="M40.3,14c0.1,0,0.2-0.2,0.3-0.3c-0.1,0.1-0.2,0.1-0.3,0.1C40.3,13.8,40.3,13.9,40.3,14z"/>
					<path class="st0" d="M30.2,12.7l-0.2,0C30,12.7,30.1,12.7,30.2,12.7z"/>
					<path class="st0" d="M50.9,17.1c0,0,0,0.1,0,0.1C50.9,17.2,50.9,17.1,50.9,17.1z"/>
					<path class="st0" d="M11.9,10C11.9,10,11.9,10,11.9,10C11.9,10,11.9,10,11.9,10z"/>
					<path class="st0" d="M18.5,5.8L18.5,5.8c-0.1,0.1,0,0.2,0,0.2L18.5,5.8z"/>
					<path class="st0" d="M74.7,37.4C74.7,37.4,74.7,37.4,74.7,37.4C74.6,37.3,74.7,37.4,74.7,37.4z"/>
					<path class="st0" d="M57,71.3c0.6,0.3-1,0.2-0.1,0.6C56.8,71.8,57.7,71.5,57,71.3z"/>
					<path class="st0" d="M28.8,11.6l0.3,0C29,11.6,28.9,11.6,28.8,11.6z"/>
					<path class="st0" d="M56.8,71.9L56.8,71.9L56.8,71.9C56.9,71.9,56.9,71.9,56.8,71.9z"/>
					<path class="st0" d="M80.2,49.6c0,0,0.1-0.1,0.1-0.2C80.2,49.5,80.2,49.5,80.2,49.6z"/>
					<path class="st0" d="M77,40.1l0.1,0.2C77,40.3,77,40.2,77,40.1z"/>
					<path class="st0" d="M81.2,54.8c0,0.1-0.1,0.2,0,0.4c0,0,0,0,0-0.1C81.1,55,81.1,54.9,81.2,54.8z"/>
					<path class="st0" d="M80.7,60.1C80.7,60.1,80.7,60.1,80.7,60.1c0.1-0.1,0.1-0.2,0.1-0.3L80.7,60.1z"/>
					<path class="st0" d="M4.5,25.9c0.1-0.1,0.2-0.2,0.3-0.2C4.6,25.7,4.7,24.9,4.5,25.9z"/>
					<path class="st0" d="M28.6,11.8c0-0.1,0.1-0.1,0.2-0.1c-0.1,0-0.1,0-0.2,0C28.6,11.7,28.6,11.7,28.6,11.8z"/>
					<path class="st0" d="M83.4,54.9c0,0.3,0,0.6-0.1,0.9C83.4,55.6,83.4,55.3,83.4,54.9z"/>
					<path class="st0" d="M20.8,61.8l-0.2-0.1C20.7,61.7,20.8,61.8,20.8,61.8z"/>
					<path class="st0" d="M83.2,58.7c-0.1,0.2-0.2,0.3-0.3,0.5c0,0,0,0.1,0.1,0.1C83,59.1,83.1,58.9,83.2,58.7z"/>
					<path class="st0" d="M4.8,25.7L4.8,25.7L4.8,25.7z"/>
					<path class="st0" d="M5.9,19.6c-0.3,0.8,0.2,0.5,0.3,0.8c-0.2,1-0.4,0.4-0.7,0.6c-0.1,0.7,0,1.2-0.1,1.7c-0.1,0-0.1,0.1-0.2,0
						c0.1,0.4-0.1,0.9-0.2,1.4c-0.1,0.5-0.2,1.1-0.1,1.5c0,0.1-0.1,0.1-0.1,0.1c0.2-0.1,0.4-0.1,0.5,0c-0.1,0.4,0.1,0.7-0.2,0.8
						c0-0.2-0.1-0.3-0.1-0.4l0,0.4c-0.4,0.3,0-0.6-0.3-0.6c0,0.8,0.1,1.8,0,2.4c-0.4,0.1,0.1-1.4-0.3-0.7l0.3-0.9
						c-0.6,0.6,0.1-0.6-0.5,0c-0.3,1.2,0,1.4-0.2,2.7c0.2,0.3,0.3-0.1,0.5,0.2C4.8,31.3,3.5,31,4,32.3c0.2,0.3,0.7,0.4,0.5,1.4
						l-0.4-0.3c0,1.2,0.6,0.6,0.5,1.9c-0.2-0.2-0.3-0.9-0.3-0.7c-0.2,0.9,0.3,0.6,0.4,1.2l-0.3,0.2c0.1,0.6,0.3,1.3,0.5,2
						c0.1,0.3,0.2,0.7,0.3,1c0.1,0.3,0.2,0.7,0.4,1c-0.1,0-0.3-0.3-0.3,0.1c0.2,0.4,0.3,0.9,0.4,1.3c0.2,0.4,0.3,0.9,0.4,1.4
						c0.2,0.9,0.6,1.8,0.8,2.7c0.2,0.2,0.3,0.3,0.5,0.5c0.1,0.1,0,0.3-0.1,0.2c0.2,0.7,0.2,0,0.4,0.2c0.2,0.3,0.1,0.5-0.1,0.3
						c0.7,1,2.1,2.7,2.5,3.9l-0.2-0.2c0.4,0.9,1.1,0.6,1.4,1.5l-0.1-0.1c1.1,1.8,2.8,3.4,3.6,4.9c0.3,0,0.6,0.4,0.9,0.8
						c0.3,0.4,0.7,0.7,0.9,0.5c0.7,1,0.3,0.9,1.5,2.2c0.3,0.3,0.8,0.2,1.2,0.5l-0.2,0.2l0.8,0.2l0.1,0.5l0.5,0.3
						c-0.2-0.1-0.3-0.4-0.2-0.4c0.7,0.4,1.5,1.4,1.4,1.5c0.6,0.3,1.2,0.6,1.8,0.9c-0.1,0.1-0.4,0-0.7-0.1c1,0.3,0,0.4,0.9,0.6
						C23.8,64,24.1,64,24.1,64c0.3,0.4,1.2,1,2,1.3l-0.2,0.1c1.2,0.8,2.7,1.4,4.2,2c-0.5-0.3-0.2-0.6,0.2-0.4l0,0.4
						c0.4-0.1-0.4-0.3,0.3-0.3c0.5,0.3,0.2,0.5-0.1,0.5l0.7,0.2c0,0.1-0.2,0.1-0.3,0.2c0.3-0.1,1,0.8,1.6,0.6l0,0.1
						c1.5,0.6,2.2,0.7,3.5,1.2c0.1-0.3,0.6,0,1-0.1c0.9,0.4,1.8,0.9,3,1.2c0.8,0.1,0.3-0.2,0.7-0.2c0,0.3,1.1,0.5,0.5,0.6
						c1.4,0.3,1.7,0.4,3.5,0.5c-0.2-0.1-0.4-0.2-0.2-0.3c0.3,0,0.7,0.3,0.6,0.4l-0.1,0c2,0,4.3,1.6,6,1.2l-0.1,0l1.6-0.1
						c0.7,0.1-0.5,0.1,0.1,0.4c1.8-0.2,2.7,0.4,4.2,0.2c1.1,0.8,3.9,0.2,5.5,0.7L62,74c0.4-0.2,0.5,0.1,0.8,0.1
						c0-0.1-0.4-0.2-0.2-0.3c3.3-0.2,7,0,10.5-1.2c1.3-0.5,0.3-1.1,2-1.5l-0.2,0.5l1.6-1.2c0.5-0.4,1-0.9,1.6-1.3
						c0.5-0.5,0.9-1,1.4-1.5c0.4-0.5,0.7-1.1,1-1.7c0,0.2,0.1,0.2-0.1,0.4c0.5-0.3,1-1.8,0.8-1.9c0.2-0.3,0.2,0,0.4-0.2
						c0.3-0.5,0.2-1.4,0.6-1.6c0.1,0,0,0.2,0,0.3c0.1-0.4,0.5-1.6,0.2-1.3c0.4-0.9,0.3-1.8,0.6-2.5c-0.2-0.5,0.3-1.6-0.1-1.8
						c0.5,0.1,0.4-1.6,0.2-2.2c0.1,0.2,0.1-0.5,0.3-0.3c0-0.7-0.2-1.3-0.4-1.2c0.3-0.6,0-1.3-0.1-1.8c-0.1-0.5-0.3-1,0-1.4
						c-0.6-2-1.2-3.7-1.9-5.4c0.5-0.1,0.6,1.9,1.1,1.7c-0.3-0.8-0.7-1.4-1-2c-0.3-0.6-0.6-1.2-0.9-2c-0.1-0.4,0.3,0.2,0.4,0.3
						c-0.2-0.4-0.4-0.8-0.6-1.1c-0.2-0.4-0.4-0.7-0.6-1.1c-0.4-0.7-0.7-1.4-1.2-2c0,0,0.2,0.1,0.3,0.2c-0.1-0.3-0.3-0.6-0.4-0.5
						l0.2,0.2c0,0.6-1.1-0.7-1.3-0.7c0.8,0.1-0.7-1.3,0.4-1c-0.1-0.1-0.4-0.3-0.4-0.2c-0.1-0.3-0.1-0.4,0.2-0.2
						c-0.7-0.8-0.6-0.4-1.2-1.2c0.1-0.1,0.2,0.1,0.4,0.1c-0.4-0.3-0.8-0.6-1.2-1.3c0.1,0,0.1-0.1,0.2,0.1c-0.9-1.1-1.8-1.6-2.6-2.9
						c0.6,0.1-0.2-0.5,0-0.8l-0.6-0.5l0.1,0.4c-0.5-0.5-1.1-0.8-1.4-1.4l0.5,0.3l-1-0.9l0.4,0.7c-0.6-0.4-0.3,0.4-0.9-0.4
						c0.2,0.1-0.5-0.5-0.6-0.9l0,0c-0.3-0.2-0.7-0.3-1-0.7c0-0.2,0.4-0.2,0.4-0.3c-0.5,0-1.3-1.1-1.8-1.1c0.2,0,0.3-0.1,0.3-0.2
						l-0.4,0c-0.2-0.3-0.2-0.3-0.1-0.4c-0.7-0.7-0.1,0.6-0.8-0.3c0.1,0,0.1,0,0.3,0.1c-0.9-0.8-1.9-1.3-2.7-2.1c0-0.5,0.8,0.5,0.7,0
						c-0.6-0.5-1.4-0.8-2.1-1.2c-0.7-0.4-1.4-0.8-2-1.2l0.2,0.2c-0.2,0.2-0.4,0-0.7-0.3c-0.2-0.3-0.6-0.6-0.9-0.7
						c0.2,0.1,0.4-0.1,0.3-0.1c-0.9-0.6-1.9-1-3.4-1.5l0.2,0c-0.5-0.4-1.4-0.7-2-1.1c-0.2,0-0.6-0.1-0.4,0.1
						c-0.4-0.4-0.8-0.7-1.2-0.9c-0.4-0.2-0.9-0.3-1.4-0.4c-0.9-0.2-1.8-0.4-2.6-1c0.2,0.1,0.5,0.1,0.4,0c-0.5-0.2-1-0.3-1.5-0.4
						c0,0.3,0.2,0.2,0.4,0.4c-0.2,0.1-0.7,0.1-1,0c0.7,0,0.1-0.4-0.1-0.6c0,0.1-0.1,0.1-0.1,0.2c-0.7-0.6-0.3,0.4-1.2-0.2l0.1-0.1
						c-0.4-0.1-0.8,0-1.2-0.2c-0.1-0.3,0.4,0,0.5-0.2c-0.6-0.2-1.3,0.2-1.8-0.2c0.3,0,0.6,0.1,0.9,0c-0.5-0.4-0.6-0.4-1.1-0.5l0,0
						l-1-0.3l0.2,0.1c-0.9,0.5-1.6-0.2-2.7,0.1c1.1-0.3,0.2-0.2,0.3-0.5c-0.3-0.1-0.6-0.3-0.5-0.3c-0.5,0.2-0.8-0.3-1.5,0
						c0-0.1-0.5-0.1-0.4-0.3c-0.7,0,0.1,0.2,0.1,0.3c-0.5,0.1-1.1-0.1-1.7-0.2c-0.6-0.1-1.3-0.2-2.1,0c-1.2,0.2-1.5,0.4-2.6,0.6
						C30,12.3,30.7,12,30.7,12c-0.6-0.1-1.1-0.1-1.7,0.1c0.1-0.1,0-0.2-0.2-0.3c-0.5,0.1-0.3,0.4-0.9,0.3c0.1-0.1,0.2-0.3,0.4-0.4
						c-0.6,0.1-1.1,0.3-1.7,0.5c-0.2-0.2,0.3-0.3,0.5-0.4c-0.6,0.1-1.7,0.3-1.8,0.6l0.4,0c-0.2,0-0.1-0.2,0-0.3
						c0.5-0.3,0.8,0,0.8,0.1c-0.1,0-0.3,0.1-0.4,0.1c0.5,0.5,1.6-0.2,2.5-0.2l-0.3,0.4l0.8-0.4c0.2,0.1,0.3,0.3-0.1,0.4
						c0.6,0.2,0.5-0.2,1,0c0.1,0,0,0.1,0,0.1l0.6-0.2c-0.1,0.1,0.1,0.3-0.3,0.2c1,0.2,1.6-0.3,2,0l-0.1,0c1.4-0.1,0.1-0.3,1.2-0.6
						l0.7,0.8l0.2-0.3c0.1,0,0.4,0,0.4,0.2c0.6-0.2-0.1-0.1,0.2-0.3c0.7,0.4,2,0.1,2.1,0.6c0.3-0.2-0.6-0.3,0.1-0.3
						c0.1,0.5,0.9,0,1.5,0.3c-0.2,0.2-0.8,0-0.2,0.3c0.5-0.4,1.2,0.3,1.8,0.3c0.1-0.4,1.2,0.1,2.1,0.1c0,0.1,0.4,0.2,0.9,0.3
						c0.5,0.2,1.1,0.4,1.5,0.6l0,0.1c0.3-0.3,1.1,0,1.7,0.1c-0.1,0.2-0.2,0.3-0.6,0.3l0.6,0.2c0.2-0.1,0.4-0.1,0.8,0L47,15.6
						c0.8,0.2,1.6,0.2,2.5,0.7c0.1-0.2-0.5-1,0.6-0.7c0,0.1-0.1,0.4-0.3,0.3c0.1,0,0.4,0,0.5,0.1l-0.5,0.1c0.4,0.3,0.3-0.1,0.6,0.1
						c-0.1,0.2,0.2,0.2,0.1,0.4c-0.1,0-0.3-0.2-0.4-0.2c0.4,0.2,0.8,0.5,0.9,0.7c0-0.1,0.1-0.2,0.4-0.2c0.7,0.3,0.2,0.3,0.5,0.6
						c0.2,0,0.6,0.3,0.8,0c0.2,0.1,0.2,0.2,0.2,0.4c0.4,0.1,1.7,0.8,1.5,0.3l-0.1-0.1c0,0,0,0,0.1,0l0,0l0,0c1.4,0.3,2.4,1.5,3.6,2
						l-0.1,0.1c0.4,0.1,0.8,0.4,1.1,0.5c0.4,0.2,0.7,0.4,1,0.5c0.2,0.1,0.4,0.5,0.2,0.5c0.5,0.3,0.7,0.2,1.3,0.8
						c-0.6-0.2,0.1,0.2-0.6-0.2c0.6,0.5,0.7,0.7,1.5,1c-0.4,0,0.3,0.6,0.6,0.8l-0.3-0.5c0.4,0.2,0.6,0.5,0.9,0.7l-0.4,0.1
						c1,1.3,2.7,1.2,3.2,2.6c0.5,0.1-0.5-0.7-0.1-0.7c0.5,0.5,0.8,1.4,0.9,1.6c0.6,0.8,1.1,0.3,1.7,1.1c0-0.2,0.1-0.5,0.8,0
						c0.5,0.6,0.3,1-0.1,0.7c-0.1-0.1-0.2-0.2-0.1-0.2c-0.2-0.1-0.4-0.3-0.3,0l0.2,0c0.2,0.4,0.9,1.1,0.5,1.1c0.5,0.3,0.3,0,0.1-0.3
						c0.5,0.8,1,1.1,1.6,1.9c0-0.2,0-0.4,0.1-0.2c0.8,1.2,0.6,0.4,1.2,1.1c0.2,0.6-0.5,0.1,0.3,0.8c0.3,0.5-0.2,0.3-0.4,0.2
						c0.7,0.6,0.9,1.4,1.1,1.8c-0.1-0.1-0.2-0.2-0.3-0.3c0.2,0.2,0.3,0.4,0.5,0.6l0.1-0.4c0.1,0.3,0.2,0.4,0.2,0.5
						c0.3,0.2,0.2-0.4,0.7,0c0.1,0.4,0.7,0.9,0.5,1.2c-0.5-1-0.2,0.3-0.8-0.5c0.1,0.1,0.3,0.3,0.4,0.6c0,0.1-0.1,0-0.1-0.1
						c0.3,1.1,0.6,0.2,1.2,1.2c-0.2,0-0.1,0.4,0,0.5c-0.2-0.4,0.2-0.3,0.5,0c0.2,0.7,0.5,0.7,0.6,1l-0.1-0.4c0.2,0,0.4,0.4,0.7,0.8
						c-0.1,0.1-0.3-0.4-0.3-0.2c0.5,0.4,0.3,1.3,0.9,1.9c0.1,0.4-0.3,0.2-0.2,0.5c0.6,0.7,0.1,1,0.7,1.7c0.1-0.3,0.1-0.4,0.5,0.2
						c-0.2-0.5-0.5-0.9-0.7-1.3L79,44c-0.2-0.4-0.5-0.8-0.6-1.1c0.4,0.4,0.3,0.3,0.4,0c-0.1,0.7,0.7,1.1,0.7,1.9L79,45
						c0.1,1.1,0.9,1.7,1.1,3.1c0-0.2,0-0.3,0-0.5c0.3,0.1,0.2,0.8,0.4,1.3c-0.2,0-0.2,0.3-0.3,0.5c0.2-0.1,0.2,1,0.6,1.1l-0.1,0.7
						c0,1.1,0.7,1.2,0.8,2.3c-0.2-0.3-0.3,0.2-0.6-0.5c0.1,0.4,0,0.7,0.1,0.7c-0.1,0.2,0.3,1,0.1,1.3c0.1,0.2,0.3,0.2,0.3,0.6
						c0,0-0.1,0-0.1,0c0.1,0,0.1,0.7,0.3,0.3c-0.6,1.1-0.2,3.2-0.9,4.1c0,0.4-0.1,0.8-0.2,1.2c-0.1,0.4-0.2,0.8-0.3,1.2
						c0-0.1-0.1,0,0-0.2c-0.6,0.8,0.3,0.8-0.4,1.7c-0.6,0.4,0.1-0.6-0.2-0.3c-0.3-0.1-0.5,0.2-0.6,0.6c-0.1,0.4-0.3,0.9-0.7,1.1
						l0.1-0.2c-0.5,0.3-0.6,1.3-1.3,1.9c0,0,0-0.1-0.1-0.1c0,0.2-0.1,0.4-0.2,0.6c-0.1,0.2-0.3,0.4-0.4,0.6
						c-0.3,0.4-0.7,0.8-1.1,1.1c0.1-0.4,0.3-0.3,0-0.5c-0.3,0.3,0.3,0.3-0.3,0.8c-0.3,0-0.9,0.2-1.1,0l0.6-0.4
						c-0.5-0.1-0.8,0.5-1.2,0.6l0-0.2c-0.5,0.3-0.7,0.5-1,0.7c-0.2,0.2-0.5,0.4-1.1,0.6l0.2,0.1c-0.5,0.6-0.6,0-1.2,0.4l-0.3-0.3
						c-0.4,0.2-1.5,0.7-2.3,0.9c0.4-0.3,1.4-0.7,1.9-1c-0.4,0.1-1.5,0.3-1.7,0.6c0.2-0.1,0.4-0.2,0.6-0.2c-0.5,0.4-1.2,0.7-2.2,0.7
						c0.1-0.7-2.4,0-3.1-0.6c-1.6,0.3-3.2-0.2-5.1-0.3c0.6,0.6-0.6,0-0.5,0.6c-0.5,0-0.6,0-0.7-0.1l-1.3-0.5
						c-0.3-0.2,0.4-0.1,0.4-0.2c-1-0.1-0.4-0.3-1-0.5c0.1,0.2-0.4,0.3-0.9,0.1l0.7,0.4c-1.4,0.2-1.1-0.6-2.5-0.5l0.5-0.1
						c-0.7,0-2.6-0.3-3.3,0c-0.1-0.1-0.2-0.3,0.1-0.3c-1.6-0.3-3.8-0.1-5-0.7l0.2-0.1c-0.3,0-0.6,0.2-0.9-0.1c0-0.1,0.2-0.1,0-0.2
						c-0.2,0-0.9,0.1-1.3-0.1l0.4-0.1c-1.5-0.6-2.5-0.2-3.9-0.5c0.1-0.4-1.1-0.9-1.6-1.2l0-0.1c-1.8-0.6-3.1-0.7-4.9-1.2
						c-0.4-0.4-1.2-0.9-2.1-1.3c-0.9-0.5-1.9-0.9-2.6-1.5c0.2,0.2-0.2,0.3-0.5,0.2c-0.3-0.3-1.1-0.3-0.9-0.6l0.1,0.1
						c-0.1-0.5-0.8-0.9-1.4-1.2l-0.4,0.4c-0.5-0.8-1.5-1.4-2.4-1.9c-0.9-0.6-1.7-1-1.8-1.6c-0.4-0.2-0.8-0.5-1.2-0.7l0.2-0.2
						c-0.8-0.8-1.2-1.2-2.3-2.2l0.3,0.1c-0.5-0.6-1.3-0.2-1.8-0.7l0.2-0.4c-0.9-1-1.6-2.3-2.7-3.2c0.1,0,0.2-0.1,0.3,0.1
						c-0.4-0.5-1.2-2.2-1.6-1.7c0.3-0.2-0.8-1.2-1.3-1.8l0.3,0c-0.6-0.4-0.7-0.3-1.3-1.1c-0.1-0.2,0.1-0.3,0.2,0
						c-0.2-0.7-0.5-0.4-0.7-1.2l0.3,0.2c-0.3-0.7-0.4-0.6-0.7-0.8c-0.3-0.4-0.5-1.3-0.3-1.5c-0.2,0-0.5-0.3-0.6-0.7
						c0.1-0.1,0.2,0,0.2,0.1c-0.2-1.2-0.9-1.6-0.9-2.5c0.1,0,0.1-0.1,0.1-0.2c0.2,0.9,0.5,1.6,0.5,1.6c0.2-0.1,0-0.8,0.6-0.4
						c-0.4-0.5-1.1-1.4-1.2-2.2c0,0,0-0.1,0.1-0.1l0,0.1c0-0.2-0.1-0.3-0.2-0.4c0-0.2,0-0.4-0.1-0.6c0.2-0.1-0.1-0.9-0.1-1.3
						c-0.3,0.1-0.3-0.4-0.5,0.1c0-0.1,0,0.1,0.1,0.3c0,0.1,0,0.1,0.1,0.2l0,0c0.1,0.2,0.1,0.6,0.2,0.9c-0.2-0.3-0.4-0.6-0.3-1
						c-0.2-0.2-0.4-0.3-0.6-0.4c0.2-0.6,0.4-1.6,0.6-1.8c-0.2-0.6-0.3-1.2-0.4-1.9c-0.1-0.6-0.3-1.2-0.5-1.6
						c-0.1-0.3,0.2-0.4,0.2-0.5c0.1,0.2,0,0.4,0.1,0.5c-0.1-0.7,0-2-0.4-2.2c0.2-0.8,0.3,0.5,0.3-0.7l0.1,0.2
						c0.2-0.6,0.3-1.1,0.3-1.6c0-0.5,0-1,0-1.5c0-0.5,0-1,0.1-1.5c0.1-0.5,0.3-1.1,0.7-1.6C7.1,22.9,7,23,7,23
						c1.1-2.7,1.8-5.8,3.8-8c0.5-0.6,0.4-0.8,0.5-1.3l0.4,0l0.2-0.9c0.5-1.1,1.8-1.2,2.5-2.6l-0.3,0c0.4-0.4,1.1-1.3,1.2-1.1
						c0-0.1,0-0.3,0.2-0.4l0.1,0.1c0.3-0.4,0.5-0.7,0.8-1.1c0.9-0.6,0.3,0.6,1.5-0.4c0.4-0.4,1-1.3,0.8-1.3
						c-0.2,0.1-0.5,0.3-0.6,0.2l0.4-0.4c-0.2-0.4-0.1-1.1-1.4-0.5l-0.6,0.8c-0.1,0-0.2,0-0.4,0c0.2-0.2,0.4-0.3,0.6-0.5
						c-0.5,0.1-0.6,0.4-0.8,0.7c-0.1,0-0.3,0-0.5,0.1l-0.4,0.9c-0.2-0.1,0.1-0.5-0.5-0.2c-0.2,0.5,0.6,0,0.2,0.6
						C14.3,8,14.3,7.8,14,8.3c-0.1,0-0.1-0.2,0-0.3c-0.2,0.4-0.8,0.9-0.8,1.3c-0.5,0.2-1,1.2-1.3,0.9c0,0.2-0.3,0.9-0.5,1.2
						c0-0.5-0.2-0.2-0.5,0.2c-0.3,0.4-0.6,0.8-0.8,0.6c0,0.4-0.2,0.8-0.5,1.3c-0.3,0.5-0.6,1-0.8,1.5c0-0.1,0-0.2,0.1-0.3
						c-0.3,0.5-0.5,0.6-0.8,0.8c0.3,0.3-0.1,1.1,0,1.6c-0.6,0.5-0.2-0.6-0.6-0.6c0.3,0.1-0.2,1.3,0.1,1.2c-0.4,0.4-0.3,0.4-0.7,0.5
						c0.4,0.3-0.1,0.5,0,1c-0.5,0.6-0.5,0-0.7,0.9C5.7,20.4,5.9,19.6,5.9,19.6z M5.7,39.8L5.7,39.8c-0.1-0.2-0.1-0.3-0.1-0.4
						C5.6,39.5,5.6,39.6,5.7,39.8z M6.2,41.5C6.1,41.3,6.1,41,6,40.8c0.1-0.1,0.2-0.1,0.2,0.1C6.1,40.8,6.2,41.2,6.2,41.5z
						 M7.2,37.6c0.1,0.2,0.1,0.3,0,0.4c0-0.1-0.1-0.3-0.1-0.4c0,0,0,0,0,0C7.1,37.5,7.1,37.6,7.2,37.6z"/>
					<path class="st0" d="M6.7,37.2C6.7,37.2,6.7,37.2,6.7,37.2C6.7,37.2,6.6,37.2,6.7,37.2c0,0.1,0,0.1,0,0.1
						C6.7,37.3,6.7,37.3,6.7,37.2z"/>
					<path class="st0" d="M54.3,18.2L54.3,18.2C54.3,18.2,54.3,18.2,54.3,18.2C54.3,18.2,54.3,18.2,54.3,18.2z"/>
					<polygon class="st0" points="19.2,60.7 19.3,60.7 19.1,60.6 					"/>
					<path class="st0" d="M46.1,14c0,0,0-0.1-0.1-0.1C46,13.9,46,14,46.1,14z"/>
					<path class="st0" d="M42.2,12.9l-0.5-0.2C41.9,12.8,42.1,12.9,42.2,12.9z"/>
					<path class="st0" d="M39.2,12.2c0,0-0.1,0.1-0.1,0.1l0,0L39.2,12.2z"/>
					<path class="st0" d="M78.5,39c0,0,0,0.1,0.1,0.1C78.8,39.4,78.7,39.2,78.5,39z"/>
					<path class="st0" d="M69.3,27.8c0.1,0.1,0.3,0.1,0.4,0.2C69.5,27.8,69.4,27.7,69.3,27.8z"/>
					<polygon class="st0" points="83.4,54.8 83.4,54.8 83.4,54.9 					"/>
					<path class="st0" d="M70.2,28.5c-0.1-0.2-0.3-0.4-0.5-0.5C69.8,28.2,70,28.4,70.2,28.5z"/>
					<path class="st0" d="M25.9,11.8l-0.1,0c0,0,0,0,0,0L25.9,11.8z"/>
					<path class="st0" d="M25.7,11.8l-0.2,0.1C25.6,11.9,25.7,11.9,25.7,11.8z"/>
					<path class="st0" d="M25.2,12l0.3-0.1C25.4,11.9,25.3,11.9,25.2,12z"/>
					<path class="st0" d="M30,11.6l0-0.1C30,11.6,30,11.6,30,11.6z"/>
					<path class="st0" d="M31.2,11.6c-0.3,0-0.7-0.2-1.2-0.1l0,0.1C30.2,11.4,30.9,11.7,31.2,11.6z"/>
					<path class="st0" d="M36.3,13.1l-1-0.2c0.2,0.1,0.4,0.3-0.1,0.3C36.4,13.7,35,12.9,36.3,13.1z"/>
					<path class="st0" d="M39.4,13.6c-0.5,0,0,0.2-0.1,0.2C39.7,13.8,39.8,13.8,39.4,13.6z"/>
					<path class="st0" d="M60.3,21.9l-0.2,0.2C60.5,22.3,60.2,22,60.3,21.9z"/>
					<polygon class="st0" points="64.7,23.4 64.5,23 64.2,23.1 					"/>
					<polygon class="st0" points="65.5,26.4 65.4,26.4 66,26.8 					"/>
					<path class="st0" d="M80.6,59.1l0.3-0.1C80.9,58.8,80.6,58.7,80.6,59.1z"/>
					<path class="st0" d="M71.4,70.8c-0.2-0.1-0.7,0-0.9,0.2C70.8,70.9,71.2,70.9,71.4,70.8z"/>
					<polygon class="st0" points="24.3,61.3 24.6,61.4 24.1,61.1 					"/>
				</g>
			</g>
		</g>
	</g>
</g>
</svg>
