<?xml version="1.0" encoding="utf-8"?>
<!-- Generator: Adobe Illustrator 22.0.1, SVG Export Plug-In . SVG Version: 6.00 Build 0)  -->
<svg version="1.1" id="Layer_1" xmlns="http://www.w3.org/2000/svg" xmlns:xlink="http://www.w3.org/1999/xlink" x="0px" y="0px"
	 viewBox="0 0 20.1 28" style="enable-background:new 0 0 20.1 28;" xml:space="preserve">
<style type="text/css">
	.st0{fill:#F6DDC6;}
</style>
<g>
	<g>
		<g>
			<g>
				<g>
					<path class="st0" d="M6.3,16.3c0-0.1,0-0.3-0.1-0.2l0,0.3L6.3,16.3z"/>
					<path class="st0" d="M5.6,15.9c-0.1,0.2,0,0.5,0.1,0.7c0-0.3,0-0.2,0-0.6c0.1-0.1,0.2,0.1,0.2,0.2c0-0.1,0.1,0,0.1-0.2
						c-0.2-0.2-0.3-0.2-0.4,0.1C5.6,16,5.6,15.9,5.6,15.9z"/>
					<path class="st0" d="M2.8,23.7L2.8,23.7C2.8,23.6,2.8,23.6,2.8,23.7z"/>
					<path class="st0" d="M7.6,27C7.6,27,7.5,27,7.6,27C7.6,27,7.6,27,7.6,27z"/>
					<path class="st0" d="M8.6,27.4C8.6,27.4,8.6,27.4,8.6,27.4C8.6,27.4,8.6,27.4,8.6,27.4z"/>
					<path class="st0" d="M2.8,23.7l0,0.2C2.9,23.8,2.9,23.7,2.8,23.7z"/>
					<path class="st0" d="M5,17.1C5,17,5,17,5,17C5,17,5,17,5,17.1L5,17.1z"/>
					<path class="st0" d="M1.9,21.1L1.9,21.1c0-0.1-0.1-0.1-0.1-0.1L1.9,21.1z"/>
					<path class="st0" d="M2,19.1c0,0,0.2,0.1,0.4,0.2c-0.1,0-0.2-0.1-0.2-0.1C2.2,19.1,2.1,19.1,2,19.1z"/>
					<path class="st0" d="M4,16.5L4,16.5C4,16.4,4,16.5,4,16.5z"/>
					<path class="st0" d="M2.1,22.6C2.1,22.6,2,22.7,2.1,22.6C2,22.7,2.1,22.7,2.1,22.6z"/>
					<path class="st0" d="M3.2,9C3.1,8.9,3.1,8.9,3.2,9C3.1,9,3.2,9,3.2,9z"/>
					<polygon class="st0" points="0.9,10.2 0.9,10.2 0.8,10.1 					"/>
					<path class="st0" d="M10.6,27.6C10.6,27.6,10.6,27.6,10.6,27.6C10.6,27.6,10.6,27.6,10.6,27.6z"/>
					<path class="st0" d="M19.4,14c-0.2,0.2-0.3-0.3-0.6,0C18.9,13.9,19.2,14.2,19.4,14z"/>
					<path class="st0" d="M5,17.1C5,17.1,4.9,17.1,5,17.1C5,17.1,5,17.1,5,17.1z"/>
					<path class="st0" d="M18.8,13.9L18.8,13.9L18.8,13.9C18.7,14,18.7,14,18.8,13.9z"/>
					<path class="st0" d="M14.6,25.5c0,0-0.1-0.1-0.1-0.1C14.5,25.5,14.6,25.5,14.6,25.5z"/>
					<path class="st0" d="M11.6,26.7L11.6,26.7C11.6,26.7,11.6,26.7,11.6,26.7z"/>
					<path class="st0" d="M15.6,24.1C15.7,24.1,15.7,24.1,15.6,24.1C15.7,24,15.7,24,15.6,24.1C15.7,24,15.7,24.1,15.6,24.1z"/>
					<path class="st0" d="M16.7,22.7C16.7,22.7,16.7,22.7,16.7,22.7L16.7,22.7L16.7,22.7z"/>
					<path class="st0" d="M5.7,5.2c-0.1,0-0.2-0.1-0.2-0.1C5.6,5.2,5.5,5.4,5.7,5.2z"/>
					<path class="st0" d="M4.9,17C5,17,5,17,5,17.1L4.9,17C5,17,4.9,17,4.9,17z"/>
					<path class="st0" d="M14,22.5l0.2-0.1C14.2,22.4,14.1,22.5,14,22.5z"/>
					<path class="st0" d="M14,4.7L14,4.7C14,4.7,14,4.8,14,4.7z"/>
					<path class="st0" d="M14.6,21.9c0.1,0,0.2,0,0.2,0c0,0,0,0,0-0.1C14.7,21.8,14.7,21.9,14.6,21.9z"/>
					<path class="st0" d="M5.5,5.1L5.5,5.1L5.5,5.1z"/>
					<path class="st0" d="M5,6.7c0.1-0.2-0.2-0.3-0.4-0.5c0.1-0.3,0.3,0.1,0.5,0.1C5.1,6.1,5,5.8,5,5.7c0.1,0,0.1,0,0.1,0.1
						C5.1,5.5,5.5,5.4,5.4,5c0,0,0.1,0,0.1,0C5.3,5,5.2,4.8,5.1,4.7c0.1-0.1,0-0.3,0.2-0.2c-0.1,0,0,0.1,0,0.2l0-0.1
						c0.3,0.2,0,0.2,0.2,0.4c0.1-0.2,0-0.6,0.2-0.6c0.3,0.2-0.2,0.3,0.2,0.4L5.6,4.8C6.1,5.1,5.5,4.9,6,5.2C6.3,5,6.1,4.8,6.4,4.7
						C6.3,4.5,6.2,4.5,6.1,4.3c0.1-0.5,0.8,0.4,0.8-0.1C6.8,4,6.6,3.6,6.9,3.7L7.1,4c0.3-0.1-0.2-0.6,0.2-0.5c0,0.2-0.1,0.2-0.1,0.2
						c0.3,0.2,0-0.3,0.1-0.3l0.2,0.3C7.8,3.5,8,3.1,8.3,2.9c0,0.1,0,0.2,0.1,0.3C8.6,3.1,8.8,3,9,3c0.2,0,0.4,0.1,0.6,0.2
						c0-0.1,0.1-0.2,0.1-0.3c0,0,0.1,0.1,0,0.2c0.2,0.1,0-0.2,0.1-0.3C10,2.7,10,2.9,10,3c0.1-0.1,0.3-0.3,0.5-0.3
						c0.2,0,0.4,0,0.5,0.2l-0.1,0.1c0.2,0.1,0.4-0.5,0.5-0.2l-0.1,0c0.2,0.1,0.5,0.2,0.7,0.3c0.2,0.1,0.4,0.2,0.5,0.5
						c0.3-0.3,0.3,0.4,0.7-0.1c0.1,0.4-0.1,0.4,0.1,0.8c0.1,0.1,0.4-0.2,0.5-0.1l-0.2,0.2L14,4.4l-0.2,0.3c0.1,0,0.1,0,0.1,0
						c0-0.1,0-0.2,0.1-0.2c0.2,0.1,0.2,0.5,0,0.6c0.2,0.1,0.3,0.1,0.5,0.2c-0.1,0.1-0.2,0-0.3,0c0.4,0-0.2,0.2,0.1,0.2
						c0-0.1,0.2-0.1,0.2-0.1c-0.1,0.2,0.1,0.4,0.2,0.5l-0.2,0.1c0.1,0.3,0.5,0.6,0.6,1c0-0.2,0.4-0.3,0.5-0.2L15.6,7
						c0.2,0,0.1-0.2,0.3-0.1c0,0.2-0.3,0.3-0.4,0.2l0.2,0.1c-0.1,0.1-0.1,0-0.3,0.1c0.2,0-0.2,0.4,0.2,0.4l-0.1,0
						c0.2,0.4,0.3,0.5,0.5,0.8c0.3-0.1,0.3,0.1,0.5,0.1c0,0.3-0.1,0.6,0,0.9c0.2,0.2,0.2,0,0.4,0.1c-0.2,0.1-0.2,0.4-0.4,0.3
						c0.1,0.3,0.2,0.4,0.4,0.9c0.1-0.1,0.1-0.1,0.2-0.1c0.1,0.1-0.1,0.2-0.2,0.2l0,0c0.5,0.5-0.6,1.3,0,1.6l0,0l0.3,0.4
						c0,0.2-0.2-0.1-0.3,0c0.5,0.4,0,0.7,0.3,1.1c-0.7,0.3,0,1.1-0.5,1.4l0.2,0c0.2,0.1-0.1,0.1-0.2,0.2c0.1,0,0.2-0.1,0.3,0
						c0.1,0.9-0.5,1.8-0.8,2.5c-0.1,0.3,0.8,0.4,0.3,0.7l-0.3-0.2c0.2,0.7-0.4,1.2-0.4,1.9c-0.1-0.1-0.1-0.1-0.1-0.2
						c-0.3,0-0.2,0.4-0.1,0.5c-0.1,0.1-0.2-0.1-0.3-0.1c-0.2,0,0.1,0.4-0.1,0.4c0,0,0-0.1-0.1-0.1c0.1,0.1-0.2,0.3,0.1,0.4
						c-0.2,0.1-0.1,0.4-0.4,0.5c0.2,0.3-0.4,0.2,0,0.5c-0.3-0.3-0.5,0.1-0.5,0.3c-0.1-0.1-0.2,0-0.3-0.2c-0.1,0.1-0.1,0.3,0,0.4
						c-0.6-0.2-0.2,0.7-0.7,0.3c-0.2,0.5-0.5,0.9-0.8,1.2c-0.2-0.4,0.4-0.3,0.1-0.7c-0.2,0.4-0.3,0.8-0.7,0.9c-0.1,0,0-0.2,0-0.3
						c-0.3,0.3-0.7,0.3-1,0.6c0,0,0-0.1,0-0.1c-0.1,0-0.2,0-0.1,0.2l0.1-0.1c0.2,0.2-0.1,0.7-0.1,0.8c0-0.6-0.4-0.1-0.4-0.8
						c0,0-0.1,0.2,0,0.3c-0.1,0-0.1-0.1-0.1-0.3c-0.2,0.2-0.1,0.4-0.3,0.4c0-0.1,0-0.1,0-0.3c-0.1,0.2-0.2,0.4-0.4,0.4
						c0-0.1,0-0.1,0-0.1c-0.3,0.1-0.6,0.6-1,0.4c0.1-0.4-0.1-0.1-0.1-0.5l-0.2,0.1l0.1,0.2c-0.2,0-0.4,0.3-0.5,0.1L8,25.6l-0.3,0
						l0.2,0.2c-0.2,0.2,0,0.5-0.3,0.3c0.1,0-0.2,0-0.3-0.3l0,0C7.2,26,7,26,6.9,25.9c0-0.1,0.1-0.4,0.1-0.5c-0.2,0.3-0.4,0-0.6,0.2
						c0.1-0.1,0.1-0.2,0.1-0.3l-0.2,0.2c-0.1-0.1-0.1-0.1,0-0.3c-0.2-0.1-0.1,0.5-0.3,0.2c0,0,0,0,0.1-0.1c-0.2-0.2-0.6-0.1-0.8-0.4
						c0.1-0.4,0.3,0,0.3-0.3c-0.3-0.1-0.9-0.1-1.1-0.4l0,0.1c-0.4,0.3,0-0.4-0.3-0.4c0.1,0,0.3-0.1,0.2-0.1
						c-0.1-0.2-0.4-0.3-0.8-0.6l0.1,0c0-0.2-0.1-0.4-0.1-0.6c-0.1,0-0.2-0.1-0.3,0c0.2-0.4,0.1-0.6-0.1-0.8
						c-0.2-0.2-0.3-0.4-0.1-0.7c0,0.1,0.1,0.1,0.1,0.1c-0.1-0.1-0.1-0.2-0.2-0.4c-0.2,0-0.1,0.1-0.3,0.2c-0.1,0-0.2-0.2-0.2-0.3
						c0.2,0.2,0.4,0,0.5-0.1c-0.1,0-0.1,0-0.2,0c0.4-0.2-0.5,0-0.2-0.3l0.1,0c-0.1-0.1-0.2-0.2-0.2-0.3c0.3,0,0.1,0.1,0.3,0.2
						c0-0.2-0.5-0.4-0.2-0.5C2.9,19.9,2.9,20,3,20.1c0.3-0.1,0.2-0.2,0.3-0.3l0,0l0.2-0.2l-0.1,0.1c-0.6-0.3-0.1-0.4-0.4-0.8
						c0.3,0.4,0.2,0.1,0.5,0.2c0.1,0,0.2-0.1,0.3-0.1c-0.2-0.2,0.2-0.1,0-0.4c0.1,0,0.1-0.1,0.3,0c0-0.2-0.2,0-0.3-0.1
						c-0.2-0.4,0.6-0.3,0.4-0.8c0-0.4-0.2-0.6-0.1-1c0.2,0,0.2,0.3,0.2,0.3c0.2,0,0.3-0.1,0.3-0.3c0,0.1,0.1,0.1,0.2,0.2
						c0.1-0.1-0.2-0.3,0.1-0.3C4.9,16.7,5,16.9,5,17c0-0.1,0-0.4,0.1-0.5c0.1,0.1,0.1,0.3,0.1,0.4c0.1-0.1,0.3-0.3,0.2-0.6l-0.1,0
						c0,0,0.1,0.2,0.1,0.3c0,0.2-0.2,0-0.3-0.1l0.1-0.1c-0.2-0.2-0.3-0.2-0.3,0c-0.1,0.2-0.1,0.4-0.2,0.4l-0.2-0.4
						c0,0.1,0,0.3,0,0.4c-0.1-0.1-0.3-0.2-0.2-0.3c-0.3,0,0,0.2-0.3,0.1c0,0,0,0,0-0.1l0,0.2c0-0.1-0.2-0.2-0.1-0.2
						c-0.4,0.1-0.1,0.6-0.4,0.5l0,0c-0.1,0.4,0.2,0.2,0.3,0.7c-0.2-0.1-0.5-0.2-0.8-0.2l0.2,0.2c0,0-0.1,0.1-0.2,0
						c0.1,0.2,0.1,0,0.3,0.2c-0.3,0.1-0.1,0.6-0.6,0.4C2.9,18.4,3,18.1,3,18.4c-0.5-0.1,0,0.3-0.3,0.4c-0.2-0.1,0-0.3-0.3-0.2
						c0.4,0.2-0.2,0.3-0.2,0.5c0.4,0.1,0.1,0.4,0.1,0.7c-0.1,0-0.3,0.5-0.4,0.8l-0.1,0c0.4,0.1,0.3,0.3,0.4,0.5
						c-0.2,0-0.3,0-0.4-0.1l0,0.2c0.1,0,0.2,0.1,0.2,0.2l-0.3,0c0,0.3,0.4,0.5,0.3,0.8c0.3,0,0.7-0.4,0.9-0.1c-0.1,0-0.4,0.1-0.4,0
						c0,0,0.1,0.1,0.1,0.1l-0.3-0.1c-0.1,0.2,0.2,0,0.2,0.1c-0.2,0-0.1,0.1-0.3,0.1c0,0,0.1-0.1,0-0.1c0,0.1-0.1,0.3-0.2,0.4
						c0.1,0,0.3-0.1,0.3,0c0.1,0.2-0.2,0.2-0.3,0.3c0.2,0,0.1,0.2,0.4,0.1c0,0.1-0.1,0.1-0.2,0.2c0.2,0.1,0.3,0.6,0.5,0.3l0,0l0,0
						l0,0l0,0c0.5,0.2,0.3,0.8,0.7,1.1l-0.1,0.1c0.2,0.1,0.4,0.4,0.7,0.3c0.1,0,0,0.3-0.1,0.3c0.2,0.1,0.3,0,0.4,0.3
						c-0.3,0,0,0.2-0.2,0c0.2,0.2,0.1,0.4,0.5,0.3c-0.2,0.2,0,0.4,0.1,0.4c0-0.1,0-0.2-0.1-0.2c0.1,0,0.2,0.1,0.3,0.2l-0.2,0.3
						c0.3,0.6,1.1-0.2,1.3,0.5c0.2-0.2-0.2-0.3,0-0.5c0.2,0.1,0.3,0.6,0.4,0.7C6.9,27.5,7,26.9,7.3,27c0-0.1,0-0.4,0.2-0.5
						c0.2,0.1,0.2,0.5,0.1,0.6c-0.1,0-0.1,0-0.1-0.1c-0.1,0-0.2,0.1-0.1,0.2l0-0.1c0.1,0.1,0.4,0.2,0.3,0.4c0.2-0.1,0.1-0.2,0-0.3
						c0.3,0.2,0.5,0,0.8,0.2c-0.1-0.1-0.1-0.2,0-0.2C9,27.3,8.7,27,9,26.9c0.2,0.2,0,0.4,0.3,0.3c0.2,0.1,0.1,0.3,0,0.4
						c0.3-0.2,0.6,0.1,0.7,0.1l-0.1,0.1c0.1-0.1,0.2-0.1,0.2-0.1L10,27.5c0.1,0,0.2,0,0.2,0.1c0.1-0.2-0.1-0.4,0-0.6
						c0.1,0.1,0.3-0.2,0.4,0.1c-0.4,0,0.1,0.3-0.2,0.4c0.1-0.1,0.1-0.1,0.2,0c0,0,0,0.1,0,0.1c0.4,0.2,0.1-0.4,0.4-0.5
						c0,0.2,0.2,0.3,0.2,0.2c-0.1,0-0.1-0.3-0.1-0.4c0.3,0.1,0.2-0.2,0.3-0.2l-0.2,0c0-0.2,0.1-0.2,0.2-0.3c0.1,0.1-0.1,0.1,0,0.2
						c0.1-0.3,0.5,0.2,0.6-0.1c0.2,0.1,0.1,0.3,0.3,0.3c0.2-0.3,0.4,0.1,0.6-0.2c-0.2-0.2-0.2-0.1-0.1-0.4c-0.1,0.1-0.2,0.3-0.4,0.4
						c0.1-0.1,0.1-0.3,0.1-0.5c-0.1,0.1-0.2,0.3-0.3,0.3c0.1-0.2,0.1-0.2-0.1-0.3c0.3,0.2,0.2-0.4,0.6-0.2l0.3,0.5
						c0.5,0.1,0.4-0.6,0.9-0.7l-0.2,0c-0.1-0.2,0.2-0.2,0.3-0.3c0.1,0.2,0.2,0.2,0.3,0.2c-0.1-0.1,0.3-0.2,0.1-0.5
						c0.1,0,0.2,0.1,0.3,0.1c0.4-0.2-0.1-0.7,0.2-0.9c0.1,0.2,0.3,0.2,0.2,0.5c0.1-0.1,0.2-0.1,0.1-0.2c0.1,0,0-0.4,0.2-0.4
						c0-0.1-0.2-0.2-0.1-0.3c0,0,0.1,0.1,0.1,0.1c-0.1-0.1,0-0.2-0.2-0.3c0.7,0.1,0.6-0.8,1.1-0.7c0.1-0.2,0.2-0.5,0.3-0.7
						c0,0,0.1,0,0,0.1c0.3-0.2-0.4-0.4-0.1-0.6c0.4,0,0.1,0.2,0.2,0.2c0.6,0.3,0.1-0.4,0.6-0.5l0,0.1c0.3-0.1,0-0.5,0.1-0.8
						c0,0,0,0,0.1,0c-0.2-0.3-0.2-0.7-0.2-1c0.2,0.2,0.1,0.2,0.3,0.2c0-0.1-0.4-0.1-0.4-0.4c0.2,0,0.3-0.2,0.6-0.1l-0.1,0.2
						c0.4,0,0.1-0.3,0.2-0.4l0.1,0.1c0.1-0.4-0.3-0.5-0.2-0.8l-0.1,0c-0.3-0.3,0.3-0.1,0-0.4l0.4,0c-0.1-0.2-0.3-0.6-0.3-0.8
						c0.3,0.2,0.4,0.5,0.5,0.7c0-0.1,0.1-0.5-0.1-0.6c0,0.1,0.1,0.1,0,0.2c-0.3-0.2-0.4-0.5-0.4-0.7c0.8,0.1,0.3-0.7,0.9-0.8
						c-0.2-0.5,0.2-1,0.1-1.6c-0.6,0.2,0-0.2-0.6-0.1c0-0.1,0-0.2,0-0.2l0.4-0.4c0.2-0.1,0.1,0.1,0.3,0.1c0-0.3,0.3-0.1,0.4-0.3
						c-0.2,0-0.3-0.1-0.2-0.3l-0.3,0.2c-0.3-0.4,0.5-0.4,0.2-0.8l0.2,0.1c-0.1-0.2-0.1-0.8-0.6-1c0.1,0,0.2-0.1,0.3,0
						c0-0.5-0.7-1.1-0.4-1.5l0.2,0c-0.1-0.1-0.3-0.1-0.2-0.3c0.1,0,0.2,0,0.2,0c-0.1,0-0.3-0.2-0.3-0.3L19,9.6
						c0.1-0.5-0.6-0.7-0.8-1c0.4-0.1,0.5-0.6,0.4-0.8l0.1,0c-0.1-0.6-0.7-0.8-1.1-1.3c0.3-0.5-0.3-1.1-0.4-1.7
						c0,0.1-0.3,0.2-0.4,0.1c0-0.2-0.4-0.1-0.1-0.3l0,0c0.3-0.3,0-0.5-0.1-0.7l-0.4,0.3c0.2-0.5-0.2-0.7-0.4-0.9
						c-0.3-0.2-0.6-0.3-0.4-0.7c-0.2,0-0.3-0.1-0.5-0.1L15,2.3c-0.3-0.3-0.4-0.5-0.9-0.7l0.2-0.1c-0.2-0.2-0.7,0.5-0.9,0.4l0.1-0.4
						c-0.4-0.2-0.8-0.8-1.3-0.5c0-0.1,0.1-0.2,0.2-0.2c-0.2-0.1-0.8-0.5-0.9,0.1c0.1-0.4-0.5-0.1-0.8,0l0.1-0.3
						c-0.2,0.3-0.3,0.4-0.5,0.5c-0.1,0-0.1-0.2,0-0.2c-0.2-0.1-0.2,0.3-0.5,0.1L9.9,1C9.7,1,9.7,1.1,9.6,1.3C9.5,1.4,9.2,1.3,9.1,1
						c0,0.2-0.1,0.4-0.2,0.3c0-0.1,0-0.2,0-0.2C8.4,1,8.4,1.6,8,1.4C8,1.3,8,1.3,7.9,1.3c0.3-0.1,0.6-0.1,0.5-0.1
						C8.4,0.9,8.2,0.9,8.3,0.5C8.1,0.8,7.9,1.3,7.6,1.3c0,0,0,0-0.1-0.1l0,0c-0.1,0-0.1,0-0.1,0.1c-0.1,0-0.2,0-0.2,0
						c-0.1-0.2-0.3,0-0.5,0.1c0.1,0.2,0,0.3,0.2,0.4c0,0,0,0,0.1-0.1c0,0,0,0,0,0l0,0c0.1,0,0.2-0.1,0.3-0.1c0,0.2-0.1,0.3-0.3,0.2
						c0,0.2,0,0.4,0.1,0.5C6.8,1.9,6.4,1.9,6.3,1.7C6,2.1,5.6,2.4,5.7,2.9c0,0.1-0.2,0-0.3-0.1c0-0.1,0.1-0.1,0.1-0.2
						C5.4,2.9,5,3.1,5.2,3.4C4.9,3.4,5.1,3,4.9,3.3l0-0.1C4.4,3.2,4.3,3.6,4.3,4c0,0.4-0.1,0.7-0.6,0.8c0.1,0,0.1,0,0.2,0
						C3,5.2,3,6.3,2.1,6.8c-0.2,0.2,0,0.3,0,0.5L1.8,7.2L2,7.6C2,8,1,7.7,1.2,8.4l0.2,0C1.3,8.5,1.3,8.9,1.1,8.8c0,0,0.2,0.1,0,0.2
						L1,8.9l0.1,0.5C0.8,9.6,0.5,9,0.3,9.4c0,0.2,0.2,0.6,0.3,0.6c0-0.1,0.2-0.1,0.3,0l0,0.2c0.4,0.2,0.8,0.5,1.2,0.4L2,10.2l0.2,0
						l-0.1,0.2c0.2,0,0.1-0.2,0-0.3c0.1,0,0.2,0,0.3,0L2.2,9.7C2.4,9.7,2.5,10,2.6,9.9C2.5,9.7,2.2,9.8,2.2,9.5
						c0.2,0,0.4,0.1,0.3-0.1c0.1,0,0.2,0.1,0.2,0.2C2.6,9.4,2.8,9.3,2.6,9.1c0.3,0,0.1-0.4,0.5-0.2C3,8.8,2.9,8.6,3,8.5
						c0.3,0.4,0.2-0.4,0.7,0c-0.3-0.4,0.1-0.6,0-0.9c0,0,0.1,0.1,0,0.1C3.9,7.5,4,7.5,4.1,7.5C3.8,7.3,3.9,7,3.7,6.8
						c0.4,0.1,0.3,0.4,0.6,0.5C4.1,7.1,4.3,6.9,4.1,6.8c0.3,0,0.2,0,0.5,0.1c-0.4-0.3,0-0.2-0.2-0.4c0.3,0,0.4,0.2,0.4,0
						C5,6.4,5,6.7,5,6.7z M8.3,2.9L8.3,2.9C8.2,2.9,8.2,2.9,8.3,2.9C8.2,2.9,8.2,2.9,8.3,2.9z M8.7,2.7c-0.1,0-0.1,0-0.2,0
						c0-0.1-0.1-0.2,0-0.2C8.5,2.6,8.6,2.7,8.7,2.7z M7,1.3c0.1-0.1,0.1,0,0.1,0c0,0-0.1,0-0.1,0.1l0,0C7,1.4,7,1.3,7,1.3z"/>
					<path class="st0" d="M7,1.7C7,1.7,7,1.7,7,1.7C7,1.7,7.1,1.7,7,1.7L7,1.7L7,1.7z"/>
					<path class="st0" d="M2.8,23.6L2.8,23.6C2.8,23.6,2.9,23.6,2.8,23.6C2.9,23.6,2.9,23.6,2.8,23.6z"/>
					<polygon class="st0" points="13.6,4.5 13.7,4.5 13.6,4.5 					"/>
					<path class="st0" d="M3.2,20.8C3.2,20.8,3.2,20.8,3.2,20.8C3.2,20.8,3.2,20.8,3.2,20.8z"/>
					<path class="st0" d="M3.3,19.8l0.1-0.1C3.4,19.7,3.3,19.8,3.3,19.8z"/>
					<path class="st0" d="M3.6,19.1c0,0-0.1,0-0.1,0l0,0L3.6,19.1z"/>
					<path class="st0" d="M10.9,24.9C10.9,24.9,10.9,24.9,10.9,24.9C11,24.8,10.9,24.9,10.9,24.9z"/>
					<path class="st0" d="M7.3,25.9c0,0,0.1-0.1,0.1-0.1C7.4,25.7,7.3,25.7,7.3,25.9z"/>
					<polygon class="st0" points="14,22.6 14,22.6 14,22.5 					"/>
					<path class="st0" d="M7.6,25.8c-0.1-0.1-0.1-0.1-0.2,0C7.5,25.8,7.5,25.8,7.6,25.8z"/>
					<path class="st0" d="M5.5,16.8L5.5,16.8C5.6,16.8,5.6,16.7,5.5,16.8L5.5,16.8z"/>
					<path class="st0" d="M5.6,16.7L5.6,16.7C5.6,16.7,5.6,16.7,5.6,16.7z"/>
					<path class="st0" d="M5.6,16.6l0,0.1C5.6,16.7,5.6,16.7,5.6,16.6z"/>
					<path class="st0" d="M4.7,17.2L4.7,17.2C4.8,17.3,4.8,17.2,4.7,17.2z"/>
					<path class="st0" d="M4.6,17.4c0.1,0,0.3,0,0.3-0.1l-0.1-0.1C4.9,17.4,4.5,17.3,4.6,17.4z"/>
					<path class="st0" d="M2.7,17.9L3,17.7c-0.1,0-0.3,0-0.2-0.1C2.2,17.8,3,17.6,2.7,17.9z"/>
					<path class="st0" d="M2.2,18.8c0-0.2-0.2,0-0.2-0.1C2.1,18.9,2.1,18.9,2.2,18.8z"/>
					<path class="st0" d="M4.1,25.5l-0.2,0.2C4,25.7,3.9,25.6,4.1,25.5z"/>
					<polygon class="st0" points="5.8,25.1 5.8,24.9 5.7,25.1 					"/>
					<polygon class="st0" points="5.8,27 5.7,27.1 6,27.1 					"/>
					<path class="st0" d="M16.7,23.1L16.5,23C16.4,23.1,16.7,23.3,16.7,23.1z"/>
					<path class="st0" d="M18.5,18.3c0.2,0,0.3-0.1,0.2-0.3C18.6,18.2,18.4,18.3,18.5,18.3z"/>
					<polygon class="st0" points="16.3,3.8 16.5,3.8 16.3,3.7 					"/>
				</g>
			</g>
		</g>
	</g>
</g>
</svg>
