<?xml version="1.0" encoding="utf-8"?>
<!-- Generator: Adobe Illustrator 22.0.1, SVG Export Plug-In . SVG Version: 6.00 Build 0)  -->
<svg version="1.1" id="Layer_1" xmlns="http://www.w3.org/2000/svg" xmlns:xlink="http://www.w3.org/1999/xlink" x="0px" y="0px"
	 viewBox="0 0 372.4 390.1" style="enable-background:new 0 0 372.4 390.1;" xml:space="preserve">
<style type="text/css">
	.st0{fill:#5DA5AA;}
	.st1{fill:#ECED9A;}
	.st2{fill:#EFE7CA;}
	.st3{fill:#FFFFFF;}
	.st4{fill:none;stroke:#593F28;stroke-miterlimit:10;}
</style>
<g>
	<rect x="-29.3" y="-12.9" class="st0" width="409.3" height="418.4"/>
</g>
<path class="st1" d="M384.8,362.4c-6,23-11.8,45.8-17.8,68.8c-14.7-6.2-36.1-16.8-57.9-34.7c-11.7-9.5-22.2-20.1-34.3-34.8
	c-38.6-47.2-71.2-110.7-83-134.3c36.1-16.5,72-33.1,108.1-49.7c5.7,30.7,16.6,70.3,38.5,113C353.2,319.9,369.7,343.6,384.8,362.4z"
	/>
<path class="st1" d="M168.6,217.8c-19.4-42.2-10.9-102.5,26-119.5s88.3,15.9,107.7,58s0.1,79-36.8,96
	C228.4,269.2,187.9,260,168.6,217.8z"/>
<path class="st2" d="M212.9,214c-7.9-17.1-3.8-42,12.1-49.3c15.9-7.2,37.5,5.7,45.3,23c7.9,17.3-0.6,32.5-16.5,39.7
	C237.9,234.7,220.8,231.1,212.9,214z"/>
<ellipse transform="matrix(0.9086 -0.4177 0.4177 0.9086 -66.9367 102.5468)" class="st2" cx="200.8" cy="204.2" rx="19.3" ry="25.9"/>
<ellipse transform="matrix(0.9086 -0.4177 0.4177 0.9086 -47.0656 128.8804)" class="st2" cx="270.9" cy="172" rx="19.3" ry="25.9"/>
<circle cx="199.3" cy="205" r="8.6"/>
<circle class="st3" cx="199.8" cy="201.3" r="1.4"/>
<circle cx="274.4" cy="170.4" r="8.6"/>
<circle class="st3" cx="276" cy="166.2" r="1.4"/>
<g>
	<polyline class="st4" points="232,191.9 238.6,193.9 241.2,187.7 	"/>
	<path class="st4" d="M238.6,193.9l3.6,7.7c0,0-0.9,7.1-7.7,3.6"/>
	<path class="st4" d="M238.4,193.9l3.6,7.7c0,0,6,3.9,7.7-3.6"/>
</g>
<path class="st1" d="M122.7,141.4l6.5,14.5c9.8,21.8,41.1,20.7,49.4-1.8l4.8-13.2c1.1-3.3-1-6.7-4.4-7.1l-46.7-5.3
	C125,127.6,119.8,134.9,122.7,141.4z"/>
<path class="st1" d="M270.4,73.4l6.7,14.3c10.2,21.6-11,44.7-33.5,36.3l-13.1-5c-3.2-1.3-4.4-5.1-2.5-8l26.4-39
	C258.5,66.3,267.4,66.9,270.4,73.4z"/>
</svg>
