<?xml version="1.0" encoding="utf-8"?>
<!-- Generator: Adobe Illustrator 22.0.1, SVG Export Plug-In . SVG Version: 6.00 Build 0)  -->
<svg version="1.1" id="Layer_1" xmlns="http://www.w3.org/2000/svg" xmlns:xlink="http://www.w3.org/1999/xlink" x="0px" y="0px"
	 viewBox="0 0 372.4 390.1" style="enable-background:new 0 0 372.4 390.1;" xml:space="preserve">
<style type="text/css">
	.st0{fill:#5FA6AB;}
	.st1{fill:#ECEE9B;}
	.st2{opacity:0.3;}
	.st3{fill:#7C7C52;}
	.st4{fill:#EBED9C;}
	.st5{fill:#EFE6CA;}
	.st6{fill:#010101;}
	.st7{fill:#FFFFFF;}
	.st8{fill:none;stroke:#594029;stroke-miterlimit:10;}
	.st9{opacity:0.3;fill:#7C7C52;}
</style>
<g>
	<rect x="-12.4" y="-15.5" class="st0" width="409.3" height="418.4"/>
</g>
<path class="st1" d="M295.8,390.1c0.5,0,25.1,2.2,25.6,2.1c20.9-1.1,41.9-1.5,62.7-3c2.2-9,4.3-18,6.6-27.1
	c-13.6-18.1-28.4-40.8-41.6-68.9c-19.7-41-29.4-79.1-34.6-108.5c-32.4,15.9-64.6,31.9-97,47.7c10.6,22.7,32.9,69.3,58.6,120.2
	C285.5,371.4,291,379.7,295.8,390.1z"/>
<g class="st2">
	<g>
		<path class="st3" d="M239.6,258.7c14.3,5.6,29,1.5,42.7-3.9c14.1-5.5,27.6-13.9,34.6-27.9c4.7-9.3,2.8-22.1-7.2-27.4
			c-9.1-4.8-22.4-2.8-27.4,7.2c-0.5,0.9-1,1.8-1.4,2.7c-1.2,2.2,0.1,0.8,0.5-0.4c-0.3,1-1.9,2.1-2.6,2.8c-0.4,0.3-3,2.4-0.9,0.9
			c2.1-1.5-0.7,0.4-1.1,0.7c-0.9,0.6-1.8,1.1-2.7,1.6c-1,0.6-2.1,1-3.1,1.6c-2.7,1.5,4.1-1.4-1,0.4c-4.5,1.6-9.1,3-13.7,4.2
			c-0.3,0.1-2.8,0.5-2.8,0.7c2.7-0.2,3.2-0.3,1.6-0.2c-1.2,0-1.1,0,0.3,0.2c2.4-0.1-0.5-0.2-1.3-0.4c-1.3-0.4-2.6-0.9-3.8-1.3
			c-9.8-3.8-22.4,4.2-24.6,14C223,245.6,229.1,254.7,239.6,258.7L239.6,258.7z"/>
	</g>
</g>
<path class="st4" d="M185.5,214.8c-19.4-42.2-10.9-102.5,26-119.5s88.3,15.9,107.7,58s0.1,79-36.8,96
	C245.3,266.2,204.8,257,185.5,214.8z"/>
<path class="st5" d="M229.8,211c-7.9-17.1-3.8-42,12.1-49.3c15.9-7.2,37.5,5.7,45.3,23c7.9,17.3-0.6,32.5-16.5,39.7
	C254.8,231.7,237.7,228.1,229.8,211z"/>
<ellipse transform="matrix(0.9086 -0.4177 0.4177 0.9086 -64.1437 109.3251)" class="st5" cx="217.7" cy="201.2" rx="19.3" ry="25.9"/>
<ellipse transform="matrix(0.9086 -0.4177 0.4177 0.9086 -44.283 135.6673)" class="st5" cx="287.8" cy="169" rx="19.3" ry="25.9"/>
<circle class="st6" cx="216.2" cy="202" r="8.6"/>
<circle class="st7" cx="216.7" cy="198.3" r="1.4"/>
<circle class="st6" cx="291.3" cy="167.4" r="8.6"/>
<circle class="st7" cx="292.9" cy="163.2" r="1.4"/>
<g>
	<polyline class="st8" points="248.9,188.9 255.5,190.9 258.1,184.7 	"/>
	<path class="st8" d="M255.5,190.9l3.6,7.7c0,0-0.9,7.1-7.7,3.6"/>
	<path class="st8" d="M255.3,190.9l3.6,7.7c0,0,6,3.9,7.7-3.6"/>
</g>
<path class="st1" d="M145.5,127l0.2,15.9c0.3,23.9,29.5,35.3,46,18l9.7-10.2c2.3-2.6,1.7-6.5-1.2-8.3L159.5,119
	C153.2,115.2,145.5,119.9,145.5,127z"/>
<path class="st1" d="M278.3,66l11.2,11.1c17,16.8,5,45.8-19,45.6l-14-0.2c-3.5-0.1-5.9-3.3-5.1-6.7l11.4-45.7
	C264.7,63.4,273.3,60.9,278.3,66z"/>
<path class="st9" d="M148.1,120.9c-0.5,2.5-3.4,13.6,3.4,25c6.4,10.7,21.3,19.1,23.9,19.9c0-3.7,0.8-12.1,4-16.9
	c-4-0.6-12,4.1-22.7-8.7C150.6,132.7,149.1,125.2,148.1,120.9z"/>
<path class="st9" d="M272.5,63.5c2.2,1.3,12.2,6.9,15.8,19.7c3.4,12-1.6,25.7-2.7,28.2c-3.9-3-7.7-8.7-12.1-8.3
	c2.3-3.3,9.1-3.5,7.1-20.1C279.4,73.5,275.1,67.2,272.5,63.5z"/>
<path class="st4" d="M147.8,123.7l-0.1,7.3c2.9,17.9,30.6,38.7,44.5,27.5l11.4-11c1.9-1.7,1-4.7-2.1-6.3l-41.4-22
	C153.7,115.8,146.9,118.4,147.8,123.7z"/>
<path class="st4" d="M262.9,69.2l-8.4,38.8c-0.6,2.8,1.1,5.2,3.5,5l9.5,2.5c16.6-2.2,25.5-30.9,13.9-43.3l-7.7-8.2
	C270.2,60.4,264.2,63.2,262.9,69.2z"/>
</svg>
