<?xml version="1.0" encoding="utf-8"?>
<!-- Generator: Adobe Illustrator 22.0.1, SVG Export Plug-In . SVG Version: 6.00 Build 0)  -->
<svg version="1.1" id="Layer_1" xmlns="http://www.w3.org/2000/svg" xmlns:xlink="http://www.w3.org/1999/xlink" x="0px" y="0px"
	 viewBox="0 0 385.1 242.2" style="enable-background:new 0 0 385.1 242.2;" xml:space="preserve">
<style type="text/css">
	.st0{fill:#CCC7A9;}
	.st1{opacity:0.49;}
	.st2{fill:#A09C87;}
	.st3{fill:#504E44;}
	.st4{fill:#1D1B19;}
	.st5{fill:#DBD5C0;}
</style>
<g>
	<path class="st0" d="M295.5,80c4.4-32.8,34.3-77.2,51.4-75s41.2,14.5,36.8,47.3s-48.1,93.4-65.2,91.1
		C301.4,141.2,291.1,112.8,295.5,80z"/>
	<g class="st1">
		<g>
			<path class="st2" d="M298.4,77.3c8.5,4.9,14.8,12.6,17.4,22.1c1.5,5.3,1.8,10.7,1.8,16.2c0,5.6,0.7,12.8-1.6,18
				c-3.1,7,7.2,13.1,10.4,6.1c3-6.8,3.1-14,3.2-21.3c0.1-7.4-0.2-14.9-2.2-22.1c-3.4-12.4-11.8-22.8-22.9-29.2
				C297.7,63.1,291.7,73.4,298.4,77.3L298.4,77.3z"/>
		</g>
	</g>
	<path class="st0" d="M96.5,155.6c-31-11.5-84.3-5.9-90.3,10.3s-6.4,43.2,24.6,54.7c31,11.5,105.1,1.2,111-14.9
		S127.5,167.1,96.5,155.6z"/>
	<g class="st1">
		<g>
			<path class="st2" d="M81,156.4c-1.1,13.4,3.3,26.6,12.3,36.7c4.4,5,9.9,9.1,15.4,12.8c5.6,3.8,11.4,8.1,18.2,9.4
				c7.5,1.5,10.8-10.1,3.2-11.6c-5.5-1.1-10.1-4.7-14.6-7.7c-4.5-3-8.8-6.2-12.6-10.2c-7.6-8-10.8-18.5-9.9-29.4
				C93.7,148.7,81.7,148.8,81,156.4L81,156.4z"/>
		</g>
	</g>
	<path class="st2" d="M322.5,130.9c4,13.6-27.4,87.4-87.1,105s-125.1-27.8-129.1-41.4c-4-13.6,41.1-38.9,100.8-56.5
		S318.5,117.3,322.5,130.9z"/>
	<circle class="st3" cx="175.2" cy="141.2" r="6.2"/>
	
		<ellipse transform="matrix(0.9594 -0.2822 0.2822 0.9594 -19.7281 58.8115)" class="st0" cx="194.3" cy="97.9" rx="103.3" ry="81.3"/>
	<path class="st0" d="M324.4,102.6c12.9,44-39.8,60.6-105.2,79.9s-118.8,33.8-131.7-10.2s25.6-108.7,91-128S311.5,58.7,324.4,102.6z
		"/>
	
		<ellipse transform="matrix(0.9594 -0.2822 0.2822 0.9594 -32.1818 39.3218)" class="st2" cx="120.4" cy="131.4" rx="14.7" ry="14.2"/>
	<circle class="st4" cx="119.9" cy="130.7" r="12.9"/>
	<circle class="st5" cx="115.7" cy="123.3" r="2.9"/>
	
		<ellipse transform="matrix(0.9594 -0.2822 0.2822 0.9594 -12.8927 81.4858)" class="st2" cx="276.5" cy="85.5" rx="14.7" ry="14.2"/>
	<circle class="st4" cx="275.9" cy="84.8" r="12.9"/>
	<circle class="st5" cx="271.8" cy="77.4" r="2.9"/>
	<path class="st0" d="M197.2,78.9c23.9,0.1,32.8,48.3,33.4,91.5s-44.7,46.1-68.7,46s-45.5-8.8-46.1-52
		C115.2,121.1,173.2,78.8,197.2,78.9z"/>
	<path class="st0" d="M184.2,82.7c-20.1,13.1-1.4,58.3,21.5,95s64.2,8.9,84.3-4.1c20.1-13.1,31.9-26.4,9-63.1
		C276.1,73.8,204.3,69.6,184.2,82.7z"/>
	<circle class="st3" cx="232.5" cy="124.3" r="6.2"/>
	<circle class="st3" cx="180.8" cy="139.5" r="6.2"/>
	<g class="st1">
		<g>
			<path class="st2" d="M226.2,193.8c-2.1-10.2-4.8-20.2-8.1-30.1c-0.6-1.8-3.5-1-2.9,0.8c3.3,9.9,6,19.9,8.1,30.1
				C223.7,196.4,226.6,195.6,226.2,193.8L226.2,193.8z"/>
		</g>
	</g>
</g>
</svg>
