<?xml version="1.0" encoding="utf-8"?>
<!-- Generator: Adobe Illustrator 22.0.1, SVG Export Plug-In . SVG Version: 6.00 Build 0)  -->
<svg version="1.1" id="Layer_1" xmlns="http://www.w3.org/2000/svg" xmlns:xlink="http://www.w3.org/1999/xlink" x="0px" y="0px"
	 viewBox="0 0 335.9 304.3" style="enable-background:new 0 0 335.9 304.3;" xml:space="preserve">
<style type="text/css">
	.st0{fill:#F6DDC6;}
</style>
<g>
	<g>
		<g>
			<g>
				<g>
					<path class="st0" d="M325.1,230.1c0,0.2,0.2,0.2,0.4-0.4l-0.2-0.5L325.1,230.1z"/>
					<path class="st0" d="M326.8,226.2c0-0.8,0-1.6-0.4-1.3c0.1,0.8-0.1,0.9,0.1,1.8c-0.1,0.6-0.4,1-0.5,0.9c0,0.2-0.3,0.9-0.2,1.3
						c0.5-0.7,0.8-1.7,0.8-2.8C326.8,225.9,326.8,226.1,326.8,226.2z"/>
					<path class="st0" d="M325,165.8l0.1,0.4C325,166,325,165.9,325,165.8z"/>
					<path class="st0" d="M306.1,132.8c0.2,0.2,0.3,0.3,0.3,0.3C306.3,132.9,306.1,132.8,306.1,132.8z"/>
					<path class="st0" d="M302,127.8c0.1,0.1,0.2,0.2,0.3,0.3C302.1,128,302,127.9,302,127.8z"/>
					<path class="st0" d="M325,165.8c-0.1-0.3-0.2-0.7-0.2-1C324.6,164.7,324.9,165.3,325,165.8z"/>
					<path class="st0" d="M327.9,217.8c0,0.2,0,0.4,0,0.6C327.9,218.2,327.9,218,327.9,217.8C327.9,217.8,327.9,217.8,327.9,217.8z"
						/>
					<path class="st0" d="M329.4,182l0,0.3c0.1,0.1,0.1,0.2,0.2,0.2L329.4,182z"/>
					<path class="st0" d="M330.9,194.8c0-0.3-0.3-0.4-0.4-0.5c0.1,0.2,0.2,0.4,0.2,0.6C330.8,194.9,330.8,194.9,330.9,194.8z"/>
					<path class="st0" d="M329.5,215.2l0,0.4C329.4,215.4,329.4,215.3,329.5,215.2z"/>
					<path class="st0" d="M327.5,172.9c0,0,0.1-0.1,0.1-0.1C327.5,172.8,327.5,172.8,327.5,172.9z"/>
					<path class="st0" d="M122.6,271.8C122.5,271.8,122.5,271.8,122.6,271.8C122.6,271.9,122.6,271.9,122.6,271.8z"/>
					<path class="st0" d="M127.7,285.8l-0.1-0.2c-0.1,0-0.1,0-0.2,0L127.7,285.8z"/>
					<path class="st0" d="M293.3,119.5C293.3,119.6,293.3,119.6,293.3,119.5C293.6,119.7,293.5,119.6,293.3,119.5z"/>
					<path class="st0" d="M203.9,131c0.8-1-0.7,1.9,0.5,0.4C204.2,131.5,204.8,129.7,203.9,131z"/>
					<path class="st0" d="M327.9,217.5c0-0.2,0.1-0.3,0.1-0.5C328,217.2,328,217.4,327.9,217.5z"/>
					<path class="st0" d="M204.3,131.4L204.3,131.4l0.1-0.2C204.4,131.3,204.4,131.3,204.3,131.4z"/>
					<path class="st0" d="M269.6,105.4c0,0.1,0.1,0.1,0.2,0.2C269.8,105.6,269.8,105.5,269.6,105.4z"/>
					<path class="st0" d="M287.3,115.8l-0.4-0.3C287.1,115.6,287.2,115.7,287.3,115.8z"/>
					<path class="st0" d="M259.5,102c-0.3-0.1-0.3-0.2-0.7-0.2c0,0,0.1,0,0.1,0.1C259.1,101.8,259.2,101.8,259.5,102z"/>
					<path class="st0" d="M248.8,99.2c0.1,0,0.1,0.1,0.2,0.1c0.1,0,0.2,0,0.3,0L248.8,99.2z"/>
					<path class="st0" d="M112.8,240.4c0,0.2-0.1,0.4-0.2,0.5C112.8,240.7,113.1,242.3,112.8,240.4z"/>
					<path class="st0" d="M328,217.8c-0.1-0.1-0.1-0.2-0.1-0.3c0,0.1,0,0.2,0,0.4C327.9,217.9,328,217.9,328,217.8z"/>
					<path class="st0" d="M258.4,103.9l-1.6-0.5C257.2,103.6,257.8,103.8,258.4,103.9z"/>
					<path class="st0" d="M154.2,183.2l-0.4,0.2C154,183.3,154.1,183.2,154.2,183.2z"/>
					<path class="st0" d="M251.8,102.1c-0.3-0.2-0.6-0.3-0.9-0.4c-0.1,0-0.2,0-0.2,0L251.8,102.1z"/>
					<path class="st0" d="M112.6,240.9L112.6,240.9L112.6,240.9z"/>
					<path class="st0" d="M115.4,251.9c-0.4-1.6-0.5-0.7-0.8-0.9c-0.6-1.9,0-0.9,0.1-1.6c-0.4-1.2-0.9-2-1.1-2.9
						c0-0.1,0-0.3,0.1-0.1c-0.6-1.2-0.7-3.8-1.2-5.2c0-0.1,0-0.2,0.1-0.2c-0.2,0.3-0.3,0.3-0.5,0.3c-0.1-0.7-0.4-1.3-0.2-1.6
						c0,0.5,0.1,0.5,0.2,0.7c-0.1-0.3-0.1-0.5-0.2-0.8c0.3-0.7,0.2,1,0.5,1c-0.3-1.5-0.7-3.2-0.6-4.4c0.3-0.3,0.3,2.7,0.5,1.1l0,1.8
						c0.4-1.4,0.1,1.1,0.5-0.2c-0.1-1.2-0.1-1.8-0.2-2.5c-0.1-0.6-0.2-1.3-0.1-2.5c-0.2-0.5-0.3,0.2-0.5-0.3
						c-0.2-1.7,0.1-2.3,0.3-2.9c0.2-0.5,0.4-1,0.3-2.2c-0.2-0.6-0.6-0.9-0.2-2.6l0.3,0.6c0.2-1.1,0.1-1.5,0-1.8
						c-0.1-0.3-0.1-0.7,0.3-1.9c0.1,0.4-0.2,1.8-0.1,1.4c0.6-1.5,0-1.1,0.2-2.3l0.4-0.2c0.5-2.3,0.9-5,1.8-7.5c0,0.2,0,0.6,0.3,0.1
						c1-3.2,3-6.5,5.1-8.9c0.1-0.4,0.3-0.8,0.5-1.1c0.2-0.2,0.4-0.3,0.3-0.1c0.9-0.9-0.1-0.2,0.2-0.7c0.4-0.6,0.7-0.6,0.5-0.2
						c0.3-0.5,0.7-1,1.1-1.6c0.5-0.6,1-1.2,1.5-1.7c0.6-0.6,1.1-1.2,1.7-1.7c0.6-0.5,1.2-0.9,1.7-1.2l-0.3,0.4
						c1.5-1.1,1.2-1.8,2.8-2.6l-0.2,0.2c3.2-2.3,7-4.6,9.9-5.7c0.3-0.6,3.6-1.6,3.6-2.2c2.2-0.7,1.7-0.3,4.7-1.5
						c0.8-0.3,1-0.9,2-1.4l0.2,0.3l1.2-0.9l0.9,0l0.9-0.5c-0.4,0.1-0.8,0.2-0.8,0.1c1.4-0.8,3.6-1.4,3.7-1.2l3.3-1.8
						c0,0.1-0.6,0.4-1,0.7c1.7-1.1,0.5,0.2,2-0.9c-0.3,0,0-0.2,0.1-0.3c0.9-0.2,2.8-1.1,4.1-1.9l-0.2,0.3c2.5-1.2,5.2-2.8,7.9-4.5
						c-1,0.5-1,0.1-0.2-0.5l0.5,0.1c0.4-0.5-0.9,0.4,0-0.5c1-0.6,0.9-0.1,0.4,0.3l1.1-0.9c0.1,0-0.1,0.3-0.1,0.4
						c0.2-0.2,0.8-0.5,1.3-0.8c0.6-0.3,1.1-0.7,1.4-1.1l0.1,0c1.3-0.9,2.2-1.6,3-2.4c0.8-0.7,1.5-1.4,2.5-2.3
						c-0.1-0.2,0.6-0.9,1-1.6c0.7-0.6,1.4-1.3,2.2-2c0.7-0.7,1.5-1.5,2.2-2.4c0.9-1.3,0.1-0.5,0.5-1.2c0.3,0.1,1.6-1.7,1.1-0.7
						c1.6-2.2,2.1-2.8,3.8-5.7c-0.3,0.2-0.6,0.6-0.5,0.3c0.3-0.5,0.9-1.1,0.9-1l-0.1,0.1c0.9-1.7,2.2-3.5,3.5-5.2
						c1.2-1.7,2.4-3.4,2.9-4.9l-0.1,0.2l1.3-2.9c0.7-1.2-0.3,0.9,0.4,0c1.3-3.2,2.6-4.7,3.7-7.3c1.7-1.5,3.7-6.7,5.6-9l-0.2,0.1
						c0.2-0.7,0.6-0.7,0.9-1.2c-0.2,0-0.6,0.6-0.4,0.2c3.1-5.6,7.3-10.9,11.7-15.5c0.8-0.8,0.9-1.2,1-1.6c0.2-0.4,0.4-0.9,1.7-1.6
						c-0.1,0.3-0.3,0.5-0.4,0.8c1.6-1.7,3.6-3,5.7-3.7c2.2-0.7,4.5-0.9,6.7-1.1c-0.3,0.1-0.3,0.2-0.7,0.2c0.9,0.2,3.5,0.2,3.6,0
						c0.7,0.1,0.1,0.2,0.6,0.3c0.9,0.2,2.5,0,3,0.4c0.1,0.1-0.3,0-0.5,0c0.7,0,2.9,0.6,2.4,0.2c0.9,0.2,1.7,0.3,2.5,0.5
						c0.8,0.1,1.5,0.3,2.2,0.5c1-0.1,2.9,0.8,3.3,0.5c-0.2,0.4,2.9,1.2,4,1.3c-0.4,0,0.9,0.4,0.4,0.5c1.2,0.3,2.3,0.7,2.2,0.4
						c2,1.3,4.6,1.2,5.5,2.4c1.8,0.6,3.5,1.2,5.1,1.9c1.6,0.7,3.2,1.3,4.7,2.2c-0.2,0.2-1-0.3-1.8-0.7c-0.8-0.4-1.6-0.7-1.6-0.5
						c0.7,0.3,1.4,0.6,2,0.8c0.6,0.3,1.2,0.5,1.8,0.8c1.1,0.5,2.3,1,3.6,1.9c0.7,0.5-0.5-0.1-0.8-0.2c1.4,0.8,2.7,1.6,4,2.4
						c1.3,0.8,2.4,1.7,3.7,2.4c0,0-0.3-0.1-0.6-0.2c0.5,0.3,1,0.8,1.1,0.6l-0.5-0.3c-0.6-0.8,2.2,0.8,2.4,0.7
						c-1.1-0.1,2.2,1.9,0.5,1.5c0.3,0.2,0.7,0.4,0.8,0.2c0.4,0.4,0.5,0.5,0,0.3c1.7,1.2,1.3,0.5,2.7,1.7c-0.1,0.1-0.4-0.1-0.6-0.2
						c0.8,0.5,1.7,0.9,2.8,2c-0.1,0,0,0.2-0.4-0.1c2.1,1.7,3.7,2.7,5.7,4.8c-0.5-0.1-0.3,0.1-0.1,0.3c0.2,0.3,0.6,0.7,0.5,0.9
						l1.1,1.1l-0.3-0.6c0.9,1,2,1.7,2.7,2.7c-0.3-0.2-0.5-0.4-0.8-0.7c0.6,0.6,1.2,1.3,1.7,1.9l-0.8-1.2c1,0.9,0.3-0.4,1.4,1.1
						c-0.3-0.3,0.9,1.1,1.2,1.8l0,0c0.5,0.4,1.1,0.9,1.6,1.8c0.1,0.3-0.5,0.1-0.4,0.3c0.6,0.3,2,2.5,2.8,3c-0.2-0.2-0.4-0.1-0.4,0
						l0.5,0.3c0.3,0.6,0.3,0.7,0.1,0.7c1,1.6,0.1-0.8,1.1,1.2c-0.1-0.1-0.1,0-0.3-0.3c0.6,1,1.2,1.9,1.9,2.8
						c0.6,0.9,1.2,1.8,1.6,2.7c0,0.7-1-1.5-0.9-0.8c0.8,1.3,1.7,2.6,2.5,3.9c0.8,1.3,1.6,2.7,2.2,4c-0.1-0.2-0.1-0.3-0.2-0.5
						c0.7,0.1,0.7,2.1,1.5,3.4c-0.2-0.3-0.5-0.3-0.4-0.3c0.4,0.9,0.8,1.8,1.3,2.9c0.5,1.1,1,2.2,1.6,3.6l-0.3-0.3
						c0.3,1.1,0.9,3,1.3,4.2c0.2,0.3,0.4,1,0.5,0.5c0.4,4,2.4,7.2,2.5,10.7c-0.1-0.4-0.3-1-0.3-0.6c0.2,1,0.5,1.9,0.7,2.9
						c0.2-0.3,0.1-0.4,0.1-1.1c0.2,0.3,0.4,1.2,0.6,1.9c-0.4-1.3-0.4,0.1-0.4,0.7c0.1-0.1,0.2,0.1,0.2,0c-0.2,1.6,0.5,0.2,0.5,2.3
						l-0.1-0.1c0.2,0.8,0.4,1.5,0.5,2.4c-0.2,0.4-0.2-0.8-0.4-0.9c0.1,1.2,0.7,2.3,0.6,3.4c-0.1-0.5-0.2-1.2-0.3-1.7
						c-0.2,1.2-0.1,1.3-0.1,2.2l0-0.1c0,0.7,0,1.4,0,2l0.1-0.5c0.8,1.5,0.3,3.1,0.8,5.1c-0.5-2-0.3-0.3-0.6-0.5
						c-0.1,0.5-0.2,1.3-0.3,1.1c0.2,1-0.2,1.6,0.2,3c-0.1,0.1,0,1-0.3,0.8c0.1,1.2,0.2-0.3,0.3-0.2c0.2,1,0,2.1-0.2,3.3
						c-0.2,1.2-0.3,2.6-0.2,4c-0.1,2.4,0.2,2.9,0.1,5.1c-0.3,0.7-0.2-0.7-0.3-0.7c-0.3,1.2-0.5,2.1-0.5,3.2c0-0.2-0.2,0-0.3,0.3
						c-0.1,0.9,0.2,0.7-0.1,1.8c-0.1-0.2-0.2-0.5-0.2-1c-0.1,1.1-0.1,2.1-0.3,3.3c-0.2,0.3-0.1-0.7-0.1-1.1
						c-0.2,1.2-0.6,3.2-0.4,3.6l0.3-0.8c-0.1,0.4-0.3,0.2-0.3-0.2c0-1.1,0.4-1.5,0.5-1.5l-0.1,0.8c0.7-0.7,0.6-3.1,0.9-4.7l0.3,0.7
						l-0.1-1.7c0.2-0.3,0.4-0.5,0.4,0.3c0.4-1.1,0-1,0.4-2c0.1-0.1,0.1-0.1,0.1,0.1c0-0.4,0.1-0.8,0.1-1.1c0.1,0.2,0.3-0.1,0.2,0.5
						c0.5-2,0.1-3.3,0.5-4l0,0.2c0.2-2.8-0.2-0.3-0.4-2.4l0.8-1.4l-0.3-0.3c0-0.3,0.1-0.9,0.2-0.7c-0.1-1.1-0.1,0.2-0.3-0.5
						c0.2-0.7,0.2-1.6,0.2-2.5c0-0.8,0-1.5,0.3-1.7c-0.2-0.5-0.2,1.3-0.3-0.2c0.5-0.4-0.1-1.7,0.2-3c0.3,0.4,0.1,1.6,0.4,0.3
						c-0.4-0.8,0-2.5-0.1-3.6c-0.4,0-0.2-2.3-0.6-4.1c0.1,0.1-0.1-3.4-0.2-5.1l0.1,0c-0.4-0.3-0.6-2-0.9-3.2c0.2,0,0.3,0.2,0.5,0.9
						l-0.2-1.2c-0.2-0.3-0.3-0.6-0.5-1.4l0.3,0.2c-0.3-1.5-1-3.1-1.2-5.1c-0.3,0-0.3,1.7-1-0.3c0.1-0.1,0.3-0.2,0.5,0.3
						c-0.1-0.2-0.3-0.6-0.3-1l0.4,0.8c-0.1-0.9-0.3-0.4-0.5-1.1c0.2,0,0-0.6,0.2-0.5c0.1,0.2,0.1,0.6,0.2,0.9
						c-0.2-0.8-0.3-1.8-0.3-2.2c-0.1,0.1-0.3,0.1-0.4-0.5c-0.4-1.5,0.1-0.6,0-1.5c-0.2-0.3-0.4-1.3-0.7-1.3c-0.1-0.4,0-0.6,0-0.8
						c-0.4-0.7-1.2-3.6-1.2-2.7l0,0.2c0,0,0-0.1-0.1-0.1c0,0,0,0,0,0l0,0c-0.5-1.2-1-2.5-1.5-3.8c-0.2-0.7-0.4-1.3-0.7-2
						c-0.2-0.6-0.5-1.3-0.8-1.9l0.1,0c-0.8-1.4-1.4-3.2-2.2-4.1c-0.2-0.4-0.3-1.1-0.1-0.9c-0.6-1-0.8-1.1-1.4-2.8
						c0.7,1-0.1-0.4,0.7,1.1c-0.3-0.7-0.5-1.2-0.7-1.6c-0.2-0.4-0.5-0.9-1.1-1.5c0.5,0.4-0.3-1.2-0.8-1.8l0.4,1
						c-0.5-0.7-0.8-1.4-1.2-2l0.5,0.2c-0.6-1.5-1.7-2.6-2.5-3.7c-0.4-0.5-0.8-1-1.2-1.6c-0.4-0.5-0.7-1-0.9-1.6
						c-0.7-0.5,0.9,1.5,0.2,1.1c-0.8-1.2-1.4-2.7-1.7-3.1c-1.1-1.8-1.6-1.2-2.8-2.9c0.1,0.3,0,0.7-1.1-0.5c-0.9-1.2-0.8-1.7-0.1-1.1
						c0.2,0.3,0.3,0.4,0.3,0.4c0.3,0.3,0.8,0.8,0.5,0.3l-0.2-0.1c-0.2-0.3-0.6-0.9-0.9-1.3c-0.3-0.4-0.6-0.7-0.3-0.6
						c-0.9-0.7-0.5-0.2,0,0.4c-1.2-1.5-2-2.2-3.3-3.7c0.2,0.3,0.3,0.6,0.1,0.4c-1.9-2.1-1.1-0.7-2.5-2c-0.7-0.9,0.6,0-0.9-1.3
						c-0.8-0.9,0-0.4,0.4-0.1c-0.7-0.5-1.3-1.1-1.8-1.7c-0.5-0.5-0.9-1-1.3-1.4l0.8,0.5c-0.5-0.3-0.8-0.6-1.2-0.9l0.3,0.5
						c-0.4-0.4-0.7-0.7-0.7-0.8c-0.5-0.3,0.1,0.6-0.9,0c-0.5-0.6-1.8-1.3-1.8-1.7c1.8,1.5,0-0.4,1.6,0.8c-0.3-0.2-0.7-0.5-1.1-0.9
						c0-0.1,0.1,0,0.2,0.1c-1.6-1.6-1-0.4-2.8-1.8c0.3,0-0.2-0.6-0.5-0.8c0.7,0.6,0.2,0.5-0.6,0.1c-1.1-1-1.4-0.8-2-1.3l0.7,0.6
						c-0.3,0-0.9-0.5-1.8-1c0-0.2,0.8,0.5,0.6,0.2c-0.6-0.2-1-0.6-1.6-1.1c-0.5-0.5-1.1-0.9-1.9-1.3c-0.6-0.5,0.1-0.3-0.4-0.7
						c-1.7-0.7-1.5-1.3-3.2-2c0.4,0.5,0.5,0.5-0.8,0l1.4,0.7l1.4,0.7c-0.6-0.2-1.2-0.5-1.9-0.7c0.8,0.4,1.8,0.9,2.2,1.2
						c-0.9-0.3-0.8-0.3-0.5,0.1c-0.9-1-2.3-1.1-3.4-2l0.3-0.5c-0.9-0.7-1.8-1.1-2.8-1.5c-1-0.4-2.1-0.8-3.3-1.5l0.8,0.5
						c-0.4,0-1.6-0.7-2.5-1.1c0.2-0.2-0.3-0.4-0.7-0.7c0,0.2-1.9-0.8-2.3-0.6l-1.1-0.7c-2.1-1-2.7-0.4-4.7-1.2
						c0.7,0-0.2-0.5,1.3-0.1c-0.7-0.3-1.3-0.5-1.4-0.4c-0.2-0.1-0.7-0.2-1.2-0.4c-0.5-0.1-1.1-0.2-1.4-0.4c-0.3,0-0.5,0.2-1.3-0.1
						c-0.1-0.1,0-0.1,0-0.1c0,0.1-1.3-0.2-0.7,0.2c-0.5-0.3-1.1-0.6-1.8-0.8c-0.7-0.2-1.5-0.4-2.2-0.6c-1.5-0.3-3-0.7-3.9-1.1
						c-1.6-0.2-3.5-0.5-5-0.8c0.1,0,0-0.1,0.3,0c-2-0.5-1.3,0.4-3.6-0.1c-1.2-0.4,1.2-0.1,0.5-0.2c-0.3-0.7-2.8-0.2-4.4-0.5l0.4,0
						c-1.2-0.2-3,0.3-4.9,0.7c0,0,0.1-0.1,0-0.1c-0.6,0.3-1.6,0.7-2.5,1.2c-0.9,0.5-1.9,1.1-2.7,1.6c0.4-0.5,0.7-0.6,0.2-0.6
						c-0.7,0.5,0.4,0.2-0.9,1.2c-0.5,0.2-1.6,0.9-1.9,0.8c0.4-0.4,0.8-0.7,1.3-1c-0.9,0.2-1.6,1.3-2.3,1.9l0-0.2
						c-0.9,0.9-1.2,1.4-1.6,1.9c-0.4,0.5-0.8,1.1-1.6,2.1l0.3-0.1c-0.6,1.3-0.9,0.8-1.6,2.1l-0.6,0.1c-0.6,0.8-1.7,2.8-2.6,4.2
						c0.3-0.9,1.3-2.6,2-3.7c-0.6,0.7-1.9,2.6-2,3.1c0.2-0.3,0.4-0.8,0.7-1c-0.4,1.1-1.2,2.4-2.2,3.9c-0.2-0.4-0.9,0.6-1.7,1.8
						c-0.8,1.2-1.6,2.6-2.2,3c-1.5,2.9-3.4,5.5-5.2,8.9c1.2-0.9-0.5,1,0.1,1.1c-0.4,0.8-0.6,1.1-0.6,1.1l-1.6,2.2
						c-0.5,0.5,0.3-0.8,0.1-0.8c-1,1.7-0.6,0.6-1.4,1.6c0.3-0.1-0.1,0.7-0.7,1.7l1-1.2c-1,2.5-1.6,1.8-2.6,4.3l0.3-0.8
						c-0.6,1.3-2.5,4.5-2.8,5.9c-0.2,0.2-0.5,0.4-0.2-0.2c-0.4,0.7-0.9,1.5-1.3,2.3c-0.4,0.8-0.9,1.6-1.3,2.3
						c-0.8,1.6-1.7,3-2.6,3.9l0-0.3c-0.3,0.5-0.4,1-0.9,1.6c0-0.1,0-0.3-0.1-0.1c-0.1,0.3-0.8,1.5-1.3,2.1l0.3-0.7
						c-2.1,2.5-2.7,4.1-4.4,6.2c-0.3-0.3-2.2,1.4-3.1,2.2l0-0.1c-0.6,0.7-1.3,1.2-1.9,1.8c-0.6,0.6-1.1,1.1-1.7,1.7
						c-1.1,1.1-2.3,2.1-3.6,3.2c-1.1,0.4-2.6,1.4-4.3,2.4c-1.7,1-3.6,2-5.2,2.7c0.5-0.2,0.1,0.3-0.4,0.7c-0.8,0.3-1.9,1.3-1.9,0.9
						l0.3-0.1c-0.7-0.1-2.2,0.7-3.4,1.3l0,0.6c-3.4,0.7-8.1,4-10.1,4.1c-0.7,0.5-1.7,0.9-2.4,1.4l-0.1-0.3c-2.1,0.9-3.2,1.3-5.8,2.7
						l0.4-0.4c-1.5,0.7-1.5,1.6-2.8,2.4l-0.6-0.2c-2.5,1.3-5.2,2.5-7.3,4.4c0-0.1,0-0.2,0.4-0.5c-0.6,0.4-1.7,1.1-2.5,1.7
						c-0.9,0.6-1.5,1.3-1.1,1.3c-0.1-0.1-0.7,0.3-1.4,1c-0.3,0.3-0.7,0.7-1.1,1c-0.3,0.4-0.6,0.7-0.9,1l0-0.4
						c-0.7,1.2-0.6,1.3-1.9,2.6c-0.3,0.3-0.4,0.1,0-0.2c-1.1,1-0.5,1-1.8,2.3l0.3-0.6c-1,1.1-0.8,1.1-1.2,1.8
						c-0.5,0.8-1.7,2.2-2,2.3c0,0.3-0.2,1.1-0.7,1.8c-0.1,0.1,0-0.2,0-0.4c-0.7,1-1.1,1.9-1.4,2.6c-0.3,0.8-0.6,1.4-1,2.2
						c-0.1,0-0.2,0.1-0.3,0.2c0.8-1.8,1.6-3.2,1.5-3.1c-0.2-0.1-1,1.3-0.7,0c-0.2,0.6-0.5,1.5-0.7,2.3c-0.3,0.9-0.6,1.8-0.9,2.5
						c0,0.1-0.1,0.1-0.2,0.2l0-0.2c-0.1,0.3-0.2,0.6-0.3,0.9c-0.2,0.5-0.4,0.7-0.5,1.2c-0.2,0.1-0.7,1.7-0.9,2.5c0.3,0,0,1,0.5,0.1
						c0,0.1,0-0.2,0.1-0.7c0-0.1,0.1-0.3,0.1-0.3c0,0,0,0,0,0.1c0.1-0.5,0.3-1.1,0.6-1.9c0,0.6-0.1,1.3-0.5,2.1
						c0.1,0.4,0.1,0.9,0.2,1.2c-0.3,0.5-0.7,1.2-0.9,1.8c-0.3,0.7-0.5,1.2-0.6,1.3c-0.2,1.2-0.3,2.6-0.4,3.9c0,1.3-0.1,2.5,0.2,3.3
						c0,0.7-0.2,0.8-0.3,1c0-0.4,0-0.9-0.1-1.1c0,0.7,0,1.7,0,2.6c0,0.9,0.1,1.6,0.3,1.8c-0.2,1.7-0.4-1-0.3,1.4l-0.1-0.3
						c-0.2,2.3,0.2,4.2,0.6,6.1c0.2,1,0.4,1.9,0.7,3c0.2,1.1,0.4,2.2,0.4,3.5c0-0.4,0-0.5,0-0.6c0.8,5.8,3.4,11.6,5,17.1
						c0.5,1.6,0.8,1.6,1.3,2.5l-0.1,0.4l1,1.4c1.2,2.1,1,4.1,2.7,6.7l0-0.4c0.4,1,1.6,3.1,1.3,3c0.1,0.1,0.3,0.2,0.4,0.7l-0.1,0.1
						l1.4,2.3c0.8,1.9-0.7,0,0.6,2.7c0.6,1,1.8,2.7,1.7,2.3c-0.2-0.4-0.4-1.1-0.3-1.2l0.5,0.9c0.5,0,1.3,0.5,0.4-2l-1-1.5l0-0.6
						l0.7,1.3c-0.2-0.9-0.6-1.3-1-1.7c0-0.2,0-0.4-0.1-0.8l-1.2-1.4c0.1-0.3,0.7,0.5,0.2-0.5c-0.5-0.6,0,0.9-0.7-0.3
						c-0.2-0.9,0.1-0.7-0.5-1.5c0-0.2,0.2,0,0.4,0.3c-0.5-0.7-1.1-2.1-1.5-2.4c-0.1-0.9-1.3-2.7-0.9-2.8c-0.2-0.2-1-1.3-1.3-2
						c1.1,1.1-1.2-2.8-0.5-2.7c-0.9-0.8-1.7-3.6-2.6-5.3c0.1,0.1,0.2,0.3,0.3,0.4c-0.3-1-0.3-1.4-0.5-2.1c-0.4,0-1.1-1.6-1.6-2.4
						c-0.1-1.4,0.7,0.6,0.9,0.1c-0.3,0.2-1-2.1-1.1-1.6c-0.1-1-0.2-0.9,0-1.5c-0.5,0-0.4-0.9-0.9-1.6c-0.2-1.5,0.3-0.5-0.2-2
						C114.9,250.6,115.4,251.9,115.4,251.9z M115.3,214.4L115.3,214.4c-0.1,0.3-0.2,0.6-0.3,0.7
						C115.1,214.9,115.2,214.7,115.3,214.4z M116.6,211.4c-0.2,0.3-0.4,0.8-0.6,1.3c-0.1,0.1-0.2-0.1,0-0.4
						C116,212.5,116.3,211.8,116.6,211.4z M112.3,217.2c0.1-0.5,0.2-0.7,0.3-0.7c-0.1,0.2-0.1,0.5-0.2,0.9c0,0,0,0.1,0,0.1
						C112.3,217.4,112.3,217.3,112.3,217.2z"/>
					<path class="st0" d="M112.4,218.2c0,0.1,0,0.1,0,0.2c0.1-0.1,0.1-0.2,0.2-0.3c0-0.1,0-0.1,0-0.2
						C112.4,218,112.4,218.1,112.4,218.2z"/>
					<path class="st0" d="M325.1,166.2L325.1,166.2C325.1,166.2,325.1,166.3,325.1,166.2C325.1,166.2,325.1,166.2,325.1,166.2z"/>
					<polygon class="st0" points="150.9,184.8 150.9,184.7 150.7,184.9 					"/>
					<path class="st0" d="M328.4,183.9c0,0,0,0.1,0,0.2C328.4,184.1,328.4,184,328.4,183.9z"/>
					<path class="st0" d="M329.3,191.6c0,0.4,0,0.7,0,1.1C329.3,192.2,329.3,191.8,329.3,191.6z"/>
					<path class="st0" d="M329.5,197.5c0.1,0.1,0.1,0.1,0.1,0.1l0,0L329.5,197.5z"/>
					<path class="st0" d="M286.6,117.6c-0.1,0-0.1-0.1-0.2-0.1C285.9,117.2,286.2,117.4,286.6,117.6z"/>
					<path class="st0" d="M307.5,136.1c-0.2-0.2-0.5-0.4-0.7-0.6C307.1,135.9,307.4,136.2,307.5,136.1z"/>
					<path class="st0" d="M258.6,104L258.6,104c-0.1,0-0.1,0-0.2-0.1L258.6,104z"/>
					<path class="st0" d="M306,134.5c0.3,0.4,0.6,0.7,0.8,1C306.6,135.2,306.3,134.8,306,134.5z"/>
					<path class="st0" d="M326.8,223l-0.1,0.3c0,0,0,0,0,0L326.8,223z"/>
					<path class="st0" d="M326.7,223.3l0,0.3C326.7,223.5,326.8,223.3,326.7,223.3z"/>
					<path class="st0" d="M326.6,224.3l0.1-0.7C326.6,223.8,326.6,224.1,326.6,224.3z"/>
					<path class="st0" d="M328.4,215.3l-0.1-0.1C328.3,215.2,328.3,215.3,328.4,215.3z"/>
					<path class="st0" d="M328.7,212.9c-0.1,0.6-0.4,1.4-0.5,2.2l0.1,0.1c0-0.2,0.1-0.6,0.2-1.1
						C328.6,213.7,328.7,213.2,328.7,212.9z"/>
					<path class="st0" d="M330.7,203c0,0.7-0.1,1.3-0.2,2c0.1-0.3,0.3-0.8,0.3,0.1C331.3,202.6,330.6,205.7,330.7,203z"/>
					<path class="st0" d="M330.9,196.8c0.1,1.1,0.2,0,0.2,0C330.9,196.1,330.9,195.9,330.9,196.8z"/>
					<path class="st0" d="M319.8,153.1l0.3,0C319.6,152.3,320,153.1,319.8,153.1z"/>
					<polygon class="st0" points="314.4,146.2 314.7,147 315.1,147.2 					"/>
					<path class="st0" d="M313.1,140.9l0.2,0.3c-0.3-0.4-0.6-0.7-0.9-1.1C312.7,140.4,312.9,140.7,313.1,140.9z"/>
					<path class="st0" d="M250.8,99.3l0.2,0.4C251.5,99.8,251.7,99.5,250.8,99.3z"/>
					<path class="st0" d="M220.3,106.7c-0.3,0.2-1,0.8-1.3,1.4C219.5,107.5,220.1,107,220.3,106.7z"/>
					<polygon class="st0" points="157.8,178.9 158.3,178.6 157.3,179.1 					"/>
				</g>
			</g>
		</g>
	</g>
</g>
<g>
	<g>
		<g>
			<g>
				<g>
					<path class="st0" d="M331.2,129c0.1,0.2,0.3,0.1,0.2-0.4l-0.3-0.3L331.2,129z"/>
					<path class="st0" d="M331.7,125.8c-0.2-0.6-0.6-1.2-0.8-0.8c0.4,0.5,0.3,0.7,0.7,1.2c0.1,0.5-0.1,0.9-0.2,0.8
						c0.1,0.2,0,0.8,0.2,1c0.2-0.6,0.2-1.4-0.1-2.3C331.5,125.6,331.6,125.7,331.7,125.8z"/>
					<path class="st0" d="M312.4,82.8l0.1,0.3C312.5,83,312.4,82.9,312.4,82.8z"/>
					<path class="st0" d="M295.9,58.3c0.1,0.2,0.2,0.2,0.2,0.2C296,58.4,295.8,58.2,295.9,58.3z"/>
					<path class="st0" d="M293.3,53.9c0.1,0.1,0.1,0.2,0.1,0.3C293.4,54.1,293.4,54,293.3,53.9z"/>
					<path class="st0" d="M312.4,82.8l-0.4-0.7C311.9,82.1,312.2,82.4,312.4,82.8z"/>
					<path class="st0" d="M329.9,119.5c0.1,0.2,0.1,0.3,0.2,0.4L329.9,119.5C329.9,119.5,329.9,119.5,329.9,119.5z"/>
					<path class="st0" d="M319.8,93.5l0.1,0.2c0.1,0,0.1,0.1,0.2,0.1L319.8,93.5z"/>
					<path class="st0" d="M324.9,102.1c-0.1-0.2-0.4-0.1-0.5-0.2c0.2,0.1,0.3,0.2,0.4,0.3C324.8,102.3,324.9,102.2,324.9,102.1z"/>
					<path class="st0" d="M330.5,117l0.1,0.3C330.5,117.2,330.5,117.1,330.5,117z"/>
					<path class="st0" d="M315.9,87.4c0,0,0-0.1,0-0.1C315.9,87.3,315.9,87.4,315.9,87.4z"/>
					<path class="st0" d="M192.3,137.9C192.3,137.9,192.3,137.9,192.3,137.9C192.4,137.9,192.4,138,192.3,137.9z"/>
					<path class="st0" d="M196.4,148.7l-0.1-0.1c-0.1,0-0.1,0-0.2,0.1L196.4,148.7z"/>
					<path class="st0" d="M288.4,46.1C288.4,46.1,288.4,46.1,288.4,46.1C288.6,46.3,288.5,46.2,288.4,46.1z"/>
					<path class="st0" d="M221.9,10.9c1-0.3-1.2,1.1,0.2,0.6C221.9,11.4,223,10.4,221.9,10.9z"/>
					<path class="st0" d="M329.9,119.2l-0.1-0.4C329.8,119,329.8,119.1,329.9,119.2z"/>
					<path class="st0" d="M222.1,11.5L222.1,11.5l0.1-0.1C222.1,11.4,222.1,11.4,222.1,11.5z"/>
					<path class="st0" d="M276.3,28.7c0,0.1,0,0.2,0,0.2C276.3,28.9,276.3,28.9,276.3,28.7z"/>
					<path class="st0" d="M284.9,42l-0.2-0.3C284.8,41.8,284.8,41.9,284.9,42z"/>
					<path class="st0" d="M271.2,22.2c-0.1-0.2-0.1-0.3-0.3-0.5c0,0,0,0.1,0,0.1C271,21.8,271.1,21.9,271.2,22.2z"/>
					<path class="st0" d="M265.7,15.5c0,0,0,0.1,0.1,0.2c0.1,0.1,0.1,0.1,0.2,0.2L265.7,15.5z"/>
					<path class="st0" d="M185.3,113.2c0,0.2-0.1,0.3-0.2,0.4C185.3,113.5,185.6,114.7,185.3,113.2z"/>
					<path class="st0" d="M330,119.4c-0.1,0-0.1-0.1-0.2-0.2C329.9,119.3,329.9,119.4,330,119.4C330,119.5,330,119.5,330,119.4z"/>
					<path class="st0" d="M269.2,23.2l-0.8-1.1C268.6,22.4,268.9,22.8,269.2,23.2z"/>
					<path class="st0" d="M183.9,53.1l-0.1,0.3C183.9,53.3,183.9,53.2,183.9,53.1z"/>
					<path class="st0" d="M265.9,19.1c-0.1-0.2-0.2-0.5-0.4-0.7c-0.1,0-0.1-0.1-0.2-0.1L265.9,19.1z"/>
					<path class="st0" d="M185.1,113.7L185.1,113.7L185.1,113.7z"/>
					<path class="st0" d="M187.6,122.2c-0.3-1.2-0.5-0.5-0.8-0.7c-0.5-1.5,0.1-0.8,0.2-1.3c-0.3-0.9-0.8-1.6-0.9-2.3
						c0-0.1,0-0.2,0.1-0.1c-0.5-0.9-0.6-2.9-1.2-4c0-0.1,0-0.1,0.1-0.2c-0.1,0.2-0.3,0.3-0.5,0.3c-0.1-0.6-0.4-1-0.2-1.3
						c0.1,0.4,0.2,0.4,0.3,0.5l-0.2-0.6c0.2-0.6,0.3,0.8,0.5,0.7c-0.3-1.1-0.8-2.5-0.9-3.4c0.3-0.2,0.4,2.1,0.6,0.8l0.1,1.4
						c0.3-1.1,0.1,0.8,0.5-0.2c-0.2-1.8-0.5-2-0.7-3.8c-0.3-0.4-0.3,0.2-0.5-0.2c-0.7-2.5,0.6-2.2-0.2-4c-0.3-0.5-0.7-0.6-0.7-2
						l0.4,0.4c-0.2-1.8-0.7-0.9-0.6-2.8c0.2,0.3,0.3,1.4,0.3,1.1c0.2-1.2-0.3-0.8-0.4-1.8l0.3-0.2c-0.3-1.9-0.7-3.9-1-6
						c0.1,0.1,0.3,0.5,0.3,0c-0.4-2.6-0.6-5.7-0.6-8.2l-0.4-0.9c0-0.2,0.1-0.4,0.2-0.2c0-1-0.2,0-0.3-0.5c-0.1-0.6,0.1-0.8,0.2-0.4
						c-0.4-1.7-0.9-5-0.7-6.8l0.1,0.4c0.1-1.4-0.7-1.6-0.4-2.9l0.1,0.3c0.1-3.1,0-6.6,0.7-8.9c-0.4-0.5,0.6-3,0.1-3.3
						c0.6-1.7,0.6-1.2,1.4-3.5c0.2-0.6-0.1-1,0.1-1.8l0.3,0.1l0-1.2l0.6-0.4l0.2-0.7c-0.1,0.3-0.4,0.6-0.4,0.5
						c0.3-1.2,1.3-2.6,1.4-2.6c0.3-0.9,0.6-1.8,1-2.6c0.1,0.1-0.1,0.5-0.2,0.9c0.4-1.5,0.4-0.1,0.8-1.4c-0.2,0.1-0.1-0.2-0.2-0.2
						c0.5-0.5,1.3-1.8,1.9-2.8l0.1,0.3c1.2-1.7,2.5-3.7,4-5.5c-0.6,0.6-0.8,0.2-0.4-0.4l0.4,0c0.1-0.5-0.6,0.5-0.2-0.4
						c0.6-0.6,0.7-0.2,0.4,0.2l0.6-0.9c0.1,0,0,0.2,0,0.4c0.1-0.5,1.5-1.2,1.7-1.9l0.1,0c1.6-1.7,2.3-2.6,3.7-4
						c-0.2-0.2,0.4-0.7,0.7-1.3c1.1-0.9,2.4-1.9,3.7-3.1c0.8-0.9,0.1-0.4,0.4-0.9c0.2,0.1,1.5-1.1,1-0.3c1.5-1.4,1.9-1.8,3.7-3.8
						c-0.3,0.1-0.6,0.3-0.5,0.1c0.3-0.4,0.9-0.6,0.9-0.5l-0.1,0.1c2-2.3,5.6-3.8,7.2-5.6l-0.1,0.1c0.6-0.6,1.2-1.1,1.8-1.7
						c0.9-0.6-0.4,0.5,0.3,0.2c1.9-1.8,3.4-2.2,5.1-3.6c0.9-0.1,2.2-0.8,3.5-1.5c1.4-0.7,2.8-1.4,3.9-1.5L230,9.8
						c0.5-0.4,0.7-0.1,1.1-0.2c-0.1-0.1-0.6,0.1-0.3-0.2c4.5-1.8,9.8-2.2,14.6-1.6c1.7,0.2,1.1-0.8,3.3,0L248,7.9
						c1.8,0.1,3.6,0.6,5.3,1.3c1.7,0.7,3.3,1.6,4.8,2.4c-0.2,0-0.3,0-0.6-0.2c0.5,0.6,2.3,1.6,2.4,1.4c0.4,0.4,0,0.2,0.2,0.5
						c0.5,0.6,1.7,1,1.8,1.4c0,0.1-0.2-0.1-0.3-0.2c0.5,0.2,1.7,1.6,1.5,1.1c0.4,0.5,0.9,0.9,1.4,1.4c0.4,0.4,0.9,0.8,1.1,1.3
						c0.7,0.3,1.4,1.9,1.9,1.8c-0.4,0.2,1.2,2.1,1.9,2.7c-0.3-0.1,0.3,0.7,0,0.5c0.6,0.8,1.2,1.5,1.3,1.2c0.6,1.8,2.5,2.7,2.5,4
						c1.9,2.3,3.6,4.5,5.1,6.6c-0.4,0.2-1.7-2.4-2-2c1.6,2,2.7,3,4,5.1c0.3,0.6-0.4-0.2-0.6-0.3c1.6,2,2.7,4.1,4.2,5.8
						c0,0-0.2-0.2-0.4-0.3c0.3,0.4,0.5,0.9,0.7,0.7l-0.3-0.3c-0.2-0.8,1.5,1.1,1.7,1.1c-0.9-0.3,1.1,1.9-0.2,1.3
						c0.2,0.2,0.5,0.5,0.6,0.3c0.2,0.4,0.2,0.5-0.2,0.3c1,1.2,0.8,0.7,1.7,1.8c-0.1,0.1-0.3-0.2-0.5-0.2c0.6,0.5,1.1,1,1.8,2
						c-0.1,0-0.1,0.1-0.3-0.2c1.2,1.7,2.4,2.6,3.6,4.6c-0.7-0.3,0.3,0.7,0.1,1l0.8,1l-0.1-0.5c0.6,0.9,1.4,1.5,1.8,2.4l-0.6-0.6
						l1.2,1.6l-0.5-1c0.8,0.8,0.3-0.4,1,0.9c-0.2-0.2,0.6,0.9,0.7,1.5l0,0c0.4,0.4,0.8,0.8,1.2,1.5c0,0.2-0.4,0.1-0.4,0.3
						c0.6,0.3,1.5,2,2.1,2.4c-0.2-0.1-0.4,0-0.4,0l0.5,0.2c0.2,0.5,0.2,0.5,0,0.6c0.8,1.3,0.1-0.7,1,0.9c-0.1-0.1-0.1,0-0.3-0.2
						c0.9,1.5,2.1,2.8,2.9,4.2c0,0.6-0.9-1.1-0.8-0.5c1.4,1.9,3.1,3.8,4.4,5.7l-0.2-0.4c0.6,0,0.7,1.6,1.6,2.4
						c-0.2-0.2-0.5-0.1-0.4-0.1c0.8,1.3,1.9,2.6,3.4,4.5l-0.3-0.2c0.4,0.8,1.3,2.1,1.8,2.9c0.3,0.2,0.6,0.7,0.6,0.3
						c1.1,3,3.6,4.6,4.6,7.3c-0.2-0.3-0.5-0.6-0.4-0.4l1.4,1.9c0.1-0.3,0-0.3-0.2-0.8c0.3,0.2,0.7,0.7,1,1.2
						c-0.7-0.8-0.3,0.2-0.2,0.7c0-0.1,0.2,0,0.2-0.1c0.3,1.3,0.5-0.1,1.1,1.5l-0.1,0c0.4,0.5,0.8,0.9,1.1,1.5
						c-0.1,0.4-0.4-0.5-0.7-0.4c0.5,0.8,1.4,1.4,1.6,2.2c-0.3-0.3-0.6-0.8-0.8-1.1c0.2,1,0.3,1,0.6,1.6l0-0.1l0.6,1.5l-0.1-0.4
						c1.2,0.7,1.2,2,2.4,3.3c-1.1-1.2-0.3-0.1-0.7-0.1c0.1,0.4,0.3,1,0.1,0.9c0.6,0.6,0.4,1.2,1.1,2c-0.1,0.1,0.3,0.7,0,0.7
						c0.5,0.8,0.1-0.3,0.2-0.3c0.9,1.2,1,3.4,2.1,5.2c0.8,1.7,1.2,1.9,1.8,3.5c0,0.6-0.5-0.4-0.5-0.4c0.2,0.9,0.3,1.6,0.6,2.4
						c-0.1-0.2-0.2,0-0.2,0.3c0.2,0.7,0.5,0.4,0.5,1.3c-0.1-0.1-0.3-0.3-0.5-0.6c0.3,0.8,0.6,1.6,0.8,2.4c-0.1,0.3-0.3-0.5-0.5-0.7
						c0.1,0.5,0.3,1.1,0.4,1.6c0.1,0.5,0.3,1,0.4,1.1l0-0.6c0.1,0.4-0.2,0.2-0.3,0c-0.3-0.8-0.1-1.2,0-1.3l0.2,0.6
						c0.4-0.7-0.5-2.4-0.8-3.6l0.5,0.4l-0.6-1.2c0-0.3,0.2-0.5,0.4,0.1c0-0.9-0.3-0.7-0.3-1.5c0-0.1,0-0.1,0.1,0
						c-0.1-0.3-0.2-0.5-0.4-0.8c0.1,0.1,0.2-0.2,0.3,0.3c-0.2-1.6-1-2.3-0.9-3l0.1,0.1c-0.9-2-0.4-0.1-1.3-1.5l0.3-1.3l-0.4-0.1
						c-0.1-0.2-0.2-0.6-0.1-0.6c-0.5-0.7-0.1,0.2-0.4-0.2c-0.1-0.6-0.4-1.2-0.6-1.8c-0.3-0.6-0.5-1.1-0.3-1.3c-0.4-0.3,0.3,1-0.4,0
						c0.3-0.5-0.6-1.2-0.9-2.2c0.4,0.2,0.7,1.1,0.4,0.1c-0.7-0.3-0.8-1.8-1.2-2.5c-0.3,0.1-1-1.5-1.8-2.7c0.1,0-1.1-2.4-1.7-3.6
						l0.1,0c-0.4,0-1.1-1.2-1.7-2c0.2-0.1,0.4,0,0.7,0.4l-0.5-0.8c-0.2-0.1-0.4-0.3-0.8-0.8l0.4,0c-0.7-1-1.6-1.9-2.3-3.3
						c-0.3,0.1,0.1,1.4-1,0.1c0.1-0.1,0.2-0.3,0.5,0c-0.1-0.1-0.4-0.4-0.5-0.6l0.6,0.4c-0.3-0.7-0.4-0.2-0.7-0.7
						c0.2-0.1-0.1-0.4,0.1-0.4c0.1,0.1,0.2,0.5,0.4,0.6c-0.3-0.6-0.7-1.3-0.7-1.6c-0.1,0.1-0.2,0.1-0.5-0.2c-0.7-1,0-0.5-0.4-1.1
						c-0.3-0.2-0.6-0.9-0.9-0.7c-0.2-0.3-0.1-0.4-0.1-0.6c-0.5-0.5-1.7-2.4-1.6-1.7l0.1,0.1c0,0,0,0-0.1-0.1c0,0,0,0,0,0l0,0
						c-1.4-1.5-2.3-3.6-3.6-5.3l0.1-0.1c-0.8-0.9-1.6-2.2-2.3-2.8c-0.2-0.3-0.3-0.8-0.2-0.7c-0.6-0.7-0.7-0.8-1.4-2
						c0.7,0.7-0.1-0.4,0.6,0.7c-0.6-1.1-0.6-1.4-1.6-2.3c0.5,0.2-0.3-0.9-0.6-1.4l0.3,0.8c-0.4-0.5-0.7-1-1-1.5l0.5,0.1
						c-1.1-2.3-3.1-3.3-3.6-5.3c-0.6-0.4,0.6,1.2,0.1,0.9c-0.6-1-0.9-2.2-1.1-2.5c-0.7-1.4-1.2-0.9-2.1-2.4c0,0.2-0.1,0.6-0.9-0.4
						c-0.6-1-0.4-1.4,0.1-0.9c0.2,0.2,0.2,0.4,0.2,0.4c0.2,0.3,0.6,0.7,0.4,0.2l-0.2-0.1c-0.2-0.5-1.1-1.8-0.8-1.6
						c-0.6-0.7-0.4-0.2-0.1,0.4c-0.7-1.3-1.3-1.9-2.1-3.2c0.1,0.2,0.1,0.5,0,0.3c-1.1-1.9-0.7-0.7-1.6-1.9c-0.3-0.8,0.5,0-0.5-1.2
						c-0.4-0.8,0.1-0.3,0.4-0.1c-1-1-1.3-2.2-1.7-2.9l0.5,0.5c-0.3-0.3-0.5-0.6-0.7-0.9l0,0.5c-0.2-0.4-0.4-0.7-0.3-0.7
						c-0.4-0.3-0.1,0.5-0.8-0.1c-0.2-0.5-1.1-1.4-0.9-1.7c0.9,1.5,0.1-0.3,1,0.9c-0.2-0.2-0.4-0.5-0.6-0.9c0-0.1,0.1,0,0.2,0.1
						c-0.7-1.6-0.7-0.4-1.7-1.9c0.3,0.1,0-0.5-0.1-0.7c0.4,0.6-0.1,0.4-0.5,0c-0.5-1-0.8-1-1.1-1.5l0.3,0.6
						c-0.3-0.1-0.6-0.6-1.1-1.2c0.1-0.1,0.5,0.5,0.4,0.3c-0.8-0.6-0.9-1.8-1.7-2.7c-0.2-0.5,0.2-0.2,0-0.7c-1-1-0.6-1.4-1.6-2.5
						c0,0.5,0.1,0.5-0.6-0.2l1.5,1.9l-1.1-1.1c0.4,0.6,1,1.2,1.2,1.5c-0.6-0.5-0.5-0.5-0.4-0.1c-0.3-1-1.3-1.5-1.7-2.6l0.5-0.3
						c-0.7-1.6-2-2.3-3.1-4.3l0.3,0.6c-0.4-0.1-0.8-1.1-1.3-1.7c0.2-0.1,0-0.5-0.1-0.8c-0.1,0.1-0.9-1.3-1.3-1.3l-0.3-1
						c-0.9-1.5-1.6-1.4-2.6-2.8c0.5,0.3,0.1-0.4,0.9,0.4c-0.3-0.5-0.6-0.9-0.7-0.8c-0.1-0.3-1.2-1.1-1.3-1.7
						c-0.2-0.1-0.4-0.1-0.8-0.6c0-0.1,0.1-0.1,0.1-0.1c-0.1,0.1-0.7-0.7-0.6-0.1c-0.6-1.8-3.2-3.8-3.9-5.3c-0.9-0.9-2.1-1.9-3-2.6
						c0.1,0,0.1-0.1,0.2,0.1c-1.1-1.2-1.1-0.2-2.4-1.5c-0.5-0.8,0.9,0.4,0.5,0c0.2-0.7-1.8-1.3-2.7-2.2l0.3,0.1
						c-0.3-0.4-0.9-0.6-1.5-0.8c-0.3-0.1-0.6-0.3-1-0.4c-0.3-0.1-0.7-0.3-1-0.4c0,0,0.1,0,0-0.1c-1.1-0.2-3-0.7-4.4-1.1
						c0.5-0.1,0.7,0.1,0.5-0.3c-0.6-0.1,0.1,0.4-1.2,0.2c-0.4-0.2-1.3-0.6-1.4-0.8c0.4,0.1,0.8,0.2,1.2,0.3
						c-0.5-0.5-1.6-0.3-2.2-0.5l0.1-0.1c-1.9-0.2-2,0.2-4,0l0.2,0.1c-1.1,0.3-0.9-0.2-2,0.1l-0.3-0.4c-0.4,0.1-1,0.2-1.7,0.3
						c-0.7,0.2-1.5,0.3-2.1,0.5c0.7-0.4,2.2-0.7,3.2-0.9c-0.7,0-2.5,0.2-2.8,0.5c0.3-0.1,0.6-0.2,0.9-0.2c-0.9,0.4-2,0.7-3.4,1
						c0.1-0.4-0.9-0.3-2,0c-1.1,0.2-2.3,0.6-2.9,0.5c-2.4,1.1-4.9,1.7-7.5,3.2c1.2,0-0.8,0.4-0.3,0.9c-0.6,0.4-0.8,0.5-0.9,0.5
						c-0.7,0.3-1.3,0.5-2,0.8c-0.5,0.1,0.5-0.5,0.4-0.5c-1.3,0.8-0.7,0.1-1.6,0.5c0.3,0.1-0.3,0.5-1.1,1l1.2-0.4
						c-1.6,1.4-1.8,0.6-3.4,2.1l0.4-0.6c-0.8,0.7-3.3,2.4-3.8,3.5c-0.2,0.1-0.5,0.1-0.2-0.2c-2.1,1.6-4.1,4.2-5.8,5.3l0-0.2
						c-0.3,0.4-0.4,0.8-1,1.1c0-0.1,0-0.2-0.1-0.1c-0.2,0.2-0.8,1.1-1.3,1.4l0.3-0.5c-2,1.6-2.6,3-4.1,4.5c-0.3-0.3-1.9,1-2.6,1.6
						l0-0.1c-2.2,2-3.3,3.8-5.1,6c-1.5,0.9-4,4.3-5.7,6.4c0.3-0.3,0.2,0.3,0,0.7c-0.4,0.5-0.7,1.7-1,1.4l0.1-0.2
						c-0.6,0.2-1.2,1.4-1.7,2.3l0.4,0.4c-1,1-1.7,2.7-2.3,4.3c-0.3,0.8-0.5,1.5-0.7,2.2c-0.2,0.6-0.4,1.2-0.7,1.5
						c-0.1,0.7-0.3,1.5-0.3,2.1l-0.3-0.1c-0.3,0.9-0.4,1.6-0.6,2.3c-0.2,0.7-0.3,1.5-0.4,2.7l-0.1-0.5c-0.2,1.3,0.6,1.7,0.5,2.9
						l-0.5,0.3c-0.2,2.2-0.7,4.5-0.3,6.7c-0.1,0-0.2-0.1-0.2-0.5c0,1-0.2,4,0.3,3.6c-0.4,0,0,2.3,0.3,3.5l-0.3-0.2
						c0.4,1,0.5,1,0.7,2.4c0,0.3-0.2,0.3-0.2-0.1c-0.1,1.1,0.3,0.8,0.3,2.2l-0.2-0.5c0.1,1.1,0.2,1,0.4,1.6c0.2,0.7,0.1,2.1-0.1,2.3
						c0.2,0.1,0.4,0.7,0.4,1.4c-0.1,0.1-0.2-0.1-0.2-0.3c0,1.9,0.6,2.8,0.5,4.1c-0.1,0-0.1,0.1-0.1,0.2c-0.1-1.5-0.3-2.7-0.2-2.6
						c-0.3,0-0.2,1.2-0.6,0.3c0.3,0.9,0.9,2.6,0.9,3.8c0,0.1,0,0.1-0.1,0.2l0-0.1c0,0.3,0.1,0.5,0.1,0.7c0,0.4,0,0.6,0,1
						c-0.2,0.2,0,1.4,0.1,2c0.3-0.1,0.3,0.7,0.5-0.1c0,0.1,0-0.1-0.1-0.5c0-0.1,0-0.2-0.1-0.3l0,0c0-0.4-0.1-0.9-0.2-1.5
						c0.2,0.5,0.4,0.9,0.3,1.6c0.2,0.3,0.4,0.6,0.5,0.8c-0.3,0.9-0.3,2.5-0.5,2.7c0.4,1.8,0.6,4.3,1.3,5.4c0.1,0.5-0.1,0.6-0.1,0.8
						c-0.1-0.3-0.1-0.7-0.2-0.8c0.3,1,0.5,3.1,0.9,3.3c0,1.3-0.5-0.7-0.1,1.1l-0.2-0.2c0,1.8,0.5,3.2,0.9,4.7c0.5,1.4,1,2.9,1,5
						c0-0.3,0-0.4,0-0.5c0.6,4.5,2.4,9,3.4,13.4c0.3,1.2,0.6,1.3,1,2l-0.2,0.4c0.3,0.4,0.5,0.8,0.8,1.1c0.9,1.6,0.5,3.3,1.9,5.3
						l0.1-0.4c0.2,0.4,0.5,1,0.7,1.5c0.2,0.5,0.4,0.9,0.3,0.9c0.1,0.1,0.3,0.2,0.4,0.5l-0.1,0.1l1.2,1.8c0.7,1.5-0.7,0.1,0.5,2.2
						c0.5,0.7,1.7,2,1.6,1.6c-0.2-0.3-0.4-0.8-0.3-0.9l0.5,0.7c0.5-0.1,1.2,0.2,0.5-1.7l-0.9-1l0-0.5l0.6,1
						c-0.1-0.7-0.5-0.9-0.9-1.3c0.1-0.2,0-0.4-0.1-0.6l-1-1c0.1-0.2,0.6,0.4,0.3-0.5c-0.5-0.5-0.1,0.7-0.7-0.1
						c-0.1-0.7,0.1-0.6-0.4-1.2c0.1-0.1,0.2,0,0.4,0.2c-0.5-0.5-0.8-1.6-1.2-1.8c0-0.7-1-2.1-0.6-2.2c-0.2-0.2-0.8-1-1-1.6
						c0.9,0.9-0.8-2.2-0.2-2.1c-0.7-0.6-1.2-2.8-1.9-4.1c0.1,0.1,0.2,0.2,0.2,0.3c-0.2-0.8-0.1-1.1-0.2-1.6c-0.4,0-0.9-1.2-1.3-1.8
						c0.1-1.1,0.6,0.5,0.9,0.1c-0.3,0.1-0.8-1.6-0.9-1.2c0-0.8-0.1-0.7,0.1-1.2c-0.5,0-0.3-0.7-0.7-1.3c0-1.2,0.4-0.4-0.1-1.6
						C187.1,121.2,187.6,122.2,187.6,122.2z M182.1,92.7L182.1,92.7c0,0.3,0.1,0.5,0.1,0.6C182.1,93.1,182.1,93,182.1,92.7z
						 M181.8,90.1c0,0.3,0.1,0.7,0.1,1.1c-0.1,0.1-0.2,0-0.2-0.2C181.8,91.1,181.8,90.5,181.8,90.1z M180.4,95.7
						c-0.1-0.4,0-0.5,0-0.6c0,0.2,0.1,0.4,0.1,0.7c0,0,0,0,0,0C180.5,95.8,180.5,95.8,180.4,95.7z"/>
					<path class="st0" d="M180.9,96.4c0,0.1,0,0.1,0,0.2C180.9,96.4,180.9,96.4,180.9,96.4c0-0.1,0-0.2,0-0.2
						C180.9,96.2,180.9,96.3,180.9,96.4z"/>
					<path class="st0" d="M312.5,83.1L312.5,83.1C312.5,83.1,312.5,83.1,312.5,83.1C312.5,83.1,312.5,83.1,312.5,83.1z"/>
					<polygon class="st0" points="183.2,55.8 183.1,55.7 183.1,56 					"/>
					<path class="st0" d="M319.4,95.3c0,0,0,0.1,0,0.2C319.5,95.5,319.5,95.4,319.4,95.3z"/>
					<path class="st0" d="M322.4,100.5l0.3,0.8C322.6,100.9,322.5,100.7,322.4,100.5z"/>
					<path class="st0" d="M324.5,104.6c0.1,0,0.1,0,0.1,0l0,0L324.5,104.6z"/>
					<path class="st0" d="M283.5,43.3c0-0.1-0.1-0.1-0.1-0.1C283.1,42.8,283.3,43.1,283.5,43.3z"/>
					<path class="st0" d="M296.5,61.1c-0.2-0.2-0.3-0.3-0.5-0.5C296.2,60.9,296.3,61.2,296.5,61.1z"/>
					<polygon class="st0" points="269.3,23.3 269.3,23.3 269.2,23.2 					"/>
					<path class="st0" d="M295.4,59.7c0.2,0.4,0.4,0.6,0.6,0.8C295.8,60.3,295.6,60,295.4,59.7z"/>
					<path class="st0" d="M330.6,123.5l0,0.2c0,0,0,0,0,0L330.6,123.5z"/>
					<path class="st0" d="M330.6,123.7l0.1,0.2C330.7,123.8,330.7,123.7,330.6,123.7z"/>
					<path class="st0" d="M330.8,124.5l-0.1-0.5C330.7,124.1,330.7,124.3,330.8,124.5z"/>
					<path class="st0" d="M329.5,117.5l-0.1,0C329.4,117.5,329.5,117.5,329.5,117.5z"/>
					<path class="st0" d="M329,115.8c0.1,0.4,0.1,1.1,0.3,1.7l0.1,0C329.2,117.2,329.2,116.1,329,115.8z"/>
					<path class="st0" d="M327.4,108l0.5,1.5c0-0.3,0-0.7,0.3,0C327.8,107.5,328.2,109.9,327.4,108z"/>
					<path class="st0" d="M325.5,103.5c0.4,0.7,0.1-0.1,0.2-0.1C325.4,103,325.3,102.9,325.5,103.5z"/>
					<path class="st0" d="M306.5,73.9l0.3-0.1C306.4,73.3,306.7,73.9,306.5,73.9z"/>
					<polygon class="st0" points="301.6,69.1 301.9,69.7 302.2,69.8 					"/>
					<polygon class="st0" points="300.9,64.8 301.1,65 300.4,64.2 					"/>
					<path class="st0" d="M266.9,16.5l-0.1,0.4C267.1,17.1,267.5,17,266.9,16.5z"/>
					<path class="st0" d="M244.1,5.3c-0.3-0.2-1-0.3-1.5-0.1C243.2,5.2,243.8,5.3,244.1,5.3z"/>
					<polygon class="st0" points="183.4,48.6 183.5,48 183.1,49 					"/>
				</g>
			</g>
		</g>
	</g>
</g>
<g>
	<g>
		<g>
			<g>
				<g>
					<path class="st0" d="M3.8,301c0.1,0.1,0.3,0.1,0.3-0.3l-0.3-0.3L3.8,301z"/>
					<path class="st0" d="M4.7,298.5c-0.1-0.5-0.3-1-0.6-0.8c0.2,0.5,0.1,0.6,0.4,1.1c0,0.4-0.2,0.6-0.3,0.6
						c0.1,0.1-0.1,0.6,0.1,0.8c0.3-0.5,0.3-1.1,0.3-1.8C4.6,298.3,4.6,298.5,4.7,298.5z"/>
					<path class="st0" d="M27.1,270.6l-0.2,0.1C26.9,270.7,27,270.6,27.1,270.6z"/>
					<path class="st0" d="M41.8,253.3c-0.1,0.2-0.1,0.2-0.1,0.3C41.9,253.4,41.9,253.2,41.8,253.3z"/>
					<path class="st0" d="M43.7,249.8c0,0.1-0.1,0.1-0.1,0.2C43.7,249.9,43.7,249.8,43.7,249.8z"/>
					<path class="st0" d="M27.1,270.6l0.5-0.3C27.6,270.1,27.3,270.4,27.1,270.6z"/>
					<path class="st0" d="M5.3,293.3c0,0.1,0,0.2,0,0.3L5.3,293.3C5.3,293.4,5.3,293.3,5.3,293.3z"/>
					<path class="st0" d="M19.7,277.4l-0.1,0.1c0,0.1,0,0.1,0,0.2L19.7,277.4z"/>
					<path class="st0" d="M14.3,282.7c0.1-0.1,0-0.4-0.1-0.5c0,0.1,0,0.3-0.1,0.4C14.1,282.7,14.2,282.7,14.3,282.7z"/>
					<path class="st0" d="M7,292.2l-0.1,0.2C6.9,292.3,7,292.2,7,292.2z"/>
					<path class="st0" d="M23.9,273.8c0,0,0.1,0,0.1,0C24,273.8,24,273.8,23.9,273.8z"/>
					<path class="st0" d="M161.3,132.1C161.3,132.1,161.3,132.1,161.3,132.1C161.4,132.1,161.4,132,161.3,132.1z"/>
					<path class="st0" d="M169.4,128.2L169.4,128.2c-0.1,0.1-0.1,0.2,0,0.2L169.4,128.2z"/>
					<path class="st0" d="M46.1,242.9C46.1,242.9,46.1,242.9,46.1,242.9C46.1,243.1,46.1,243,46.1,242.9z"/>
					<path class="st0" d="M63,182.9c-0.7,0.2,0.7-1-0.3-0.5C62.8,182.4,62.2,183.3,63,182.9z"/>
					<path class="st0" d="M5.4,293.1l0.1-0.3C5.4,293,5.4,293.1,5.4,293.1z"/>
					<path class="st0" d="M62.7,182.4L62.7,182.4l-0.1,0C62.6,182.4,62.6,182.4,62.7,182.4z"/>
					<path class="st0" d="M47.8,226.5c-0.1,0-0.1,0.1-0.1,0.2C47.7,226.6,47.8,226.6,47.8,226.5z"/>
					<path class="st0" d="M46.3,238.6l0.1-0.3C46.3,238.4,46.3,238.5,46.3,238.6z"/>
					<path class="st0" d="M47.8,220.1c0-0.2,0.1-0.2,0-0.4c0,0,0,0,0,0.1C47.8,219.8,47.8,219.9,47.8,220.1z"/>
					<path class="st0" d="M48.3,213.6c0,0,0,0.1-0.1,0.1c0,0.1,0,0.1,0,0.2L48.3,213.6z"/>
					<path class="st0" d="M144.4,142.6c0.2,0,0.3,0,0.4,0.1C144.6,142.6,145.4,142,144.4,142.6z"/>
					<path class="st0" d="M5.4,293.4c-0.1-0.1-0.1-0.1,0-0.2c0,0.1,0,0.1-0.1,0.2C5.3,293.4,5.4,293.4,5.4,293.4z"/>
					<path class="st0" d="M45.6,219.7l0.1-1C45.6,219,45.6,219.4,45.6,219.7z"/>
					<path class="st0" d="M102,162.7l0.2-0.1C102.1,162.6,102,162.6,102,162.7z"/>
					<path class="st0" d="M45.9,215.6c0.1-0.2,0.2-0.4,0.2-0.6c0,0,0-0.1-0.1-0.1L45.9,215.6z"/>
					<path class="st0" d="M144.8,142.7L144.8,142.7L144.8,142.7z"/>
					<path class="st0" d="M150.4,138.6c-0.9,0.5-0.2,0.5-0.3,0.8c-1,0.7-0.6,0-1.1,0.1c-0.6,0.5-0.9,1-1.4,1.3c-0.1,0-0.2,0-0.1-0.1
						c-0.5,0.7-2,1.2-2.6,1.9c-0.1,0-0.1,0-0.1,0c0.2,0.1,0.3,0.2,0.4,0.4c-0.4,0.2-0.6,0.6-0.9,0.5c0.2-0.1,0.2-0.2,0.3-0.4
						l-0.4,0.3c-0.5-0.1,0.5-0.4,0.4-0.6c-0.7,0.5-1.5,1.3-2.2,1.6c-0.3-0.2,1.4-0.9,0.4-0.7l1-0.4c-1-0.1,0.6-0.3-0.4-0.4
						c-1.3,0.6-1.3,0.9-2.6,1.5c-0.2,0.3,0.2,0.2,0,0.5c-1.6,1.3-1.8,0-2.9,1.1c-0.2,0.4-0.2,0.8-1.2,1.1l0.1-0.5
						c-1.2,0.6-0.4,0.9-1.8,1.3c0.2-0.3,0.9-0.6,0.7-0.6c-1,0.2-0.5,0.5-1.1,0.8l-0.3-0.2c-1.3,0.7-2.6,1.7-4,2.5
						c0-0.1,0.2-0.4-0.2-0.3c-1.7,1.1-3.9,1.9-5.8,2.6l-0.6,0.6c-0.2,0.1-0.4,0-0.2-0.1c-0.7,0.2,0,0.2-0.2,0.4
						c-0.4,0.2-0.6,0.1-0.4-0.1c-1.1,0.8-3.3,2.1-4.7,2.4l0.2-0.2c-1.1,0.3-0.9,1.1-2,1.2l0.2-0.1c-2.2,0.9-4.6,2.1-6.5,2.5
						c-0.2,0.5-2.3,0.7-2.2,1.3c-1.4,0.2-1.1,0-2.9,0.5c-0.5,0.2-0.6,0.6-1.2,0.9l-0.1-0.3l-0.7,0.6l-0.6-0.2l-0.5,0.3
						c0.2-0.1,0.5-0.1,0.5,0c-0.8,0.5-2.2,0.6-2.3,0.5l-2,1c0-0.1,0.3-0.3,0.6-0.5c-1,0.7-0.3-0.2-1.2,0.4c0.2,0,0,0.2,0,0.3
						c-0.6,0-1.7,0.4-2.6,0.8l0.1-0.3c-1.6,0.5-3.2,1.3-5,1.9c0.7-0.1,0.6,0.3,0.1,0.5l-0.3-0.2c-0.3,0.3,0.6-0.1,0,0.4
						c-0.7,0.2-0.6-0.2-0.2-0.4l-0.8,0.4c-0.1-0.1,0.1-0.2,0.1-0.3c-0.3,0.3-1.5,0.2-1.8,0.7l-0.1-0.1c-1.8,0.6-2.5,1-3.9,1.6
						c0.1,0.3-0.5,0.4-0.8,0.8c-1.1,0.3-2.3,0.6-3.5,1.1c-0.8,0.5-0.2,0.3-0.5,0.6c-0.2-0.2-1.4,0.3-0.8-0.1c-1.5,0.7-1.9,0.9-3.6,2
						c0.2,0,0.5-0.1,0.4,0.1c-0.3,0.2-0.8,0.3-0.8,0.1l0.1-0.1c-0.5,0.3-1,0.6-1.6,0.9c-0.6,0.3-1.2,0.5-1.8,0.7
						c-1.2,0.4-2.3,1-3,1.7l0.1-0.1c-0.5,0.4-1,0.8-1.5,1.3c-0.8,0.5,0.3-0.5-0.3-0.2c-0.7,0.8-1.4,1.2-2.1,1.6
						c-0.6,0.4-1.2,0.9-1.8,1.5c-0.8,0.1-1.6,0.9-2.5,1.8c-0.9,0.9-1.7,1.9-2.5,2.4l0.2,0c-0.2,0.5-0.5,0.3-0.7,0.6
						c0.1,0.1,0.4-0.3,0.3,0c-0.6,0.8-1.2,1.6-1.9,2.4c-0.6,0.8-1.2,1.7-1.8,2.5c-0.6,0.9-1.1,1.7-1.6,2.6c-0.3,0.4-0.6,0.9-0.8,1.3
						c-0.2,0.5-0.4,0.9-0.6,1.4c-0.6,1.4,0.5,1.1-0.5,2.7c-0.1-0.2-0.1-0.4-0.1-0.6c-0.3,1.5-0.7,2.9-1.1,4.4
						c-0.3,1.5-0.7,2.9-0.8,4.4c0-0.2-0.2-0.2-0.1-0.5c-0.3,0.6-0.3,2.2-0.2,2.3c-0.1,0.4-0.2,0.1-0.3,0.3c-0.2,0.6,0.1,1.6-0.2,1.8
						c0,0-0.1-0.2-0.1-0.3c0.1,0.4-0.2,1.8,0.1,1.5c-0.2,1.1-0.1,2.1-0.3,2.9c0.3,0.6-0.3,1.8,0.1,2c-0.4-0.1-0.5,1.8-0.3,2.5
						c-0.1-0.2-0.2,0.6-0.3,0.3c0,0.8,0,1.5,0.2,1.4c-0.6,1.4,0.3,2.9-0.5,3.6c0.1,2.3,0.1,4.4,0.1,6.4c-0.4-0.1,0.1-2.3-0.4-2.2
						c0.1,1.9,0.4,3.1,0.1,5c-0.1,0.5-0.2-0.3-0.2-0.5c0,1.9-0.5,3.7-0.5,5.4c0,0-0.1-0.2-0.1-0.4c0,0.3-0.2,0.8,0,0.8l0-0.3
						c0.4-0.5,0.4,1.4,0.5,1.5c-0.5-0.7-0.5,1.6-1,0.6c0,0.2,0,0.5,0.2,0.5c-0.1,0.3-0.2,0.4-0.3,0c-0.1,1.2,0.2,0.8,0,1.9
						c-0.1,0-0.1-0.3-0.2-0.4c0.1,0.6,0.1,1.2-0.2,2c0-0.1-0.1,0-0.1-0.2c-0.4,1.5-0.2,2.8-1,4.3c-0.2-0.6-0.3,0.5-0.7,0.4l-0.2,0.9
						l0.3-0.3c-0.2,0.4-0.2,0.8-0.3,1.1c-0.1,0.3-0.2,0.7-0.5,1l0.1-0.6l-0.6,1.4l0.5-0.7c-0.2,0.8,0.5,0.1-0.1,1.1
						c0.1-0.2-0.4,0.7-0.8,1l0,0c-0.1,0.4-0.2,0.8-0.6,1.3c-0.2,0.1-0.3-0.3-0.4-0.3c0.1,0.5-1,1.6-1,2.2c0-0.2-0.1-0.3-0.2-0.3
						l0,0.4c-0.3,0.3-0.4,0.3-0.4,0.1c-0.7,0.9,0.6,0-0.4,1c0-0.1,0-0.1,0.1-0.3c-0.9,1-1.5,2.2-2.4,3c-0.5,0,0.7-0.9,0.1-0.8
						c-1.1,1.4-2.2,3.1-3.5,4.2l0.3-0.2c0.2,0.5-1.1,0.7-1.6,1.5c0.1-0.2,0-0.4,0-0.3c-0.9,0.8-1.7,1.8-3,3.1l0.1-0.3
						c-0.6,0.4-1.4,1.2-2.1,1.7c-0.1,0.3-0.4,0.5-0.1,0.5c-2.3,1-3.1,3.3-5.1,4.2c0.2-0.2,0.4-0.5,0.2-0.4l-1.3,1.3
						c0.3,0.1,0.3-0.1,0.7-0.2c-0.1,0.3-0.4,0.7-0.7,1c0.5-0.7-0.3-0.3-0.6-0.1c0.1,0,0.1,0.2,0.1,0.2c-1,0.3,0.2,0.4-0.9,1.1l0-0.1
						c-0.3,0.4-0.5,0.8-0.9,1.1c-0.3,0,0.3-0.4,0.2-0.6c-0.5,0.5-0.7,1.4-1.3,1.6c0.2-0.3,0.5-0.6,0.7-0.9c-0.7,0.3-0.7,0.4-1.1,0.7
						l0,0c-0.3,0.3-0.6,0.5-1,0.8l0.3-0.2c-0.1,1.1-1.2,1.4-1.7,2.7c0.5-1.2-0.1-0.3-0.2-0.6c-0.3,0.2-0.7,0.5-0.6,0.3
						c-0.2,0.6-0.8,0.6-1,1.5c-0.1,0-0.4,0.5-0.5,0.2c-0.4,0.7,0.2,0,0.3,0.1c-0.5,1.1-2,2-2.5,3.7c-0.6,1.4-0.4,1.7-0.9,3
						c-0.3,0.3-0.2-0.5-0.2-0.5c-0.5,0.6-0.7,1.1-0.8,1.8c0-0.2-0.1-0.1-0.3,0.1c-0.2,0.5,0.2,0.5-0.2,1.1c-0.1-0.2-0.2-0.4-0.2-0.7
						c-0.1,0.7-0.2,1.3-0.3,2c-0.2,0.1-0.1-0.5-0.2-0.7c-0.2,0.8-0.4,2-0.2,2.3l0.2-0.5c-0.1,0.3-0.3,0.1-0.3-0.1
						c0-0.7,0.3-0.9,0.4-0.9l-0.1,0.5c0.3-0.2,0.4-0.6,0.5-1.2c0.1-0.5,0.1-1.2,0.3-1.6L6,294l0-1c0.2-0.2,0.4-0.2,0.3,0.3
						c0.4-0.6,0.1-0.6,0.5-1.1c0.1,0,0.1,0,0.1,0.1l0.2-0.7c0,0.2,0.3,0,0.1,0.4c0.7-1,0.6-1.8,1.1-2.1l0,0.1
						c0.7-1.5-0.2-0.3,0.2-1.5c0.4-0.1,0.7-0.2,1.1-0.3l-0.2-0.3c0.1-0.1,0.3-0.4,0.4-0.3c0.2-0.6-0.2,0-0.1-0.4
						c0.7-0.5,1.3-1.9,1.8-1.7c0-0.4-0.6,0.5-0.2-0.3c0.6,0.1,0.6-0.8,1.3-1.3c0,0.4-0.5,0.8,0.2,0.4c0-0.6,1.1-1,1.4-1.5
						c-0.2-0.3,0.8-1.1,1.5-1.9c0,0.1,1.6-1.3,2.4-1.8l0,0.1c-0.1-0.4,0.7-1,1.2-1.6c0.1,0.2,0.1,0.3-0.1,0.7l0.5-0.5
						c0-0.2,0.2-0.4,0.5-0.7l0.1,0.3c0.7-0.6,1.2-1.5,2.2-2.2c-0.1-0.2-1.2,0.1-0.3-0.9c0.1,0.1,0.3,0.2,0.1,0.5
						c0.1-0.1,0.2-0.3,0.4-0.4l-0.2,0.5c0.5-0.3,0.1-0.3,0.4-0.6c0.1,0.2,0.3-0.1,0.4,0.1c-0.1,0.1-0.3,0.2-0.4,0.4
						c0.4-0.3,0.9-0.6,1.2-0.6c-0.1-0.1-0.2-0.2,0.1-0.5c0.7-0.6,0.4,0,0.9-0.3c0.1-0.3,0.6-0.5,0.4-0.8c0.2-0.2,0.3-0.1,0.5-0.1
						c0.3-0.4,1.7-1.5,1.1-1.4l-0.1,0.1c0,0,0,0,0.1-0.1l0,0l0,0c1-1.3,2.6-2.1,3.7-3.3l0.1,0.1c0.6-0.7,1.5-1.5,1.8-2.1
						c0.2-0.2,0.6-0.3,0.6-0.2c0.5-0.6,0.4-0.7,1.3-1.4c-0.4,0.7,0.3-0.1-0.4,0.6c0.7-0.6,1-0.7,1.5-1.6c0,0.4,0.7-0.3,1-0.7
						l-0.6,0.4c0.3-0.4,0.6-0.7,0.9-1.1l0.1,0.4c1.6-1.3,1.7-3.2,3-4c0.1-0.6-0.7,0.8-0.7,0.2c0.6-0.7,1.5-1.2,1.6-1.5
						c0.8-1,0.2-1.2,0.9-2.3c-0.2,0.1-0.5,0.1-0.2-0.8c0.4-0.8,0.9-0.8,0.8-0.2c-0.1,0.2-0.2,0.3-0.2,0.2c-0.1,0.3-0.2,0.6,0.1,0.4
						l-0.1-0.2c0.3-0.3,0.9-1.5,0.9-1.1c0.2-0.7,0-0.3-0.3,0.1c0.2-0.2,0.3-0.5,0.4-0.7c0.1-0.2,0.2-0.4,0.3-0.6
						c0.2-0.4,0.3-0.9,0.6-1.4c-0.1,0.2-0.3,0.3-0.3,0.1c0.8-1.6,0.1-0.8,0.4-1.9c0.4-0.6,0.4,0.4,0.5-0.8c0.3-0.7,0.3-0.1,0.4,0.3
						c0.1-1.1,0.7-1.9,0.9-2.5l-0.1,0.6c0-0.3,0.1-0.6,0.2-0.9l-0.3,0.3c0.1-0.3,0.2-0.6,0.3-0.6c-0.1-0.4-0.4,0.2-0.5-0.5
						c0.2-0.4,0.1-1.4,0.5-1.4c-0.4,1.4,0.3-0.1,0.2,1.1c0-0.2,0.1-0.5,0.2-0.8c0,0,0.1,0.1,0.1,0.2c0.5-1.3-0.2-0.7,0.1-2
						c0.1,0.2,0.4-0.3,0.4-0.5c-0.1,0.6-0.3,0.2-0.4-0.3c0.3-0.9,0-1,0.1-1.4l-0.1,0.5c-0.2-0.2-0.1-0.6,0-1.3c0.1,0,0,0.6,0.1,0.4
						c-0.2-0.7,0.5-1.5,0.5-2.5c0.2-0.4,0.3,0,0.5-0.4c-0.1-1.1,0.4-1.1,0.3-2.3c-0.3,0.3-0.2,0.4-0.4-0.4l0,1.9l-0.2-1.2
						c-0.1,0.6,0,1.2,0,1.5c-0.1-0.6-0.1-0.5-0.3-0.3c0.4-0.7-0.1-1.5,0.3-2.4l0.6,0.1c0.4-1.3-0.1-2.4,0.1-4.1l-0.1,0.5
						c-0.2-0.2,0-1.1,0-1.6c0.2,0.1,0.3-0.3,0.4-0.5c-0.1,0,0.1-1.2-0.3-1.4l0.3-0.7c0.2-1.4-0.5-1.6-0.3-2.9
						c0.2,0.4,0.4-0.2,0.5,0.7c0-0.4,0.1-0.8-0.1-0.9c0.1-0.3-0.2-1.2,0-1.6c-0.1-0.2-0.3-0.3-0.2-0.8c0-0.1,0.1,0,0.1,0
						c-0.1,0-0.1-0.8-0.3-0.4c0.7-1.3,0.2-3.8,0.9-4.9c0-1,0.1-2.1,0.2-3c0.1,0.1,0.1,0,0.1,0.2c0.4-1.2-0.5-0.8,0-2.1
						c0.4-0.6,0.1,0.7,0.2,0.3c0.7-0.1,0.1-1.6,0.7-2.5l0,0.2c0.4-0.6,0.1-1.7,0.4-2.8c0,0,0,0.1,0.1,0c-0.2-0.8,0.1-2.3,0.4-3.4
						c0.1,0.4,0,0.5,0.3,0.4c0.1-0.5-0.4,0-0.2-0.9c0.2-0.3,0.5-0.9,0.8-0.9l-0.2,0.9c0.5-0.3,0.3-1.1,0.6-1.6l0.1,0.1
						c0.5-1.3,0.1-1.5,0.7-2.9l-0.2,0.1c-0.1-0.9,0.5-0.5,0.6-1.4l0.5,0c0.2-0.5,0.6-1.9,1-2.8c0,0.6-0.4,1.7-0.6,2.4
						c0.3-0.5,0.8-1.6,0.8-2c-0.1,0.2-0.1,0.5-0.3,0.7c0-0.8,0.4-1.6,1-2.5c0.3,0.3,0.7-0.3,1.2-0.9c0.5-0.6,1.1-1.4,1.6-1.5
						c1-1.6,2.6-2.7,4.2-4.2c-1,0.1,0.5-0.4,0-0.8c0.4-0.4,0.5-0.5,0.6-0.5l1.5-0.7c0.4-0.1-0.3,0.4-0.2,0.5
						c0.9-0.7,0.5-0.1,1.2-0.4c-0.3-0.1,0.1-0.5,0.7-0.8l-0.9,0.3c1.1-1.2,1.4-0.3,2.6-1.5l-0.3,0.4c0.6-0.6,2.6-1.6,3-2.4
						c0.2,0,0.4,0,0.1,0.3c0.9-0.4,1.8-1.1,2.7-1.7c0.9-0.5,1.8-1.1,2.5-1.3l-0.1,0.2c0.3-0.2,0.5-0.5,0.9-0.6
						c0,0.1-0.1,0.2,0.1,0.1c0.2-0.1,0.8-0.6,1.3-0.8l-0.3,0.3c1.8-0.6,2.6-1.5,4-2.3c0.2,0.4,1.6,0,2.4-0.2l0,0.1
						c2.1-0.8,3.5-1.7,5.4-2.6c1.4,0,4.2-1.3,6.3-1.7c-0.3,0-0.1-0.3,0.3-0.5c0.5-0.1,1.2-0.7,1.2-0.3l-0.2,0.1
						c0.5,0.2,1.4-0.2,2.2-0.5l-0.1-0.5c2.2,0,5-2.2,6.3-1.9c0.4-0.3,1-0.5,1.4-0.8l0.1,0.3c1.3-0.5,2-0.7,3.5-1.4l-0.2,0.3
						c0.9-0.4,0.8-1.2,1.6-1.6l0.4,0.3c1.5-0.7,3.3-1,4.6-2c0,0.1,0,0.2-0.2,0.3c0.7-0.3,2.9-1,2.4-1.4c0.2,0.3,1.6-0.7,2.4-1.2
						l0,0.3c0.5-0.6,0.5-0.7,1.5-1.3c0.2-0.1,0.3,0.1,0,0.2c0.8-0.2,0.5-0.5,1.5-0.8l-0.3,0.3c0.8-0.3,0.7-0.4,1-0.8
						c0.5-0.3,1.5-0.7,1.7-0.5c0-0.2,0.4-0.6,0.9-0.7c0.1,0.1,0,0.2-0.1,0.3c1.4-0.5,1.8-1.2,2.8-1.4c0.1,0.1,0.1,0.1,0.2,0.1
						c-1,0.5-1.9,0.9-1.8,0.8c0.1,0.2,1-0.1,0.5,0.5c0.6-0.5,1.6-1.4,2.4-1.8c0.1,0,0.1,0,0.1,0l-0.1,0.1c0.2-0.1,0.4-0.2,0.5-0.3
						c0.3-0.1,0.5-0.1,0.7-0.3c0.2,0.1,1-0.4,1.4-0.6c-0.2-0.2,0.4-0.5-0.2-0.4c0.1,0-0.1,0.1-0.3,0.2c-0.1,0-0.1,0.1-0.2,0.1l0,0
						c-0.3,0.1-0.6,0.3-1,0.5c0.3-0.3,0.6-0.6,1.1-0.7c0.1-0.3,0.3-0.6,0.4-0.7c0.8,0.1,1.9-0.3,2.2-0.2c1.2-0.8,2.9-1.7,3.5-2.6
						c0.3-0.3,0.5-0.1,0.7-0.1c-0.2,0.2-0.4,0.3-0.5,0.4c0.6-0.5,2.1-1.2,2.1-1.6c1-0.3-0.3,0.6,0.9-0.2l-0.1,0.2
						c2.7-0.8,3.4-3,6.5-3.9c-0.2,0.1-0.3,0.1-0.4,0.1c3.2-1.5,6-4,9.2-5.4c0.9-0.4,0.8-0.7,1.2-1.2l0.3,0.1l0.7-0.8
						c1.1-1,2.5-0.8,3.8-2.2l-0.3,0c0.6-0.3,1.7-1.3,1.7-1c0-0.1,0.1-0.3,0.3-0.4l0.1,0.1l1.2-1.1c1.1-0.6,0.2,0.6,1.7-0.4
						c0.5-0.4,1.3-1.5,1.1-1.4c-0.2,0.1-0.6,0.3-0.7,0.2l0.5-0.4c-0.2-0.4-0.1-1.1-1.5-0.5l-0.7,0.8l-0.4,0l0.7-0.5
						c-0.5,0.1-0.7,0.4-0.9,0.8c-0.1-0.1-0.3,0-0.5,0l-0.6,1c-0.2-0.1,0.2-0.6-0.5-0.3c-0.3,0.4,0.6,0.1,0,0.6
						c-0.5,0.1-0.5-0.1-0.9,0.4c-0.1-0.1-0.1-0.2,0.1-0.4c-0.4,0.4-1.1,0.8-1.2,1.2c-0.6,0.1-1.4,1-1.6,0.6c-0.1,0.2-0.6,0.8-1,1.1
						c0.5-0.9-1.5,1-1.7,0.4c-0.3,0.8-1.9,1.5-2.7,2.3c0-0.1,0.1-0.2,0.2-0.2c-0.6,0.3-0.8,0.3-1.2,0.4c0.1,0.4-0.7,1-1,1.5
						c-0.9,0.1,0.2-0.6-0.2-0.8c0.2,0.2-1,1-0.6,1.1c-0.6,0.1-0.5,0.2-0.9,0.1c0.2,0.5-0.4,0.4-0.7,0.9c-0.9,0.2-0.4-0.3-1.2,0.3
						C149.7,139.2,150.4,138.6,150.4,138.6z M130.5,150.6L130.5,150.6c0.2-0.1,0.3-0.2,0.4-0.2C130.8,150.4,130.7,150.4,130.5,150.6
						z M128.8,151.4c0.2-0.1,0.5-0.2,0.8-0.4c0.1,0.1,0.1,0.2-0.1,0.3C129.5,151.2,129.1,151.4,128.8,151.4z M133.3,151.3
						c-0.3,0.2-0.4,0.2-0.4,0.1c0.1-0.1,0.3-0.2,0.5-0.3c0,0,0,0,0,0C133.4,151.2,133.4,151.3,133.3,151.3z"/>
					<path class="st0" d="M133.7,150.7c0,0,0.1,0,0.1-0.1C133.7,150.7,133.6,150.7,133.7,150.7c-0.1,0-0.1,0-0.1,0.1
						C133.6,150.8,133.6,150.8,133.7,150.7z"/>
					<path class="st0" d="M26.8,270.7L26.8,270.7C26.8,270.7,26.8,270.7,26.8,270.7C26.8,270.7,26.8,270.7,26.8,270.7z"/>
					<polygon class="st0" points="103.9,161.8 104,161.9 104.1,161.7 					"/>
					<path class="st0" d="M18.1,277.1c0,0-0.1,0-0.2,0C18,277.2,18,277.2,18.1,277.1z"/>
					<path class="st0" d="M14.7,280.3l-0.5,0.4C14.4,280.5,14.6,280.4,14.7,280.3z"/>
					<path class="st0" d="M12.1,282.8c0,0.1,0,0.1,0,0.1l0,0L12.1,282.8z"/>
					<path class="st0" d="M44.4,238.6c0,0,0-0.1,0-0.1C44.4,238.1,44.4,238.3,44.4,238.6z"/>
					<path class="st0" d="M40,254.6c0-0.2,0.1-0.4,0.1-0.5C40,254.3,39.8,254.5,40,254.6z"/>
					<polygon class="st0" points="45.6,219.8 45.6,219.8 45.6,219.7 					"/>
					<path class="st0" d="M40.5,253.3c-0.2,0.2-0.3,0.5-0.4,0.7C40.2,253.8,40.4,253.6,40.5,253.3z"/>
					<path class="st0" d="M4.3,296.5l-0.1,0.2c0,0,0,0,0,0L4.3,296.5z"/>
					<path class="st0" d="M4.2,296.7l0,0.2C4.2,296.8,4.3,296.7,4.2,296.7z"/>
					<path class="st0" d="M4.2,297.3l0-0.4C4.2,297,4.1,297.2,4.2,297.3z"/>
					<path class="st0" d="M6,291.9L6,291.9C5.9,291.8,5.9,291.9,6,291.9z"/>
					<path class="st0" d="M6.6,290.6c-0.2,0.3-0.6,0.7-0.7,1.2l0.1,0.1C5.9,291.5,6.6,290.9,6.6,290.6z"/>
					<path class="st0" d="M10.9,286.2c-0.3,0.3-0.5,0.6-0.8,0.9c0.2-0.1,0.5-0.2,0.2,0.2C11.5,286.3,9.9,287.4,10.9,286.2z"/>
					<path class="st0" d="M13.4,283.5c-0.4,0.5,0.1,0.1,0.1,0.2C13.8,283.3,13.8,283.2,13.4,283.5z"/>
					<path class="st0" d="M33.2,265.1l0.1,0.2C33.6,264.9,33.2,265.2,33.2,265.1z"/>
					<polygon class="st0" points="35.6,260.4 35.2,260.6 35.3,261 					"/>
					<path class="st0" d="M39,259.1l-0.1,0.2c0.2-0.2,0.3-0.5,0.4-0.8L39,259.1z"/>
					<path class="st0" d="M48.4,214.8l-0.3,0.1C48.1,215.2,48.5,215.3,48.4,214.8z"/>
					<path class="st0" d="M52.3,196c0.1-0.1,0.2-0.2,0.3-0.4c0.1-0.2,0.2-0.4,0.2-0.5C52.6,195.4,52.4,195.7,52.3,196z"/>
					<polygon class="st0" points="100,166 99.6,166.2 100.3,165.9 					"/>
				</g>
			</g>
		</g>
	</g>
</g>
</svg>
