<?xml version="1.0" encoding="utf-8"?>
<!-- Generator: Adobe Illustrator 22.0.1, SVG Export Plug-In . SVG Version: 6.00 Build 0)  -->
<svg version="1.1" id="Layer_1" xmlns="http://www.w3.org/2000/svg" xmlns:xlink="http://www.w3.org/1999/xlink" x="0px" y="0px"
	 viewBox="0 0 340.5 169.2" style="enable-background:new 0 0 340.5 169.2;" xml:space="preserve">
<style type="text/css">
	.st0{fill:#A09C87;}
	.st1{fill:#CCC7A9;}
	.st2{fill:#1D1B19;}
	.st3{fill:#DBD5C0;}
	.st4{fill:#504E44;}
</style>
<g>
	<path class="st0" d="M79,97.6c-4.1,16-21.5,36.4-29.8,34.3c-8.4-2.1-19.6-9.6-15.6-25.6s29.2-43.6,37.6-41.5
		C79.5,66.9,83,81.6,79,97.6z"/>
	<path class="st1" d="M290.2,143.3c-50.5,25.2-92.9,9-167.3-11.6S7.4,82.8,17,48.1S80.3-11.1,154.6,9.6S322.5,127.2,290.2,143.3z"/>
	<path class="st1" d="M61.9,12.8C75,16.6,48.4,29.6,41.7,52.6s-1.4,38.9-14.6,35.1C14,84-3.4,68.5,3.3,45.5S48.7,9,61.9,12.8z"/>
	<path class="st1" d="M337.2,120c2.3,13.5,4.9,32.3-21.4,36.8c-26.3,4.6-71.5-6.8-73.8-20.3c-2.3-13.5,17.1-28.1,43.4-32.7
		C311.7,99.3,334.9,106.5,337.2,120z"/>
	<path class="st1" d="M111.8,118.7c-5.7,22.4-30,50.9-41.7,48c-11.7-3-27.4-13.4-21.8-35.8s40.9-61,52.6-58.1
		C112.7,75.8,117.5,96.3,111.8,118.7z"/>
	<circle class="st2" cx="67.9" cy="59.5" r="9"/>
	<circle class="st3" cx="66.6" cy="53.7" r="2"/>
	<circle class="st4" cx="28.3" cy="37" r="4.4"/>
</g>
</svg>
